<svg width="1280" height="60" viewBox="0 0 1280 60" fill="none" xmlns="http://www.w3.org/2000/svg">
<path d="M60.5 41.5555V18.4461C60.4982 18.1123 60.4084 17.7849 60.2397 17.4968C60.071 17.2088 59.8293 16.9703 59.5391 16.8055L38.9141 5.20391C38.6362 5.04346 38.3209 4.95898 38 4.95898C37.6791 4.95898 37.3638 5.04346 37.0859 5.20391L16.4609 16.8055C16.1707 16.9703 15.929 17.2088 15.7603 17.4968C15.5916 17.7849 15.5018 18.1123 15.5 18.4461V41.5555C15.5018 41.8893 15.5916 42.2167 15.7603 42.5048C15.929 42.7928 16.1707 43.0313 16.4609 43.1961L37.0859 54.7977C37.3638 54.9581 37.6791 55.0426 38 55.0426C38.3209 55.0426 38.6362 54.9581 38.9141 54.7977L59.5391 43.1961C59.8293 43.0313 60.071 42.7928 60.2397 42.5048C60.4084 42.2167 60.4982 41.8893 60.5 41.5555V41.5555Z" stroke="#475467" stroke-width="3" stroke-linecap="round" stroke-linejoin="round"/>
<path d="M49.4844 35.7422V23.5547L26.75 11.0156" stroke="#475467" stroke-width="3" stroke-linecap="round" stroke-linejoin="round"/>
<path d="M60.2422 17.4844L38.2109 30L15.7578 17.4844" stroke="#475467" stroke-width="3" stroke-linecap="round" stroke-linejoin="round"/>
<path d="M38.2109 30L38 55.0313" stroke="#475467" stroke-width="3" stroke-linecap="round" stroke-linejoin="round"/>
<path d="M81.12 23V11.48H88.056V13.408H83.048V16.28H87.096V18.2H83.048V23H81.12ZM88.5388 23L92.1708 11.48H94.9948L98.6268 23H96.6428L93.3468 12.664H93.7788L90.5228 23H88.5388ZM90.5628 20.504V18.704H96.6108V20.504H90.5628ZM104.025 23.24C103.182 23.24 102.422 23.0933 101.745 22.8C101.073 22.5067 100.518 22.088 100.081 21.544C99.6486 20.9947 99.374 20.344 99.2566 19.592L101.257 19.288C101.427 19.9707 101.777 20.4987 102.305 20.872C102.838 21.2453 103.451 21.432 104.145 21.432C104.555 21.432 104.942 21.368 105.305 21.24C105.667 21.112 105.961 20.9253 106.185 20.68C106.414 20.4347 106.529 20.1333 106.529 19.776C106.529 19.616 106.502 19.4693 106.449 19.336C106.395 19.1973 106.315 19.0747 106.209 18.968C106.107 18.8613 105.974 18.7653 105.809 18.68C105.649 18.5893 105.462 18.512 105.249 18.448L102.273 17.568C102.017 17.4933 101.739 17.3947 101.441 17.272C101.147 17.144 100.867 16.9707 100.601 16.752C100.339 16.528 100.123 16.2453 99.9526 15.904C99.7873 15.5573 99.7046 15.1307 99.7046 14.624C99.7046 13.8827 99.8913 13.2613 100.265 12.76C100.643 12.2533 101.15 11.8747 101.785 11.624C102.425 11.3733 103.134 11.2507 103.913 11.256C104.702 11.2613 105.406 11.3973 106.025 11.664C106.643 11.9253 107.161 12.3067 107.577 12.808C107.993 13.3093 108.286 13.9147 108.457 14.624L106.385 14.984C106.299 14.5787 106.134 14.2347 105.889 13.952C105.649 13.664 105.353 13.4453 105.001 13.296C104.654 13.1467 104.283 13.0667 103.889 13.056C103.505 13.0507 103.147 13.1093 102.817 13.232C102.491 13.3493 102.227 13.52 102.025 13.744C101.827 13.968 101.729 14.2293 101.729 14.528C101.729 14.8107 101.814 15.0427 101.985 15.224C102.155 15.4 102.366 15.5413 102.617 15.648C102.873 15.7493 103.131 15.8347 103.393 15.904L105.457 16.48C105.739 16.5547 106.057 16.656 106.409 16.784C106.761 16.912 107.099 17.0907 107.425 17.32C107.75 17.5493 108.017 17.8507 108.225 18.224C108.438 18.5973 108.545 19.072 108.545 19.648C108.545 20.2453 108.419 20.7707 108.169 21.224C107.923 21.672 107.59 22.0453 107.169 22.344C106.747 22.6427 106.265 22.8667 105.721 23.016C105.182 23.1653 104.617 23.24 104.025 23.24ZM113.044 23V13.288H109.316V11.48H118.7V13.288H114.972V23H113.044ZM119.979 23V11.48H127.419V13.288H121.907V16.128H126.459V17.936H121.907V21.192H127.419V23H119.979ZM133.493 23.24C132.651 23.24 131.891 23.0933 131.213 22.8C130.541 22.5067 129.987 22.088 129.549 21.544C129.117 20.9947 128.843 20.344 128.725 19.592L130.725 19.288C130.896 19.9707 131.245 20.4987 131.773 20.872C132.307 21.2453 132.92 21.432 133.613 21.432C134.024 21.432 134.411 21.368 134.773 21.24C135.136 21.112 135.429 20.9253 135.653 20.68C135.883 20.4347 135.997 20.1333 135.997 19.776C135.997 19.616 135.971 19.4693 135.917 19.336C135.864 19.1973 135.784 19.0747 135.677 18.968C135.576 18.8613 135.443 18.7653 135.277 18.68C135.117 18.5893 134.931 18.512 134.717 18.448L131.741 17.568C131.485 17.4933 131.208 17.3947 130.909 17.272C130.616 17.144 130.336 16.9707 130.069 16.752C129.808 16.528 129.592 16.2453 129.421 15.904C129.256 15.5573 129.173 15.1307 129.173 14.624C129.173 13.8827 129.36 13.2613 129.733 12.76C130.112 12.2533 130.619 11.8747 131.253 11.624C131.893 11.3733 132.603 11.2507 133.381 11.256C134.171 11.2613 134.875 11.3973 135.493 11.664C136.112 11.9253 136.629 12.3067 137.045 12.808C137.461 13.3093 137.755 13.9147 137.925 14.624L135.853 14.984C135.768 14.5787 135.603 14.2347 135.357 13.952C135.117 13.664 134.821 13.4453 134.469 13.296C134.123 13.1467 133.752 13.0667 133.357 13.056C132.973 13.0507 132.616 13.1093 132.285 13.232C131.96 13.3493 131.696 13.52 131.493 13.744C131.296 13.968 131.197 14.2293 131.197 14.528C131.197 14.8107 131.283 15.0427 131.453 15.224C131.624 15.4 131.835 15.5413 132.085 15.648C132.341 15.7493 132.6 15.8347 132.861 15.904L134.925 16.48C135.208 16.5547 135.525 16.656 135.877 16.784C136.229 16.912 136.568 17.0907 136.893 17.32C137.219 17.5493 137.485 17.8507 137.693 18.224C137.907 18.5973 138.013 19.072 138.013 19.648C138.013 20.2453 137.888 20.7707 137.637 21.224C137.392 21.672 137.059 22.0453 136.637 22.344C136.216 22.6427 135.733 22.8667 135.189 23.016C134.651 23.1653 134.085 23.24 133.493 23.24ZM142.513 23V13.288H138.785V11.48H148.169V13.288H144.441V23H142.513ZM152.167 23V11.48H155.839C155.935 11.48 156.124 11.4827 156.407 11.488C156.695 11.4933 156.972 11.512 157.239 11.544C158.151 11.6613 158.922 11.9867 159.551 12.52C160.186 13.048 160.666 13.7227 160.991 14.544C161.316 15.3653 161.479 16.264 161.479 17.24C161.479 18.216 161.316 19.1147 160.991 19.936C160.666 20.7573 160.186 21.4347 159.551 21.968C158.922 22.496 158.151 22.8187 157.239 22.936C156.978 22.968 156.703 22.9867 156.415 22.992C156.127 22.9973 155.935 23 155.839 23H152.167ZM154.127 21.184H155.839C155.999 21.184 156.202 21.1787 156.447 21.168C156.698 21.1573 156.919 21.1333 157.111 21.096C157.655 20.9947 158.098 20.752 158.439 20.368C158.78 19.984 159.031 19.5173 159.191 18.968C159.356 18.4187 159.439 17.8427 159.439 17.24C159.439 16.616 159.356 16.0293 159.191 15.48C159.026 14.9307 158.77 14.4693 158.423 14.096C158.082 13.7227 157.644 13.4853 157.111 13.384C156.919 13.3413 156.698 13.3173 156.447 13.312C156.202 13.3013 155.999 13.296 155.839 13.296H154.127V21.184ZM163.37 23V11.48H170.81V13.288H165.298V16.128H169.85V17.936H165.298V21.192H170.81V23H163.37ZM172.889 23V11.48H174.817V21.192H179.905V23H172.889ZM181.421 23V11.48H183.349V23H181.421ZM188.337 23L184.705 11.48H186.689L189.729 21.128L192.809 11.48H194.793L191.161 23H188.337ZM195.995 23V11.48H203.435V13.288H197.923V16.128H202.475V17.936H197.923V21.192H203.435V23H195.995ZM205.354 23V11.48H210.114C210.226 11.48 210.37 11.4853 210.546 11.496C210.722 11.5013 210.885 11.5173 211.034 11.544C211.701 11.6453 212.25 11.8667 212.682 12.208C213.12 12.5493 213.442 12.9813 213.65 13.504C213.864 14.0213 213.97 14.5973 213.97 15.232C213.97 16.1707 213.733 16.9787 213.258 17.656C212.784 18.328 212.056 18.744 211.074 18.904L210.25 18.976H207.282V23H205.354ZM211.97 23L209.698 18.312L211.658 17.88L214.154 23H211.97ZM207.282 17.176H210.034C210.141 17.176 210.261 17.1707 210.394 17.16C210.528 17.1493 210.65 17.128 210.762 17.096C211.082 17.016 211.333 16.8747 211.514 16.672C211.701 16.4693 211.832 16.24 211.906 15.984C211.986 15.728 212.026 15.4773 212.026 15.232C212.026 14.9867 211.986 14.736 211.906 14.48C211.832 14.2187 211.701 13.9867 211.514 13.784C211.333 13.5813 211.082 13.44 210.762 13.36C210.65 13.328 210.528 13.3093 210.394 13.304C210.261 13.2933 210.141 13.288 210.034 13.288H207.282V17.176ZM218.498 23V18.28L214.578 11.48H216.826L219.474 16.072L222.114 11.48H224.362L220.45 18.28V23H218.498Z" fill="#475467"/>
<path d="M81.12 49V37.48H84.616C84.7387 37.48 84.9467 37.4827 85.24 37.488C85.5387 37.4933 85.824 37.5147 86.096 37.552C86.9707 37.6747 87.7013 38 88.288 38.528C88.8747 39.056 89.3147 39.728 89.608 40.544C89.9013 41.36 90.048 42.2587 90.048 43.24C90.048 44.2213 89.9013 45.12 89.608 45.936C89.3147 46.752 88.8747 47.424 88.288 47.952C87.7013 48.48 86.9707 48.8053 86.096 48.928C85.8293 48.96 85.544 48.9813 85.24 48.992C84.936 48.9973 84.728 49 84.616 49H81.12ZM82.336 47.872H84.616C84.8347 47.872 85.0693 47.8667 85.32 47.856C85.576 47.84 85.7947 47.8133 85.976 47.776C86.648 47.6587 87.1893 47.3867 87.6 46.96C88.016 46.5333 88.32 46 88.512 45.36C88.704 44.7147 88.8 44.008 88.8 43.24C88.8 42.4667 88.704 41.7573 88.512 41.112C88.32 40.4667 88.016 39.9333 87.6 39.512C87.184 39.0907 86.6427 38.8213 85.976 38.704C85.7947 38.6667 85.5733 38.6427 85.312 38.632C85.056 38.616 84.824 38.608 84.616 38.608H82.336V47.872ZM95.526 49.24C94.6833 49.24 93.9527 49.0533 93.334 48.68C92.7207 48.3067 92.2433 47.7813 91.902 47.104C91.5607 46.4267 91.39 45.632 91.39 44.72C91.39 43.776 91.558 42.96 91.894 42.272C92.23 41.584 92.702 41.0533 93.31 40.68C93.9233 40.3067 94.646 40.12 95.478 40.12C96.3313 40.12 97.0593 40.3173 97.662 40.712C98.2647 41.1013 98.7207 41.6613 99.03 42.392C99.3393 43.1227 99.4807 43.9947 99.454 45.008H98.254V44.592C98.2327 43.472 97.99 42.6267 97.526 42.056C97.0673 41.4853 96.3953 41.2 95.51 41.2C94.582 41.2 93.87 41.5013 93.374 42.104C92.8833 42.7067 92.638 43.5653 92.638 44.68C92.638 45.768 92.8833 46.6133 93.374 47.216C93.87 47.8133 94.5713 48.112 95.478 48.112C96.0967 48.112 96.6353 47.9707 97.094 47.688C97.558 47.4 97.9233 46.9867 98.19 46.448L99.286 46.872C98.9447 47.624 98.4407 48.208 97.774 48.624C97.1127 49.0347 96.3633 49.24 95.526 49.24ZM92.222 45.008V44.024H98.822V45.008H92.222ZM101.389 49V37.24H102.565V49H101.389ZM105.124 38.72V37.4H106.3V38.72H105.124ZM105.124 49V40.36H106.3V49H105.124ZM111.034 49L107.898 40.36H109.09L111.642 47.464L114.178 40.36H115.386L112.25 49H111.034ZM120.167 49.24C119.324 49.24 118.593 49.0533 117.975 48.68C117.361 48.3067 116.884 47.7813 116.543 47.104C116.201 46.4267 116.031 45.632 116.031 44.72C116.031 43.776 116.199 42.96 116.535 42.272C116.871 41.584 117.343 41.0533 117.951 40.68C118.564 40.3067 119.287 40.12 120.119 40.12C120.972 40.12 121.7 40.3173 122.303 40.712C122.905 41.1013 123.361 41.6613 123.671 42.392C123.98 43.1227 124.121 43.9947 124.095 45.008H122.895V44.592C122.873 43.472 122.631 42.6267 122.167 42.056C121.708 41.4853 121.036 41.2 120.151 41.2C119.223 41.2 118.511 41.5013 118.015 42.104C117.524 42.7067 117.279 43.5653 117.279 44.68C117.279 45.768 117.524 46.6133 118.015 47.216C118.511 47.8133 119.212 48.112 120.119 48.112C120.737 48.112 121.276 47.9707 121.735 47.688C122.199 47.4 122.564 46.9867 122.831 46.448L123.927 46.872C123.585 47.624 123.081 48.208 122.415 48.624C121.753 49.0347 121.004 49.24 120.167 49.24ZM116.863 45.008V44.024H123.463V45.008H116.863ZM125.87 49V40.36H126.926V42.44L126.718 42.168C126.814 41.912 126.939 41.6773 127.094 41.464C127.249 41.2453 127.417 41.0667 127.598 40.928C127.822 40.7307 128.083 40.5813 128.382 40.48C128.681 40.3733 128.982 40.312 129.286 40.296C129.59 40.2747 129.867 40.296 130.118 40.36V41.464C129.803 41.384 129.459 41.3653 129.086 41.408C128.713 41.4507 128.369 41.6 128.054 41.856C127.766 42.08 127.55 42.3493 127.406 42.664C127.262 42.9733 127.166 43.304 127.118 43.656C127.07 44.0027 127.046 44.3467 127.046 44.688V49H125.87ZM132.758 52.84L134.43 48.304L134.454 49.648L130.67 40.36H131.918L135.022 48.128H134.51L137.374 40.36H138.574L133.934 52.84H132.758ZM143.327 38.72V37.4H144.503V38.72H143.327ZM143.327 49V40.36H144.503V49H143.327ZM153.141 49V44.592C153.141 44.112 153.096 43.672 153.005 43.272C152.915 42.8667 152.768 42.5147 152.565 42.216C152.368 41.912 152.109 41.6773 151.789 41.512C151.475 41.3467 151.091 41.264 150.637 41.264C150.221 41.264 149.853 41.336 149.533 41.48C149.219 41.624 148.952 41.832 148.733 42.104C148.52 42.3707 148.357 42.696 148.245 43.08C148.133 43.464 148.077 43.9013 148.077 44.392L147.245 44.208C147.245 43.3227 147.4 42.5787 147.709 41.976C148.019 41.3733 148.445 40.9173 148.989 40.608C149.533 40.2987 150.157 40.144 150.861 40.144C151.379 40.144 151.829 40.224 152.213 40.384C152.603 40.544 152.931 40.76 153.197 41.032C153.469 41.304 153.688 41.616 153.853 41.968C154.019 42.3147 154.139 42.6853 154.213 43.08C154.288 43.4693 154.325 43.8587 154.325 44.248V49H153.141ZM146.893 49V40.36H147.957V42.488H148.077V49H146.893ZM159.284 48.992L159.292 47.92L164.5 43.216C164.948 42.8107 165.244 42.4267 165.388 42.064C165.538 41.696 165.612 41.312 165.612 40.912C165.612 40.4373 165.5 40.008 165.276 39.624C165.052 39.24 164.751 38.936 164.372 38.712C163.994 38.4827 163.57 38.368 163.1 38.368C162.61 38.368 162.172 38.4853 161.788 38.72C161.404 38.9547 161.1 39.264 160.876 39.648C160.658 40.032 160.551 40.4507 160.556 40.904H159.356C159.356 40.2053 159.522 39.5787 159.852 39.024C160.183 38.4693 160.631 38.0347 161.196 37.72C161.762 37.4 162.402 37.24 163.116 37.24C163.815 37.24 164.442 37.4053 164.996 37.736C165.556 38.0613 165.996 38.504 166.316 39.064C166.642 39.6187 166.804 40.2373 166.804 40.92C166.804 41.4 166.746 41.824 166.628 42.192C166.516 42.5547 166.338 42.8933 166.092 43.208C165.852 43.5173 165.546 43.8373 165.172 44.168L160.548 48.344L160.364 47.864H166.804V48.992H159.284ZM173.489 49V46.768H168.097V45.648L171.953 37.48H173.273L169.417 45.648H173.489V42.288H174.673V45.648H175.929V46.768H174.673V49H173.489ZM180.766 37.48H181.974L178.902 49H177.694L180.766 37.48ZM184.058 49V37.48H185.234V42.672H191.602V37.48H192.77V49H191.602V43.8H185.234V49H184.058Z" fill="#667085"/>
<path d="M340.68 35.8246C340.68 39.0496 343.155 41.6496 346.23 41.6496H352.505C355.18 41.6496 357.355 39.3746 357.355 36.5746C357.355 33.5246 356.03 32.4496 354.055 31.7496L343.98 28.2496C342.005 27.5496 340.68 26.4746 340.68 23.4246C340.68 20.6246 342.855 18.3496 345.53 18.3496H351.805C354.88 18.3496 357.355 20.9496 357.355 24.1746" stroke="#475467" stroke-width="3" stroke-linecap="round" stroke-linejoin="round"/>
<path d="M349 15V45" stroke="#475467" stroke-width="3" stroke-linecap="round" stroke-linejoin="round"/>
<path d="M349 55C362.807 55 374 43.8071 374 30C374 16.1929 362.807 5 349 5C335.193 5 324 16.1929 324 30C324 43.8071 335.193 55 349 55Z" stroke="#475467" stroke-width="3" stroke-linecap="round" stroke-linejoin="round"/>
<path d="M391.8 22.984V21.304L396.728 16.912C397.112 16.5707 397.379 16.248 397.528 15.944C397.677 15.64 397.752 15.3467 397.752 15.064C397.752 14.68 397.669 14.3387 397.504 14.04C397.339 13.736 397.109 13.496 396.816 13.32C396.528 13.144 396.195 13.056 395.816 13.056C395.416 13.056 395.061 13.1493 394.752 13.336C394.448 13.5173 394.211 13.76 394.04 14.064C393.869 14.368 393.789 14.696 393.8 15.048H391.816C391.816 14.28 391.987 13.6107 392.328 13.04C392.675 12.4693 393.149 12.0267 393.752 11.712C394.36 11.3973 395.061 11.24 395.856 11.24C396.592 11.24 397.253 11.4053 397.84 11.736C398.427 12.0613 398.888 12.5147 399.224 13.096C399.56 13.672 399.728 14.336 399.728 15.088C399.728 15.6373 399.653 16.0987 399.504 16.472C399.355 16.8453 399.131 17.1893 398.832 17.504C398.539 17.8187 398.173 18.168 397.736 18.552L394.24 21.648L394.064 21.168H399.728V22.984H391.8ZM406.123 23V21.096H401.019V19.296L404.707 11.48H406.907L403.219 19.296H406.123V16.296H408.075V19.296H409.155V21.096H408.075V23H406.123ZM414.276 23V11.48H416.204V16.328H421.66V11.48H423.58V23H421.66V18.136H416.204V23H414.276ZM430.695 23.24C429.543 23.24 428.556 22.9893 427.735 22.488C426.914 21.9813 426.282 21.2773 425.839 20.376C425.402 19.4747 425.183 18.4293 425.183 17.24C425.183 16.0507 425.402 15.0053 425.839 14.104C426.282 13.2027 426.914 12.5013 427.735 12C428.556 11.4933 429.543 11.24 430.695 11.24C431.847 11.24 432.834 11.4933 433.655 12C434.482 12.5013 435.114 13.2027 435.551 14.104C435.994 15.0053 436.215 16.0507 436.215 17.24C436.215 18.4293 435.994 19.4747 435.551 20.376C435.114 21.2773 434.482 21.9813 433.655 22.488C432.834 22.9893 431.847 23.24 430.695 23.24ZM430.695 21.424C431.468 21.4293 432.111 21.2587 432.623 20.912C433.14 20.5653 433.527 20.0773 433.783 19.448C434.044 18.8187 434.175 18.0827 434.175 17.24C434.175 16.3973 434.044 15.6667 433.783 15.048C433.527 14.424 433.14 13.9387 432.623 13.592C432.111 13.2453 431.468 13.0667 430.695 13.056C429.922 13.0507 429.279 13.2213 428.767 13.568C428.255 13.9147 427.868 14.4027 427.607 15.032C427.351 15.6613 427.223 16.3973 427.223 17.24C427.223 18.0827 427.351 18.816 427.607 19.44C427.863 20.0587 428.247 20.5413 428.759 20.888C429.276 21.2347 429.922 21.4133 430.695 21.424ZM442.448 23.24C441.53 23.24 440.722 23.0533 440.024 22.68C439.33 22.3067 438.786 21.7813 438.392 21.104C438.002 20.4267 437.808 19.632 437.808 18.72V11.496L439.76 11.48V18.672C439.76 19.104 439.832 19.4907 439.976 19.832C440.125 20.1733 440.325 20.464 440.576 20.704C440.826 20.9387 441.114 21.1173 441.44 21.24C441.765 21.3627 442.101 21.424 442.448 21.424C442.805 21.424 443.144 21.3627 443.464 21.24C443.789 21.112 444.077 20.9307 444.328 20.696C444.578 20.456 444.776 20.1653 444.92 19.824C445.064 19.4827 445.135 19.0987 445.135 18.672V11.48H447.088V18.72C447.088 19.632 446.89 20.4267 446.496 21.104C446.106 21.7813 445.562 22.3067 444.864 22.68C444.17 23.0533 443.365 23.24 442.448 23.24ZM449.323 23V11.48H454.083C454.195 11.48 454.339 11.4853 454.515 11.496C454.691 11.5013 454.854 11.5173 455.003 11.544C455.67 11.6453 456.219 11.8667 456.651 12.208C457.088 12.5493 457.411 12.9813 457.619 13.504C457.832 14.0213 457.939 14.5973 457.939 15.232C457.939 16.1707 457.702 16.9787 457.227 17.656C456.752 18.328 456.024 18.744 455.043 18.904L454.219 18.976H451.251V23H449.323ZM455.939 23L453.667 18.312L455.627 17.88L458.123 23H455.939ZM451.251 17.176H454.003C454.11 17.176 454.23 17.1707 454.363 17.16C454.496 17.1493 454.619 17.128 454.731 17.096C455.051 17.016 455.302 16.8747 455.483 16.672C455.67 16.4693 455.8 16.24 455.875 15.984C455.955 15.728 455.995 15.4773 455.995 15.232C455.995 14.9867 455.955 14.736 455.875 14.48C455.8 14.2187 455.67 13.9867 455.483 13.784C455.302 13.5813 455.051 13.44 454.731 13.36C454.619 13.328 454.496 13.3093 454.363 13.304C454.23 13.2933 454.11 13.288 454.003 13.288H451.251V17.176ZM464.15 23.24C463.307 23.24 462.547 23.0933 461.87 22.8C461.198 22.5067 460.643 22.088 460.206 21.544C459.774 20.9947 459.499 20.344 459.382 19.592L461.382 19.288C461.552 19.9707 461.902 20.4987 462.43 20.872C462.963 21.2453 463.576 21.432 464.27 21.432C464.68 21.432 465.067 21.368 465.43 21.24C465.792 21.112 466.086 20.9253 466.31 20.68C466.539 20.4347 466.654 20.1333 466.654 19.776C466.654 19.616 466.627 19.4693 466.574 19.336C466.52 19.1973 466.44 19.0747 466.334 18.968C466.232 18.8613 466.099 18.7653 465.934 18.68C465.774 18.5893 465.587 18.512 465.374 18.448L462.398 17.568C462.142 17.4933 461.864 17.3947 461.566 17.272C461.272 17.144 460.992 16.9707 460.726 16.752C460.464 16.528 460.248 16.2453 460.078 15.904C459.912 15.5573 459.83 15.1307 459.83 14.624C459.83 13.8827 460.016 13.2613 460.39 12.76C460.768 12.2533 461.275 11.8747 461.91 11.624C462.55 11.3733 463.259 11.2507 464.038 11.256C464.827 11.2613 465.531 11.3973 466.15 11.664C466.768 11.9253 467.286 12.3067 467.702 12.808C468.118 13.3093 468.411 13.9147 468.582 14.624L466.51 14.984C466.424 14.5787 466.259 14.2347 466.014 13.952C465.774 13.664 465.478 13.4453 465.126 13.296C464.779 13.1467 464.408 13.0667 464.014 13.056C463.63 13.0507 463.272 13.1093 462.942 13.232C462.616 13.3493 462.352 13.52 462.15 13.744C461.952 13.968 461.854 14.2293 461.854 14.528C461.854 14.8107 461.939 15.0427 462.11 15.224C462.28 15.4 462.491 15.5413 462.742 15.648C462.998 15.7493 463.256 15.8347 463.518 15.904L465.582 16.48C465.864 16.5547 466.182 16.656 466.534 16.784C466.886 16.912 467.224 17.0907 467.55 17.32C467.875 17.5493 468.142 17.8507 468.35 18.224C468.563 18.5973 468.67 19.072 468.67 19.648C468.67 20.2453 468.544 20.7707 468.294 21.224C468.048 21.672 467.715 22.0453 467.294 22.344C466.872 22.6427 466.39 22.8667 465.846 23.016C465.307 23.1653 464.742 23.24 464.15 23.24ZM473.604 23V11.48H478.364C478.476 11.48 478.62 11.4853 478.796 11.496C478.972 11.5013 479.135 11.5173 479.284 11.544C479.951 11.6453 480.5 11.8667 480.932 12.208C481.37 12.5493 481.692 12.9813 481.9 13.504C482.114 14.0213 482.22 14.5973 482.22 15.232C482.22 16.1707 481.983 16.9787 481.508 17.656C481.034 18.328 480.306 18.744 479.324 18.904L478.5 18.976H475.532V23H473.604ZM480.22 23L477.948 18.312L479.908 17.88L482.404 23H480.22ZM475.532 17.176H478.284C478.391 17.176 478.511 17.1707 478.644 17.16C478.778 17.1493 478.9 17.128 479.012 17.096C479.332 17.016 479.583 16.8747 479.764 16.672C479.951 16.4693 480.082 16.24 480.156 15.984C480.236 15.728 480.276 15.4773 480.276 15.232C480.276 14.9867 480.236 14.736 480.156 14.48C480.082 14.2187 479.951 13.9867 479.764 13.784C479.583 13.5813 479.332 13.44 479.012 13.36C478.9 13.328 478.778 13.3093 478.644 13.304C478.511 13.2933 478.391 13.288 478.284 13.288H475.532V17.176ZM484.167 23V11.48H491.607V13.288H486.095V16.128H490.647V17.936H486.095V21.192H491.607V23H484.167ZM496.294 23V13.288H492.566V11.48H501.95V13.288H498.222V23H496.294ZM507.869 23.24C506.952 23.24 506.144 23.0533 505.445 22.68C504.752 22.3067 504.208 21.7813 503.813 21.104C503.424 20.4267 503.229 19.632 503.229 18.72V11.496L505.181 11.48V18.672C505.181 19.104 505.253 19.4907 505.397 19.832C505.547 20.1733 505.747 20.464 505.997 20.704C506.248 20.9387 506.536 21.1173 506.861 21.24C507.187 21.3627 507.523 21.424 507.869 21.424C508.227 21.424 508.565 21.3627 508.885 21.24C509.211 21.112 509.499 20.9307 509.749 20.696C510 20.456 510.197 20.1653 510.341 19.824C510.485 19.4827 510.557 19.0987 510.557 18.672V11.48H512.509V18.72C512.509 19.632 512.312 20.4267 511.917 21.104C511.528 21.7813 510.984 22.3067 510.285 22.68C509.592 23.0533 508.787 23.24 507.869 23.24ZM514.745 23V11.48H519.505C519.617 11.48 519.761 11.4853 519.937 11.496C520.113 11.5013 520.276 11.5173 520.425 11.544C521.092 11.6453 521.641 11.8667 522.073 12.208C522.51 12.5493 522.833 12.9813 523.041 13.504C523.254 14.0213 523.361 14.5973 523.361 15.232C523.361 16.1707 523.124 16.9787 522.649 17.656C522.174 18.328 521.446 18.744 520.465 18.904L519.641 18.976H516.673V23H514.745ZM521.361 23L519.089 18.312L521.049 17.88L523.545 23H521.361ZM516.673 17.176H519.425C519.532 17.176 519.652 17.1707 519.785 17.16C519.918 17.1493 520.041 17.128 520.153 17.096C520.473 17.016 520.724 16.8747 520.905 16.672C521.092 16.4693 521.222 16.24 521.297 15.984C521.377 15.728 521.417 15.4773 521.417 15.232C521.417 14.9867 521.377 14.736 521.297 14.48C521.222 14.2187 521.092 13.9867 520.905 13.784C520.724 13.5813 520.473 13.44 520.153 13.36C520.041 13.328 519.918 13.3093 519.785 13.304C519.652 13.2933 519.532 13.288 519.425 13.288H516.673V17.176ZM525.308 23V11.48H527.26L532.604 19.6V11.48H534.556V23H532.604L527.26 14.88V23H525.308Z" fill="#475467"/>
<path d="M394.128 49V38.792L391.96 40.096V38.776L394.128 37.48H395.32V49H394.128ZM402.114 49.24C401.405 49.24 400.765 49.0747 400.194 48.744C399.629 48.4133 399.181 47.9653 398.85 47.4C398.52 46.8293 398.354 46.1893 398.354 45.48V41C398.354 40.2907 398.52 39.6533 398.85 39.088C399.181 38.5173 399.629 38.0667 400.194 37.736C400.765 37.4053 401.405 37.24 402.114 37.24C402.824 37.24 403.461 37.4053 404.026 37.736C404.597 38.0667 405.048 38.5173 405.378 39.088C405.709 39.6533 405.874 40.2907 405.874 41V45.48C405.874 46.1893 405.709 46.8293 405.378 47.4C405.048 47.9653 404.597 48.4133 404.026 48.744C403.461 49.0747 402.824 49.24 402.114 49.24ZM402.114 48.104C402.589 48.104 403.021 47.9893 403.41 47.76C403.8 47.5253 404.109 47.2133 404.338 46.824C404.568 46.4347 404.682 46.0053 404.682 45.536V40.944C404.682 40.4693 404.568 40.0373 404.338 39.648C404.109 39.2587 403.8 38.9493 403.41 38.72C403.021 38.4853 402.589 38.368 402.114 38.368C401.64 38.368 401.208 38.4853 400.818 38.72C400.429 38.9493 400.12 39.2587 399.89 39.648C399.661 40.0373 399.546 40.4693 399.546 40.944V45.536C399.546 46.0053 399.661 46.4347 399.89 46.824C400.12 47.2133 400.429 47.5253 400.818 47.76C401.208 47.9893 401.64 48.104 402.114 48.104ZM411.88 49.24C411.171 49.24 410.531 49.0747 409.96 48.744C409.395 48.4133 408.947 47.9653 408.616 47.4C408.285 46.8293 408.12 46.1893 408.12 45.48V41C408.12 40.2907 408.285 39.6533 408.616 39.088C408.947 38.5173 409.395 38.0667 409.96 37.736C410.531 37.4053 411.171 37.24 411.88 37.24C412.589 37.24 413.227 37.4053 413.792 37.736C414.363 38.0667 414.813 38.5173 415.144 39.088C415.475 39.6533 415.64 40.2907 415.64 41V45.48C415.64 46.1893 415.475 46.8293 415.144 47.4C414.813 47.9653 414.363 48.4133 413.792 48.744C413.227 49.0747 412.589 49.24 411.88 49.24ZM411.88 48.104C412.355 48.104 412.787 47.9893 413.176 47.76C413.565 47.5253 413.875 47.2133 414.104 46.824C414.333 46.4347 414.448 46.0053 414.448 45.536V40.944C414.448 40.4693 414.333 40.0373 414.104 39.648C413.875 39.2587 413.565 38.9493 413.176 38.72C412.787 38.4853 412.355 38.368 411.88 38.368C411.405 38.368 410.973 38.4853 410.584 38.72C410.195 38.9493 409.885 39.2587 409.656 39.648C409.427 40.0373 409.312 40.4693 409.312 40.944V45.536C409.312 46.0053 409.427 46.4347 409.656 46.824C409.885 47.2133 410.195 47.5253 410.584 47.76C410.973 47.9893 411.405 48.104 411.88 48.104ZM419.006 49L418.206 48.2L428.95 37.48L429.75 38.272L419.006 49ZM427.35 49.24C426.822 49.24 426.339 49.112 425.902 48.856C425.47 48.5947 425.123 48.248 424.862 47.816C424.6 47.3787 424.47 46.8933 424.47 46.36C424.47 45.8373 424.603 45.3573 424.87 44.92C425.136 44.4827 425.488 44.1333 425.926 43.872C426.363 43.6107 426.838 43.48 427.35 43.48C427.878 43.48 428.36 43.6107 428.798 43.872C429.235 44.128 429.582 44.4747 429.838 44.912C430.099 45.344 430.23 45.8267 430.23 46.36C430.23 46.8933 430.099 47.3787 429.838 47.816C429.582 48.248 429.235 48.5947 428.798 48.856C428.36 49.112 427.878 49.24 427.35 49.24ZM427.35 48.176C427.675 48.176 427.976 48.0933 428.254 47.928C428.531 47.7627 428.752 47.544 428.918 47.272C429.083 46.9947 429.166 46.6907 429.166 46.36C429.166 46.0293 429.083 45.728 428.918 45.456C428.752 45.1787 428.531 44.9573 428.254 44.792C427.976 44.6267 427.675 44.544 427.35 44.544C427.019 44.544 426.715 44.6267 426.438 44.792C426.166 44.9573 425.944 45.1787 425.774 45.456C425.608 45.728 425.526 46.0293 425.526 46.36C425.526 46.6907 425.608 46.9947 425.774 47.272C425.944 47.544 426.166 47.7627 426.438 47.928C426.715 48.0933 427.019 48.176 427.35 48.176ZM420.606 43C420.078 43 419.595 42.872 419.158 42.616C418.72 42.3547 418.371 42.008 418.11 41.576C417.854 41.1387 417.726 40.6533 417.726 40.12C417.726 39.5973 417.859 39.1173 418.126 38.68C418.392 38.2427 418.744 37.8933 419.182 37.632C419.619 37.3707 420.094 37.24 420.606 37.24C421.134 37.24 421.614 37.3707 422.046 37.632C422.483 37.888 422.832 38.2347 423.094 38.672C423.355 39.104 423.486 39.5867 423.486 40.12C423.486 40.6533 423.355 41.1387 423.094 41.576C422.832 42.008 422.483 42.3547 422.046 42.616C421.614 42.872 421.134 43 420.606 43ZM420.606 41.936C420.936 41.936 421.238 41.8533 421.51 41.688C421.787 41.5227 422.008 41.304 422.174 41.032C422.339 40.7547 422.422 40.4507 422.422 40.12C422.422 39.7893 422.339 39.488 422.174 39.216C422.008 38.9387 421.787 38.7173 421.51 38.552C421.238 38.3867 420.936 38.304 420.606 38.304C420.275 38.304 419.971 38.3867 419.694 38.552C419.422 38.7173 419.203 38.9387 419.038 39.216C418.872 39.488 418.79 39.7893 418.79 40.12C418.79 40.4507 418.872 40.7547 419.038 41.032C419.203 41.304 419.422 41.5227 419.694 41.688C419.971 41.8533 420.275 41.936 420.606 41.936ZM445.815 49L445.823 43.328C445.823 42.6613 445.636 42.1387 445.263 41.76C444.895 41.376 444.425 41.184 443.855 41.184C443.529 41.184 443.212 41.2587 442.903 41.408C442.593 41.5573 442.337 41.7973 442.135 42.128C441.937 42.4587 441.839 42.8907 441.839 43.424L441.143 43.224C441.127 42.6053 441.247 42.064 441.503 41.6C441.764 41.136 442.121 40.776 442.575 40.52C443.033 40.2587 443.551 40.128 444.127 40.128C444.996 40.128 445.692 40.3973 446.215 40.936C446.737 41.4693 446.999 42.192 446.999 43.104L446.991 49H445.815ZM435.503 49V40.36H436.559V42.488H436.687V49H435.503ZM440.671 49L440.679 43.408C440.679 42.72 440.495 42.1787 440.127 41.784C439.764 41.384 439.284 41.184 438.687 41.184C438.089 41.184 437.607 41.3893 437.239 41.8C436.871 42.2053 436.687 42.7467 436.687 43.424L435.983 43.04C435.983 42.4853 436.113 41.9893 436.375 41.552C436.636 41.1093 436.993 40.7627 437.447 40.512C437.9 40.256 438.415 40.128 438.991 40.128C439.54 40.128 440.028 40.2453 440.455 40.48C440.887 40.7147 441.225 41.056 441.471 41.504C441.716 41.952 441.839 42.496 441.839 43.136L441.831 49H440.671ZM452.634 49.24C451.776 49.24 451.042 49.0453 450.434 48.656C449.826 48.2667 449.36 47.728 449.034 47.04C448.709 46.352 448.546 45.5627 448.546 44.672C448.546 43.7653 448.712 42.9707 449.042 42.288C449.373 41.6053 449.842 41.0747 450.45 40.696C451.064 40.312 451.792 40.12 452.634 40.12C453.498 40.12 454.234 40.3147 454.842 40.704C455.456 41.088 455.922 41.624 456.242 42.312C456.568 42.9947 456.73 43.7813 456.73 44.672C456.73 45.5787 456.568 46.376 456.242 47.064C455.917 47.7467 455.448 48.28 454.834 48.664C454.221 49.048 453.488 49.24 452.634 49.24ZM452.634 48.112C453.594 48.112 454.309 47.7947 454.778 47.16C455.248 46.52 455.482 45.6907 455.482 44.672C455.482 43.6267 455.245 42.7947 454.77 42.176C454.301 41.5573 453.589 41.248 452.634 41.248C451.989 41.248 451.456 41.3947 451.034 41.688C450.618 41.976 450.306 42.3787 450.098 42.896C449.896 43.408 449.794 44 449.794 44.672C449.794 45.712 450.034 46.5467 450.514 47.176C450.994 47.8 451.701 48.112 452.634 48.112ZM464.735 49V44.592C464.735 44.112 464.69 43.672 464.599 43.272C464.508 42.8667 464.362 42.5147 464.159 42.216C463.962 41.912 463.703 41.6773 463.383 41.512C463.068 41.3467 462.684 41.264 462.231 41.264C461.815 41.264 461.447 41.336 461.127 41.48C460.812 41.624 460.546 41.832 460.327 42.104C460.114 42.3707 459.951 42.696 459.839 43.08C459.727 43.464 459.671 43.9013 459.671 44.392L458.839 44.208C458.839 43.3227 458.994 42.5787 459.303 41.976C459.612 41.3733 460.039 40.9173 460.583 40.608C461.127 40.2987 461.751 40.144 462.455 40.144C462.972 40.144 463.423 40.224 463.807 40.384C464.196 40.544 464.524 40.76 464.791 41.032C465.063 41.304 465.282 41.616 465.447 41.968C465.612 42.3147 465.732 42.6853 465.807 43.08C465.882 43.4693 465.919 43.8587 465.919 44.248V49H464.735ZM458.487 49V40.36H459.551V42.488H459.671V49H458.487ZM471.604 49.24C470.761 49.24 470.031 49.0533 469.412 48.68C468.799 48.3067 468.321 47.7813 467.98 47.104C467.639 46.4267 467.468 45.632 467.468 44.72C467.468 43.776 467.636 42.96 467.972 42.272C468.308 41.584 468.78 41.0533 469.388 40.68C470.001 40.3067 470.724 40.12 471.556 40.12C472.409 40.12 473.137 40.3173 473.74 40.712C474.343 41.1013 474.799 41.6613 475.108 42.392C475.417 43.1227 475.559 43.9947 475.532 45.008H474.332V44.592C474.311 43.472 474.068 42.6267 473.604 42.056C473.145 41.4853 472.473 41.2 471.588 41.2C470.66 41.2 469.948 41.5013 469.452 42.104C468.961 42.7067 468.716 43.5653 468.716 44.68C468.716 45.768 468.961 46.6133 469.452 47.216C469.948 47.8133 470.649 48.112 471.556 48.112C472.175 48.112 472.713 47.9707 473.172 47.688C473.636 47.4 474.001 46.9867 474.268 46.448L475.364 46.872C475.023 47.624 474.519 48.208 473.852 48.624C473.191 49.0347 472.441 49.24 471.604 49.24ZM468.3 45.008V44.024H474.9V45.008H468.3ZM478.383 52.84L480.055 48.304L480.079 49.648L476.295 40.36H477.543L480.647 48.128H480.135L482.999 40.36H484.199L479.559 52.84H478.383ZM485.429 44.464V43.456H490.229V44.464H485.429ZM496.188 49.24C495.393 49.24 494.721 49.04 494.172 48.64C493.622 48.2347 493.206 47.688 492.924 47C492.641 46.3067 492.5 45.5307 492.5 44.672C492.5 43.7973 492.641 43.0187 492.924 42.336C493.212 41.648 493.633 41.1067 494.188 40.712C494.742 40.3173 495.425 40.12 496.236 40.12C497.025 40.12 497.702 40.32 498.268 40.72C498.833 41.12 499.265 41.664 499.564 42.352C499.868 43.04 500.02 43.8133 500.02 44.672C500.02 45.536 499.868 46.312 499.564 47C499.26 47.688 498.822 48.2347 498.252 48.64C497.681 49.04 496.993 49.24 496.188 49.24ZM492.3 49V37.48H493.484V42.496H493.356V49H492.3ZM496.068 48.144C496.67 48.144 497.172 47.992 497.572 47.688C497.972 47.384 498.27 46.9707 498.468 46.448C498.67 45.92 498.772 45.328 498.772 44.672C498.772 44.0213 498.673 43.4347 498.476 42.912C498.278 42.3893 497.977 41.976 497.572 41.672C497.172 41.368 496.662 41.216 496.044 41.216C495.441 41.216 494.94 41.3627 494.54 41.656C494.145 41.9493 493.849 42.3573 493.652 42.88C493.454 43.3973 493.356 43.9947 493.356 44.672C493.356 45.3387 493.454 45.936 493.652 46.464C493.849 46.9867 494.148 47.3973 494.548 47.696C494.948 47.9947 495.454 48.144 496.068 48.144ZM504.248 49.24C503.598 49.24 503.051 49.1227 502.608 48.888C502.171 48.6533 501.843 48.3413 501.624 47.952C501.406 47.5627 501.296 47.1387 501.296 46.68C501.296 46.2107 501.39 45.8107 501.576 45.48C501.768 45.144 502.027 44.8693 502.352 44.656C502.683 44.4427 503.064 44.28 503.496 44.168C503.934 44.0613 504.416 43.968 504.944 43.888C505.478 43.8027 505.998 43.7307 506.504 43.672C507.016 43.608 507.464 43.5467 507.848 43.488L507.432 43.744C507.448 42.8907 507.283 42.2587 506.936 41.848C506.59 41.4373 505.987 41.232 505.128 41.232C504.536 41.232 504.035 41.3653 503.624 41.632C503.219 41.8987 502.934 42.32 502.768 42.896L501.624 42.56C501.822 41.7867 502.219 41.1867 502.816 40.76C503.414 40.3333 504.19 40.12 505.144 40.12C505.934 40.12 506.603 40.2693 507.152 40.568C507.707 40.8613 508.099 41.288 508.328 41.848C508.435 42.0987 508.504 42.3787 508.536 42.688C508.568 42.9973 508.584 43.312 508.584 43.632V49H507.536V46.832L507.84 46.96C507.547 47.7013 507.091 48.2667 506.472 48.656C505.854 49.0453 505.112 49.24 504.248 49.24ZM504.384 48.224C504.934 48.224 505.414 48.1253 505.824 47.928C506.235 47.7307 506.566 47.4613 506.816 47.12C507.067 46.7733 507.23 46.384 507.304 45.952C507.368 45.6747 507.403 45.3707 507.408 45.04C507.414 44.704 507.416 44.4533 507.416 44.288L507.864 44.52C507.464 44.5733 507.03 44.6267 506.56 44.68C506.096 44.7333 505.638 44.7947 505.184 44.864C504.736 44.9333 504.331 45.016 503.968 45.112C503.723 45.1813 503.486 45.28 503.256 45.408C503.027 45.5307 502.838 45.696 502.688 45.904C502.544 46.112 502.472 46.3707 502.472 46.68C502.472 46.9307 502.534 47.1733 502.656 47.408C502.784 47.6427 502.987 47.8373 503.264 47.992C503.547 48.1467 503.92 48.224 504.384 48.224ZM514.251 49.24C513.382 49.24 512.646 49.0453 512.043 48.656C511.44 48.2667 510.982 47.7307 510.667 47.048C510.358 46.36 510.198 45.5707 510.187 44.68C510.198 43.7733 510.363 42.9787 510.683 42.296C511.003 41.608 511.464 41.0747 512.067 40.696C512.67 40.312 513.4 40.12 514.259 40.12C515.134 40.12 515.894 40.3333 516.539 40.76C517.19 41.1867 517.635 41.7707 517.875 42.512L516.723 42.88C516.52 42.3627 516.198 41.9627 515.755 41.68C515.318 41.392 514.816 41.248 514.251 41.248C513.616 41.248 513.091 41.3947 512.675 41.688C512.259 41.976 511.95 42.3787 511.747 42.896C511.544 43.4133 511.44 44.008 511.435 44.68C511.446 45.7147 511.686 46.5467 512.155 47.176C512.624 47.8 513.323 48.112 514.251 48.112C514.838 48.112 515.336 47.9787 515.747 47.712C516.163 47.44 516.478 47.0453 516.691 46.528L517.875 46.88C517.555 47.648 517.086 48.2347 516.467 48.64C515.848 49.04 515.11 49.24 514.251 49.24ZM519.518 49L519.526 37.48H520.71V44.52L524.566 40.36H526.134L522.086 44.68L526.662 49H524.95L520.71 44.84V49H519.518ZM534.099 53.08C533.656 53.08 533.219 53.0133 532.787 52.88C532.36 52.752 531.966 52.5467 531.603 52.264C531.24 51.9867 530.936 51.624 530.691 51.176L531.755 50.584C531.995 51.064 532.331 51.408 532.763 51.616C533.2 51.8293 533.646 51.936 534.099 51.936C534.723 51.936 535.227 51.8187 535.611 51.584C536 51.3547 536.283 51.0133 536.459 50.56C536.635 50.1067 536.72 49.5413 536.715 48.864V46.56H536.851V40.36H537.899V48.88C537.899 49.1253 537.891 49.36 537.875 49.584C537.864 49.8133 537.84 50.0373 537.803 50.256C537.702 50.9013 537.491 51.432 537.171 51.848C536.856 52.264 536.44 52.5733 535.923 52.776C535.411 52.9787 534.803 53.08 534.099 53.08ZM534.019 49.24C533.214 49.24 532.526 49.04 531.955 48.64C531.384 48.2347 530.947 47.688 530.643 47C530.339 46.312 530.187 45.536 530.187 44.672C530.187 43.8133 530.336 43.04 530.635 42.352C530.939 41.664 531.374 41.12 531.939 40.72C532.504 40.32 533.182 40.12 533.971 40.12C534.782 40.12 535.464 40.3173 536.019 40.712C536.574 41.1067 536.992 41.648 537.275 42.336C537.563 43.0187 537.707 43.7973 537.707 44.672C537.707 45.5307 537.566 46.3067 537.283 47C537 47.688 536.584 48.2347 536.035 48.64C535.486 49.04 534.814 49.24 534.019 49.24ZM534.139 48.144C534.752 48.144 535.259 47.9947 535.659 47.696C536.059 47.3973 536.358 46.9867 536.555 46.464C536.752 45.936 536.851 45.3387 536.851 44.672C536.851 43.9947 536.752 43.3973 536.555 42.88C536.358 42.3573 536.059 41.9493 535.659 41.656C535.264 41.3627 534.766 41.216 534.163 41.216C533.544 41.216 533.032 41.368 532.627 41.672C532.222 41.976 531.92 42.3893 531.723 42.912C531.531 43.4347 531.435 44.0213 531.435 44.672C531.435 45.328 531.534 45.92 531.731 46.448C531.934 46.9707 532.235 47.384 532.635 47.688C533.035 47.992 533.536 48.144 534.139 48.144ZM543.44 49.216C542.922 49.216 542.469 49.136 542.08 48.976C541.696 48.816 541.368 48.6 541.096 48.328C540.829 48.056 540.613 47.7467 540.448 47.4C540.282 47.048 540.162 46.6773 540.088 46.288C540.013 45.8933 539.976 45.5013 539.976 45.112V40.36H541.16V44.768C541.16 45.2427 541.205 45.6827 541.296 46.088C541.386 46.4933 541.53 46.848 541.728 47.152C541.93 47.4507 542.189 47.6827 542.504 47.848C542.824 48.0133 543.21 48.096 543.664 48.096C544.08 48.096 544.445 48.024 544.76 47.88C545.08 47.736 545.346 47.5307 545.56 47.264C545.778 46.992 545.944 46.664 546.056 46.28C546.168 45.8907 546.224 45.4533 546.224 44.968L547.056 45.152C547.056 46.0373 546.901 46.7813 546.592 47.384C546.282 47.9867 545.856 48.4427 545.312 48.752C544.768 49.0613 544.144 49.216 543.44 49.216ZM546.344 49V46.872H546.224V40.36H547.4V49H546.344ZM552.108 49.24C551.457 49.24 550.91 49.1227 550.468 48.888C550.03 48.6533 549.702 48.3413 549.484 47.952C549.265 47.5627 549.156 47.1387 549.156 46.68C549.156 46.2107 549.249 45.8107 549.436 45.48C549.628 45.144 549.886 44.8693 550.212 44.656C550.542 44.4427 550.924 44.28 551.356 44.168C551.793 44.0613 552.276 43.968 552.804 43.888C553.337 43.8027 553.857 43.7307 554.364 43.672C554.876 43.608 555.324 43.5467 555.708 43.488L555.292 43.744C555.308 42.8907 555.142 42.2587 554.796 41.848C554.449 41.4373 553.846 41.232 552.988 41.232C552.396 41.232 551.894 41.3653 551.484 41.632C551.078 41.8987 550.793 42.32 550.628 42.896L549.484 42.56C549.681 41.7867 550.078 41.1867 550.676 40.76C551.273 40.3333 552.049 40.12 553.004 40.12C553.793 40.12 554.462 40.2693 555.012 40.568C555.566 40.8613 555.958 41.288 556.188 41.848C556.294 42.0987 556.364 42.3787 556.396 42.688C556.428 42.9973 556.444 43.312 556.444 43.632V49H555.396V46.832L555.7 46.96C555.406 47.7013 554.95 48.2667 554.332 48.656C553.713 49.0453 552.972 49.24 552.108 49.24ZM552.244 48.224C552.793 48.224 553.273 48.1253 553.684 47.928C554.094 47.7307 554.425 47.4613 554.676 47.12C554.926 46.7733 555.089 46.384 555.164 45.952C555.228 45.6747 555.262 45.3707 555.268 45.04C555.273 44.704 555.276 44.4533 555.276 44.288L555.724 44.52C555.324 44.5733 554.889 44.6267 554.42 44.68C553.956 44.7333 553.497 44.7947 553.044 44.864C552.596 44.9333 552.19 45.016 551.828 45.112C551.582 45.1813 551.345 45.28 551.116 45.408C550.886 45.5307 550.697 45.696 550.548 45.904C550.404 46.112 550.332 46.3707 550.332 46.68C550.332 46.9307 550.393 47.1733 550.516 47.408C550.644 47.6427 550.846 47.8373 551.124 47.992C551.406 48.1467 551.78 48.224 552.244 48.224ZM558.526 49V40.36H559.582V42.44L559.374 42.168C559.47 41.912 559.596 41.6773 559.75 41.464C559.905 41.2453 560.073 41.0667 560.254 40.928C560.478 40.7307 560.74 40.5813 561.038 40.48C561.337 40.3733 561.638 40.312 561.942 40.296C562.246 40.2747 562.524 40.296 562.774 40.36V41.464C562.46 41.384 562.116 41.3653 561.742 41.408C561.369 41.4507 561.025 41.6 560.71 41.856C560.422 42.08 560.206 42.3493 560.062 42.664C559.918 42.9733 559.822 43.304 559.774 43.656C559.726 44.0027 559.702 44.3467 559.702 44.688V49H558.526ZM566.436 49.24C565.785 49.24 565.238 49.1227 564.796 48.888C564.358 48.6533 564.03 48.3413 563.812 47.952C563.593 47.5627 563.484 47.1387 563.484 46.68C563.484 46.2107 563.577 45.8107 563.764 45.48C563.956 45.144 564.214 44.8693 564.54 44.656C564.87 44.4427 565.252 44.28 565.684 44.168C566.121 44.0613 566.604 43.968 567.132 43.888C567.665 43.8027 568.185 43.7307 568.692 43.672C569.204 43.608 569.652 43.5467 570.036 43.488L569.62 43.744C569.636 42.8907 569.47 42.2587 569.124 41.848C568.777 41.4373 568.174 41.232 567.316 41.232C566.724 41.232 566.222 41.3653 565.812 41.632C565.406 41.8987 565.121 42.32 564.956 42.896L563.812 42.56C564.009 41.7867 564.406 41.1867 565.004 40.76C565.601 40.3333 566.377 40.12 567.332 40.12C568.121 40.12 568.79 40.2693 569.34 40.568C569.894 40.8613 570.286 41.288 570.516 41.848C570.622 42.0987 570.692 42.3787 570.724 42.688C570.756 42.9973 570.772 43.312 570.772 43.632V49H569.724V46.832L570.028 46.96C569.734 47.7013 569.278 48.2667 568.66 48.656C568.041 49.0453 567.3 49.24 566.436 49.24ZM566.572 48.224C567.121 48.224 567.601 48.1253 568.012 47.928C568.422 47.7307 568.753 47.4613 569.004 47.12C569.254 46.7733 569.417 46.384 569.492 45.952C569.556 45.6747 569.59 45.3707 569.596 45.04C569.601 44.704 569.604 44.4533 569.604 44.288L570.052 44.52C569.652 44.5733 569.217 44.6267 568.748 44.68C568.284 44.7333 567.825 44.7947 567.372 44.864C566.924 44.9333 566.518 45.016 566.156 45.112C565.91 45.1813 565.673 45.28 565.444 45.408C565.214 45.5307 565.025 45.696 564.876 45.904C564.732 46.112 564.66 46.3707 564.66 46.68C564.66 46.9307 564.721 47.1733 564.844 47.408C564.972 47.6427 565.174 47.8373 565.452 47.992C565.734 48.1467 566.108 48.224 566.572 48.224ZM579.094 49V44.592C579.094 44.112 579.049 43.672 578.958 43.272C578.868 42.8667 578.721 42.5147 578.518 42.216C578.321 41.912 578.062 41.6773 577.742 41.512C577.428 41.3467 577.044 41.264 576.59 41.264C576.174 41.264 575.806 41.336 575.486 41.48C575.172 41.624 574.905 41.832 574.686 42.104C574.473 42.3707 574.31 42.696 574.198 43.08C574.086 43.464 574.03 43.9013 574.03 44.392L573.198 44.208C573.198 43.3227 573.353 42.5787 573.662 41.976C573.972 41.3733 574.398 40.9173 574.942 40.608C575.486 40.2987 576.11 40.144 576.814 40.144C577.332 40.144 577.782 40.224 578.166 40.384C578.556 40.544 578.884 40.76 579.15 41.032C579.422 41.304 579.641 41.616 579.806 41.968C579.972 42.3147 580.092 42.6853 580.166 43.08C580.241 43.4693 580.278 43.8587 580.278 44.248V49H579.094ZM572.846 49V40.36H573.91V42.488H574.03V49H572.846ZM587.058 49C586.573 49.1013 586.093 49.1413 585.618 49.12C585.149 49.0987 584.728 48.9973 584.354 48.816C583.986 48.6347 583.706 48.352 583.514 47.968C583.36 47.648 583.274 47.3253 583.258 47C583.248 46.6693 583.242 46.2933 583.242 45.872V37.96H584.41V45.824C584.41 46.1867 584.413 46.4907 584.418 46.736C584.429 46.976 584.485 47.1893 584.586 47.376C584.778 47.7333 585.082 47.9467 585.498 48.016C585.92 48.0853 586.44 48.0693 587.058 47.968V49ZM581.394 41.368V40.36H587.058V41.368H581.394ZM592.104 49.24C591.261 49.24 590.531 49.0533 589.912 48.68C589.299 48.3067 588.821 47.7813 588.48 47.104C588.139 46.4267 587.968 45.632 587.968 44.72C587.968 43.776 588.136 42.96 588.472 42.272C588.808 41.584 589.28 41.0533 589.888 40.68C590.501 40.3067 591.224 40.12 592.056 40.12C592.909 40.12 593.637 40.3173 594.24 40.712C594.843 41.1013 595.299 41.6613 595.608 42.392C595.917 43.1227 596.059 43.9947 596.032 45.008H594.832V44.592C594.811 43.472 594.568 42.6267 594.104 42.056C593.645 41.4853 592.973 41.2 592.088 41.2C591.16 41.2 590.448 41.5013 589.952 42.104C589.461 42.7067 589.216 43.5653 589.216 44.68C589.216 45.768 589.461 46.6133 589.952 47.216C590.448 47.8133 591.149 48.112 592.056 48.112C592.675 48.112 593.213 47.9707 593.672 47.688C594.136 47.4 594.501 46.9867 594.768 46.448L595.864 46.872C595.523 47.624 595.019 48.208 594.352 48.624C593.691 49.0347 592.941 49.24 592.104 49.24ZM588.8 45.008V44.024H595.4V45.008H588.8ZM601.464 49.24C600.621 49.24 599.89 49.0533 599.272 48.68C598.658 48.3067 598.181 47.7813 597.84 47.104C597.498 46.4267 597.328 45.632 597.328 44.72C597.328 43.776 597.496 42.96 597.832 42.272C598.168 41.584 598.64 41.0533 599.248 40.68C599.861 40.3067 600.584 40.12 601.416 40.12C602.269 40.12 602.997 40.3173 603.6 40.712C604.202 41.1013 604.658 41.6613 604.968 42.392C605.277 43.1227 605.418 43.9947 605.392 45.008H604.192V44.592C604.17 43.472 603.928 42.6267 603.464 42.056C603.005 41.4853 602.333 41.2 601.448 41.2C600.52 41.2 599.808 41.5013 599.312 42.104C598.821 42.7067 598.576 43.5653 598.576 44.68C598.576 45.768 598.821 46.6133 599.312 47.216C599.808 47.8133 600.509 48.112 601.416 48.112C602.034 48.112 602.573 47.9707 603.032 47.688C603.496 47.4 603.861 46.9867 604.128 46.448L605.224 46.872C604.882 47.624 604.378 48.208 603.712 48.624C603.05 49.0347 602.301 49.24 601.464 49.24ZM598.16 45.008V44.024H604.76V45.008H598.16Z" fill="#667085"/>
<path d="M706 21.2625H756" stroke="#475467" stroke-width="3" stroke-miterlimit="10" stroke-linecap="round" stroke-linejoin="round"/>
<path d="M716 41.2625H721" stroke="#475467" stroke-width="3" stroke-miterlimit="10" stroke-linecap="round" stroke-linejoin="round"/>
<path d="M727.25 41.2625H737.25" stroke="#475467" stroke-width="3" stroke-miterlimit="10" stroke-linecap="round" stroke-linejoin="round"/>
<path d="M717.1 8.76245H744.875C753.775 8.76245 756 10.9625 756 19.7375V40.2625C756 49.0375 753.775 51.2375 744.9 51.2375H717.1C708.225 51.2625 706 49.0625 706 40.2875V19.7375C706 10.9625 708.225 8.76245 717.1 8.76245Z" stroke="#475467" stroke-width="3" stroke-linecap="round" stroke-linejoin="round"/>
<path d="M778.384 23.24C777.541 23.24 776.781 23.0933 776.104 22.8C775.432 22.5067 774.877 22.088 774.44 21.544C774.008 20.9947 773.733 20.344 773.616 19.592L775.616 19.288C775.787 19.9707 776.136 20.4987 776.664 20.872C777.197 21.2453 777.811 21.432 778.504 21.432C778.915 21.432 779.301 21.368 779.664 21.24C780.027 21.112 780.32 20.9253 780.544 20.68C780.773 20.4347 780.888 20.1333 780.888 19.776C780.888 19.616 780.861 19.4693 780.808 19.336C780.755 19.1973 780.675 19.0747 780.568 18.968C780.467 18.8613 780.333 18.7653 780.168 18.68C780.008 18.5893 779.821 18.512 779.608 18.448L776.632 17.568C776.376 17.4933 776.099 17.3947 775.8 17.272C775.507 17.144 775.227 16.9707 774.96 16.752C774.699 16.528 774.483 16.2453 774.312 15.904C774.147 15.5573 774.064 15.1307 774.064 14.624C774.064 13.8827 774.251 13.2613 774.624 12.76C775.003 12.2533 775.509 11.8747 776.144 11.624C776.784 11.3733 777.493 11.2507 778.272 11.256C779.061 11.2613 779.765 11.3973 780.384 11.664C781.003 11.9253 781.52 12.3067 781.936 12.808C782.352 13.3093 782.645 13.9147 782.816 14.624L780.744 14.984C780.659 14.5787 780.493 14.2347 780.248 13.952C780.008 13.664 779.712 13.4453 779.36 13.296C779.013 13.1467 778.643 13.0667 778.248 13.056C777.864 13.0507 777.507 13.1093 777.176 13.232C776.851 13.3493 776.587 13.52 776.384 13.744C776.187 13.968 776.088 14.2293 776.088 14.528C776.088 14.8107 776.173 15.0427 776.344 15.224C776.515 15.4 776.725 15.5413 776.976 15.648C777.232 15.7493 777.491 15.8347 777.752 15.904L779.816 16.48C780.099 16.5547 780.416 16.656 780.768 16.784C781.12 16.912 781.459 17.0907 781.784 17.32C782.109 17.5493 782.376 17.8507 782.584 18.224C782.797 18.5973 782.904 19.072 782.904 19.648C782.904 20.2453 782.779 20.7707 782.528 21.224C782.283 21.672 781.949 22.0453 781.528 22.344C781.107 22.6427 780.624 22.8667 780.08 23.016C779.541 23.1653 778.976 23.24 778.384 23.24ZM784.636 23V11.48H792.076V13.288H786.564V16.128H791.116V17.936H786.564V21.192H792.076V23H784.636ZM798.461 23.24C797.309 23.24 796.322 22.9893 795.501 22.488C794.679 21.9813 794.047 21.2773 793.605 20.376C793.167 19.4747 792.949 18.4293 792.949 17.24C792.949 16.0507 793.167 15.0053 793.605 14.104C794.047 13.2027 794.679 12.5013 795.501 12C796.322 11.4933 797.309 11.24 798.461 11.24C799.789 11.24 800.895 11.5733 801.781 12.24C802.666 12.9013 803.287 13.7947 803.645 14.92L801.701 15.456C801.477 14.704 801.095 14.1173 800.557 13.696C800.018 13.2693 799.319 13.056 798.461 13.056C797.687 13.056 797.042 13.2293 796.525 13.576C796.013 13.9227 795.626 14.4107 795.365 15.04C795.109 15.664 794.978 16.3973 794.973 17.24C794.973 18.0827 795.101 18.8187 795.357 19.448C795.618 20.072 796.007 20.5573 796.525 20.904C797.042 21.2507 797.687 21.424 798.461 21.424C799.319 21.424 800.018 21.2107 800.557 20.784C801.095 20.3573 801.477 19.7707 801.701 19.024L803.645 19.56C803.287 20.6853 802.666 21.5813 801.781 22.248C800.895 22.9093 799.789 23.24 798.461 23.24ZM810.041 23.24C809.124 23.24 808.316 23.0533 807.617 22.68C806.924 22.3067 806.38 21.7813 805.985 21.104C805.596 20.4267 805.401 19.632 805.401 18.72V11.496L807.353 11.48V18.672C807.353 19.104 807.425 19.4907 807.569 19.832C807.719 20.1733 807.919 20.464 808.169 20.704C808.42 20.9387 808.708 21.1173 809.033 21.24C809.359 21.3627 809.695 21.424 810.041 21.424C810.399 21.424 810.737 21.3627 811.057 21.24C811.383 21.112 811.671 20.9307 811.921 20.696C812.172 20.456 812.369 20.1653 812.513 19.824C812.657 19.4827 812.729 19.0987 812.729 18.672V11.48H814.681V18.72C814.681 19.632 814.484 20.4267 814.089 21.104C813.7 21.7813 813.156 22.3067 812.457 22.68C811.764 23.0533 810.959 23.24 810.041 23.24ZM816.917 23V11.48H821.677C821.789 11.48 821.933 11.4853 822.109 11.496C822.285 11.5013 822.448 11.5173 822.597 11.544C823.264 11.6453 823.813 11.8667 824.245 12.208C824.682 12.5493 825.005 12.9813 825.213 13.504C825.426 14.0213 825.533 14.5973 825.533 15.232C825.533 16.1707 825.296 16.9787 824.821 17.656C824.346 18.328 823.618 18.744 822.637 18.904L821.813 18.976H818.845V23H816.917ZM823.533 23L821.261 18.312L823.221 17.88L825.717 23H823.533ZM818.845 17.176H821.597C821.704 17.176 821.824 17.1707 821.957 17.16C822.09 17.1493 822.213 17.128 822.325 17.096C822.645 17.016 822.896 16.8747 823.077 16.672C823.264 16.4693 823.394 16.24 823.469 15.984C823.549 15.728 823.589 15.4773 823.589 15.232C823.589 14.9867 823.549 14.736 823.469 14.48C823.394 14.2187 823.264 13.9867 823.077 13.784C822.896 13.5813 822.645 13.44 822.325 13.36C822.213 13.328 822.09 13.3093 821.957 13.304C821.824 13.2933 821.704 13.288 821.597 13.288H818.845V17.176ZM827.479 23V11.48H834.919V13.288H829.407V16.128H833.959V17.936H829.407V21.192H834.919V23H827.479ZM840.042 23V11.48H844.802C844.914 11.48 845.058 11.4853 845.234 11.496C845.41 11.5013 845.573 11.5173 845.722 11.544C846.389 11.6453 846.938 11.8667 847.37 12.208C847.807 12.5493 848.13 12.9813 848.338 13.504C848.551 14.0213 848.658 14.5973 848.658 15.232C848.658 15.8613 848.551 16.4373 848.338 16.96C848.125 17.4773 847.799 17.9067 847.362 18.248C846.93 18.5893 846.383 18.8107 845.722 18.912C845.573 18.9333 845.407 18.9493 845.226 18.96C845.05 18.9707 844.909 18.976 844.802 18.976H841.97V23H840.042ZM841.97 17.176H844.722C844.829 17.176 844.949 17.1707 845.082 17.16C845.215 17.1493 845.338 17.128 845.45 17.096C845.77 17.016 846.021 16.8747 846.202 16.672C846.389 16.4693 846.519 16.24 846.594 15.984C846.674 15.728 846.714 15.4773 846.714 15.232C846.714 14.9867 846.674 14.736 846.594 14.48C846.519 14.2187 846.389 13.9867 846.202 13.784C846.021 13.5813 845.77 13.44 845.45 13.36C845.338 13.328 845.215 13.3093 845.082 13.304C844.949 13.2933 844.829 13.288 844.722 13.288H841.97V17.176ZM848.664 23L852.296 11.48H855.12L858.752 23H856.768L853.472 12.664H853.904L850.648 23H848.664ZM850.688 20.504V18.704H856.736V20.504H850.688ZM862.045 23V18.28L858.125 11.48H860.373L863.021 16.072L865.661 11.48H867.909L863.997 18.28V23H862.045ZM869.026 23V11.48H870.762L874.746 19.64L878.73 11.48H880.466V23H878.666V15.616L875.13 23H874.362L870.834 15.616V23H869.026ZM882.714 23V11.48H890.154V13.288H884.642V16.128H889.194V17.936H884.642V21.192H890.154V23H882.714ZM892.073 23V11.48H894.025L899.369 19.6V11.48H901.321V23H899.369L894.025 14.88V23H892.073ZM906.326 23V13.288H902.598V11.48H911.982V13.288H908.254V23H906.326Z" fill="#475467"/>
<path d="M776.864 49V44.176L773 37.48H774.36L777.456 42.832L780.536 37.48H781.896L778.048 44.176V49H776.864ZM785.337 49.24C784.479 49.24 783.745 49.0453 783.137 48.656C782.529 48.2667 782.063 47.728 781.737 47.04C781.412 46.352 781.249 45.5627 781.249 44.672C781.249 43.7653 781.415 42.9707 781.745 42.288C782.076 41.6053 782.545 41.0747 783.153 40.696C783.767 40.312 784.495 40.12 785.337 40.12C786.201 40.12 786.937 40.3147 787.545 40.704C788.159 41.088 788.625 41.624 788.945 42.312C789.271 42.9947 789.433 43.7813 789.433 44.672C789.433 45.5787 789.271 46.376 788.945 47.064C788.62 47.7467 788.151 48.28 787.537 48.664C786.924 49.048 786.191 49.24 785.337 49.24ZM785.337 48.112C786.297 48.112 787.012 47.7947 787.481 47.16C787.951 46.52 788.185 45.6907 788.185 44.672C788.185 43.6267 787.948 42.7947 787.473 42.176C787.004 41.5573 786.292 41.248 785.337 41.248C784.692 41.248 784.159 41.3947 783.737 41.688C783.321 41.976 783.009 42.3787 782.801 42.896C782.599 43.408 782.497 44 782.497 44.672C782.497 45.712 782.737 46.5467 783.217 47.176C783.697 47.8 784.404 48.112 785.337 48.112ZM794.502 49.216C793.985 49.216 793.531 49.136 793.142 48.976C792.758 48.816 792.43 48.6 792.158 48.328C791.891 48.056 791.675 47.7467 791.51 47.4C791.345 47.048 791.225 46.6773 791.15 46.288C791.075 45.8933 791.038 45.5013 791.038 45.112V40.36H792.222V44.768C792.222 45.2427 792.267 45.6827 792.358 46.088C792.449 46.4933 792.593 46.848 792.79 47.152C792.993 47.4507 793.251 47.6827 793.566 47.848C793.886 48.0133 794.273 48.096 794.726 48.096C795.142 48.096 795.507 48.024 795.822 47.88C796.142 47.736 796.409 47.5307 796.622 47.264C796.841 46.992 797.006 46.664 797.118 46.28C797.23 45.8907 797.286 45.4533 797.286 44.968L798.118 45.152C798.118 46.0373 797.963 46.7813 797.654 47.384C797.345 47.9867 796.918 48.4427 796.374 48.752C795.83 49.0613 795.206 49.216 794.502 49.216ZM797.406 49V46.872H797.286V40.36H798.462V49H797.406ZM800.698 49V40.36H801.754V42.44L801.546 42.168C801.642 41.912 801.767 41.6773 801.922 41.464C802.077 41.2453 802.245 41.0667 802.426 40.928C802.65 40.7307 802.911 40.5813 803.21 40.48C803.509 40.3733 803.81 40.312 804.114 40.296C804.418 40.2747 804.695 40.296 804.946 40.36V41.464C804.631 41.384 804.287 41.3653 803.914 41.408C803.541 41.4507 803.197 41.6 802.882 41.856C802.594 42.08 802.378 42.3493 802.234 42.664C802.09 42.9733 801.994 43.304 801.946 43.656C801.898 44.0027 801.874 44.3467 801.874 44.688V49H800.698ZM819.971 49L819.979 43.328C819.979 42.6613 819.792 42.1387 819.419 41.76C819.051 41.376 818.582 41.184 818.011 41.184C817.686 41.184 817.368 41.2587 817.059 41.408C816.75 41.5573 816.494 41.7973 816.291 42.128C816.094 42.4587 815.995 42.8907 815.995 43.424L815.299 43.224C815.283 42.6053 815.403 42.064 815.659 41.6C815.92 41.136 816.278 40.776 816.731 40.52C817.19 40.2587 817.707 40.128 818.283 40.128C819.152 40.128 819.848 40.3973 820.371 40.936C820.894 41.4693 821.155 42.192 821.155 43.104L821.147 49H819.971ZM809.659 49V40.36H810.715V42.488H810.843V49H809.659ZM814.827 49L814.835 43.408C814.835 42.72 814.651 42.1787 814.283 41.784C813.92 41.384 813.44 41.184 812.843 41.184C812.246 41.184 811.763 41.3893 811.395 41.8C811.027 42.2053 810.843 42.7467 810.843 43.424L810.139 43.04C810.139 42.4853 810.27 41.9893 810.531 41.552C810.792 41.1093 811.15 40.7627 811.603 40.512C812.056 40.256 812.571 40.128 813.147 40.128C813.696 40.128 814.184 40.2453 814.611 40.48C815.043 40.7147 815.382 41.056 815.627 41.504C815.872 41.952 815.995 42.496 815.995 43.136L815.987 49H814.827ZM826.791 49.24C825.932 49.24 825.199 49.0453 824.591 48.656C823.983 48.2667 823.516 47.728 823.191 47.04C822.865 46.352 822.703 45.5627 822.703 44.672C822.703 43.7653 822.868 42.9707 823.199 42.288C823.529 41.6053 823.999 41.0747 824.607 40.696C825.22 40.312 825.948 40.12 826.791 40.12C827.655 40.12 828.391 40.3147 828.999 40.704C829.612 41.088 830.079 41.624 830.399 42.312C830.724 42.9947 830.887 43.7813 830.887 44.672C830.887 45.5787 830.724 46.376 830.399 47.064C830.073 47.7467 829.604 48.28 828.991 48.664C828.377 49.048 827.644 49.24 826.791 49.24ZM826.791 48.112C827.751 48.112 828.465 47.7947 828.935 47.16C829.404 46.52 829.639 45.6907 829.639 44.672C829.639 43.6267 829.401 42.7947 828.927 42.176C828.457 41.5573 827.745 41.248 826.791 41.248C826.145 41.248 825.612 41.3947 825.191 41.688C824.775 41.976 824.463 42.3787 824.255 42.896C824.052 43.408 823.951 44 823.951 44.672C823.951 45.712 824.191 46.5467 824.671 47.176C825.151 47.8 825.857 48.112 826.791 48.112ZM838.891 49V44.592C838.891 44.112 838.846 43.672 838.755 43.272C838.665 42.8667 838.518 42.5147 838.315 42.216C838.118 41.912 837.859 41.6773 837.539 41.512C837.225 41.3467 836.841 41.264 836.387 41.264C835.971 41.264 835.603 41.336 835.283 41.48C834.969 41.624 834.702 41.832 834.483 42.104C834.27 42.3707 834.107 42.696 833.995 43.08C833.883 43.464 833.827 43.9013 833.827 44.392L832.995 44.208C832.995 43.3227 833.15 42.5787 833.459 41.976C833.769 41.3733 834.195 40.9173 834.739 40.608C835.283 40.2987 835.907 40.144 836.611 40.144C837.129 40.144 837.579 40.224 837.963 40.384C838.353 40.544 838.681 40.76 838.947 41.032C839.219 41.304 839.438 41.616 839.603 41.968C839.769 42.3147 839.889 42.6853 839.963 43.08C840.038 43.4693 840.075 43.8587 840.075 44.248V49H838.891ZM832.643 49V40.36H833.707V42.488H833.827V49H832.643ZM845.76 49.24C844.918 49.24 844.187 49.0533 843.568 48.68C842.955 48.3067 842.478 47.7813 842.136 47.104C841.795 46.4267 841.624 45.632 841.624 44.72C841.624 43.776 841.792 42.96 842.128 42.272C842.464 41.584 842.936 41.0533 843.544 40.68C844.158 40.3067 844.88 40.12 845.712 40.12C846.566 40.12 847.294 40.3173 847.896 40.712C848.499 41.1013 848.955 41.6613 849.264 42.392C849.574 43.1227 849.715 43.9947 849.688 45.008H848.488V44.592C848.467 43.472 848.224 42.6267 847.76 42.056C847.302 41.4853 846.63 41.2 845.744 41.2C844.816 41.2 844.104 41.5013 843.608 42.104C843.118 42.7067 842.872 43.5653 842.872 44.68C842.872 45.768 843.118 46.6133 843.608 47.216C844.104 47.8133 844.806 48.112 845.712 48.112C846.331 48.112 846.87 47.9707 847.328 47.688C847.792 47.4 848.158 46.9867 848.424 46.448L849.52 46.872C849.179 47.624 848.675 48.208 848.008 48.624C847.347 49.0347 846.598 49.24 845.76 49.24ZM842.456 45.008V44.024H849.056V45.008H842.456ZM852.539 52.84L854.212 48.304L854.236 49.648L850.451 40.36H851.7L854.804 48.128H854.292L857.156 40.36H858.356L853.716 52.84H852.539ZM863.108 38.72V37.4H864.284V38.72H863.108ZM863.108 49V40.36H864.284V49H863.108ZM869.907 49.232C868.893 49.232 868.059 49.0133 867.403 48.576C866.752 48.1387 866.352 47.5307 866.203 46.752L867.403 46.552C867.531 47.0427 867.821 47.4347 868.275 47.728C868.733 48.016 869.299 48.16 869.97 48.16C870.627 48.16 871.144 48.024 871.523 47.752C871.901 47.4747 872.091 47.0987 872.091 46.624C872.091 46.3573 872.029 46.1413 871.907 45.976C871.789 45.8053 871.547 45.648 871.179 45.504C870.811 45.36 870.261 45.1893 869.531 44.992C868.747 44.7787 868.133 44.5653 867.691 44.352C867.248 44.1387 866.933 43.8933 866.747 43.616C866.56 43.3333 866.467 42.9893 866.467 42.584C866.467 42.0933 866.605 41.664 866.883 41.296C867.16 40.9227 867.544 40.6347 868.035 40.432C868.525 40.224 869.096 40.12 869.747 40.12C870.397 40.12 870.979 40.2267 871.491 40.44C872.008 40.648 872.424 40.9413 872.739 41.32C873.053 41.6987 873.24 42.1387 873.299 42.64L872.099 42.856C872.019 42.3493 871.765 41.9493 871.339 41.656C870.917 41.3573 870.381 41.2027 869.731 41.192C869.117 41.176 868.619 41.2933 868.235 41.544C867.851 41.7893 867.659 42.1173 867.659 42.528C867.659 42.7573 867.728 42.9547 867.867 43.12C868.005 43.28 868.256 43.432 868.619 43.576C868.987 43.72 869.509 43.8773 870.187 44.048C870.981 44.2507 871.605 44.464 872.059 44.688C872.512 44.912 872.835 45.176 873.027 45.48C873.219 45.784 873.315 46.16 873.315 46.608C873.315 47.424 873.011 48.0667 872.403 48.536C871.8 49 870.968 49.232 869.907 49.232ZM881.516 49.232C880.503 49.232 879.668 49.0133 879.012 48.576C878.361 48.1387 877.961 47.5307 877.812 46.752L879.012 46.552C879.14 47.0427 879.431 47.4347 879.884 47.728C880.343 48.016 880.908 48.16 881.58 48.16C882.236 48.16 882.753 48.024 883.132 47.752C883.511 47.4747 883.7 47.0987 883.7 46.624C883.7 46.3573 883.639 46.1413 883.516 45.976C883.399 45.8053 883.156 45.648 882.788 45.504C882.42 45.36 881.871 45.1893 881.14 44.992C880.356 44.7787 879.743 44.5653 879.3 44.352C878.857 44.1387 878.543 43.8933 878.356 43.616C878.169 43.3333 878.076 42.9893 878.076 42.584C878.076 42.0933 878.215 41.664 878.492 41.296C878.769 40.9227 879.153 40.6347 879.644 40.432C880.135 40.224 880.705 40.12 881.356 40.12C882.007 40.12 882.588 40.2267 883.1 40.44C883.617 40.648 884.033 40.9413 884.348 41.32C884.663 41.6987 884.849 42.1387 884.908 42.64L883.708 42.856C883.628 42.3493 883.375 41.9493 882.948 41.656C882.527 41.3573 881.991 41.2027 881.34 41.192C880.727 41.176 880.228 41.2933 879.844 41.544C879.46 41.7893 879.268 42.1173 879.268 42.528C879.268 42.7573 879.337 42.9547 879.476 43.12C879.615 43.28 879.865 43.432 880.228 43.576C880.596 43.72 881.119 43.8773 881.796 44.048C882.591 44.2507 883.215 44.464 883.668 44.688C884.121 44.912 884.444 45.176 884.636 45.48C884.828 45.784 884.924 46.16 884.924 46.608C884.924 47.424 884.62 48.0667 884.012 48.536C883.409 49 882.577 49.232 881.516 49.232ZM889.17 49.24C888.519 49.24 887.973 49.1227 887.53 48.888C887.093 48.6533 886.765 48.3413 886.546 47.952C886.327 47.5627 886.218 47.1387 886.218 46.68C886.218 46.2107 886.311 45.8107 886.498 45.48C886.69 45.144 886.949 44.8693 887.274 44.656C887.605 44.4427 887.986 44.28 888.418 44.168C888.855 44.0613 889.338 43.968 889.866 43.888C890.399 43.8027 890.919 43.7307 891.426 43.672C891.938 43.608 892.386 43.5467 892.77 43.488L892.354 43.744C892.37 42.8907 892.205 42.2587 891.858 41.848C891.511 41.4373 890.909 41.232 890.05 41.232C889.458 41.232 888.957 41.3653 888.546 41.632C888.141 41.8987 887.855 42.32 887.69 42.896L886.546 42.56C886.743 41.7867 887.141 41.1867 887.738 40.76C888.335 40.3333 889.111 40.12 890.066 40.12C890.855 40.12 891.525 40.2693 892.074 40.568C892.629 40.8613 893.021 41.288 893.25 41.848C893.357 42.0987 893.426 42.3787 893.458 42.688C893.49 42.9973 893.506 43.312 893.506 43.632V49H892.458V46.832L892.762 46.96C892.469 47.7013 892.013 48.2667 891.394 48.656C890.775 49.0453 890.034 49.24 889.17 49.24ZM889.306 48.224C889.855 48.224 890.335 48.1253 890.746 47.928C891.157 47.7307 891.487 47.4613 891.738 47.12C891.989 46.7733 892.151 46.384 892.226 45.952C892.29 45.6747 892.325 45.3707 892.33 45.04C892.335 44.704 892.338 44.4533 892.338 44.288L892.786 44.52C892.386 44.5733 891.951 44.6267 891.482 44.68C891.018 44.7333 890.559 44.7947 890.106 44.864C889.658 44.9333 889.253 45.016 888.89 45.112C888.645 45.1813 888.407 45.28 888.178 45.408C887.949 45.5307 887.759 45.696 887.61 45.904C887.466 46.112 887.394 46.3707 887.394 46.68C887.394 46.9307 887.455 47.1733 887.578 47.408C887.706 47.6427 887.909 47.8373 888.186 47.992C888.469 48.1467 888.842 48.224 889.306 48.224ZM896.445 49V39.72C896.445 39.496 896.455 39.2747 896.477 39.056C896.503 38.8373 896.554 38.6293 896.629 38.432C896.703 38.2293 896.821 38.0427 896.981 37.872C897.157 37.68 897.349 37.5413 897.557 37.456C897.765 37.3653 897.981 37.3067 898.205 37.28C898.434 37.2533 898.658 37.24 898.877 37.24H899.981V38.232H898.957C898.509 38.232 898.173 38.3413 897.949 38.56C897.73 38.7787 897.621 39.1227 897.621 39.592V49H896.445ZM894.949 41.368V40.36H899.981V41.368H894.949ZM904.604 49.24C903.761 49.24 903.031 49.0533 902.412 48.68C901.799 48.3067 901.321 47.7813 900.98 47.104C900.639 46.4267 900.468 45.632 900.468 44.72C900.468 43.776 900.636 42.96 900.972 42.272C901.308 41.584 901.78 41.0533 902.388 40.68C903.001 40.3067 903.724 40.12 904.556 40.12C905.409 40.12 906.137 40.3173 906.74 40.712C907.343 41.1013 907.799 41.6613 908.108 42.392C908.417 43.1227 908.559 43.9947 908.532 45.008H907.332V44.592C907.311 43.472 907.068 42.6267 906.604 42.056C906.145 41.4853 905.473 41.2 904.588 41.2C903.66 41.2 902.948 41.5013 902.452 42.104C901.961 42.7067 901.716 43.5653 901.716 44.68C901.716 45.768 901.961 46.6133 902.452 47.216C902.948 47.8133 903.649 48.112 904.556 48.112C905.175 48.112 905.713 47.9707 906.172 47.688C906.636 47.4 907.001 46.9867 907.268 46.448L908.364 46.872C908.023 47.624 907.519 48.208 906.852 48.624C906.191 49.0347 905.441 49.24 904.604 49.24ZM901.3 45.008V44.024H907.9V45.008H901.3Z" fill="#667085"/>
<path d="M1059.85 31.8758H1052.35C1051.36 31.8758 1050.4 32.2709 1049.7 32.9741C1049 33.6774 1048.6 34.6312 1048.6 35.6258V45.0008C1048.6 45.9953 1049 46.9492 1049.7 47.6524C1050.4 48.3557 1051.36 48.7508 1052.35 48.7508H1056.1C1057.1 48.7508 1058.05 48.3557 1058.75 47.6524C1059.46 46.9492 1059.85 45.9953 1059.85 45.0008V31.8758ZM1059.85 31.8758C1059.85 28.9052 1059.26 25.964 1058.12 23.2219C1056.98 20.4798 1055.3 17.991 1053.2 15.8992C1051.09 13.8074 1048.58 12.154 1045.83 11.0344C1043.08 9.91473 1040.13 9.35103 1037.16 9.37578C1034.2 9.35414 1031.25 9.92014 1028.5 11.0412C1025.75 12.1622 1023.25 13.8161 1021.15 15.9076C1019.04 17.9991 1017.37 20.4868 1016.23 23.2273C1015.09 25.9679 1014.5 28.9072 1014.5 31.8758V45.0008C1014.5 45.9953 1014.9 46.9492 1015.6 47.6524C1016.3 48.3557 1017.26 48.7508 1018.25 48.7508H1022C1022.99 48.7508 1023.95 48.3557 1024.65 47.6524C1025.35 46.9492 1025.75 45.9953 1025.75 45.0008V35.6258C1025.75 34.6312 1025.35 33.6774 1024.65 32.9741C1023.95 32.2709 1022.99 31.8758 1022 31.8758H1014.5" stroke="#475467" stroke-width="3" stroke-linecap="round" stroke-linejoin="round"/>
<path d="M1084.38 23.24C1083.54 23.24 1082.78 23.0933 1082.1 22.8C1081.43 22.5067 1080.88 22.088 1080.44 21.544C1080.01 20.9947 1079.73 20.344 1079.62 19.592L1081.62 19.288C1081.79 19.9707 1082.14 20.4987 1082.66 20.872C1083.2 21.2453 1083.81 21.432 1084.5 21.432C1084.91 21.432 1085.3 21.368 1085.66 21.24C1086.03 21.112 1086.32 20.9253 1086.54 20.68C1086.77 20.4347 1086.89 20.1333 1086.89 19.776C1086.89 19.616 1086.86 19.4693 1086.81 19.336C1086.75 19.1973 1086.67 19.0747 1086.57 18.968C1086.47 18.8613 1086.33 18.7653 1086.17 18.68C1086.01 18.5893 1085.82 18.512 1085.61 18.448L1082.63 17.568C1082.38 17.4933 1082.1 17.3947 1081.8 17.272C1081.51 17.144 1081.23 16.9707 1080.96 16.752C1080.7 16.528 1080.48 16.2453 1080.31 15.904C1080.15 15.5573 1080.06 15.1307 1080.06 14.624C1080.06 13.8827 1080.25 13.2613 1080.62 12.76C1081 12.2533 1081.51 11.8747 1082.14 11.624C1082.78 11.3733 1083.49 11.2507 1084.27 11.256C1085.06 11.2613 1085.77 11.3973 1086.38 11.664C1087 11.9253 1087.52 12.3067 1087.94 12.808C1088.35 13.3093 1088.65 13.9147 1088.82 14.624L1086.74 14.984C1086.66 14.5787 1086.49 14.2347 1086.25 13.952C1086.01 13.664 1085.71 13.4453 1085.36 13.296C1085.01 13.1467 1084.64 13.0667 1084.25 13.056C1083.86 13.0507 1083.51 13.1093 1083.18 13.232C1082.85 13.3493 1082.59 13.52 1082.38 13.744C1082.19 13.968 1082.09 14.2293 1082.09 14.528C1082.09 14.8107 1082.17 15.0427 1082.34 15.224C1082.51 15.4 1082.73 15.5413 1082.98 15.648C1083.23 15.7493 1083.49 15.8347 1083.75 15.904L1085.82 16.48C1086.1 16.5547 1086.42 16.656 1086.77 16.784C1087.12 16.912 1087.46 17.0907 1087.78 17.32C1088.11 17.5493 1088.38 17.8507 1088.58 18.224C1088.8 18.5973 1088.9 19.072 1088.9 19.648C1088.9 20.2453 1088.78 20.7707 1088.53 21.224C1088.28 21.672 1087.95 22.0453 1087.53 22.344C1087.11 22.6427 1086.62 22.8667 1086.08 23.016C1085.54 23.1653 1084.98 23.24 1084.38 23.24ZM1095.28 23.24C1094.36 23.24 1093.55 23.0533 1092.85 22.68C1092.16 22.3067 1091.61 21.7813 1091.22 21.104C1090.83 20.4267 1090.64 19.632 1090.64 18.72V11.496L1092.59 11.48V18.672C1092.59 19.104 1092.66 19.4907 1092.8 19.832C1092.95 20.1733 1093.15 20.464 1093.4 20.704C1093.65 20.9387 1093.94 21.1173 1094.27 21.24C1094.59 21.3627 1094.93 21.424 1095.28 21.424C1095.63 21.424 1095.97 21.3627 1096.29 21.24C1096.62 21.112 1096.9 20.9307 1097.16 20.696C1097.41 20.456 1097.6 20.1653 1097.75 19.824C1097.89 19.4827 1097.96 19.0987 1097.96 18.672V11.48H1099.92V18.72C1099.92 19.632 1099.72 20.4267 1099.32 21.104C1098.93 21.7813 1098.39 22.3067 1097.69 22.68C1097 23.0533 1096.19 23.24 1095.28 23.24ZM1102.15 23V11.48H1106.91C1107.02 11.48 1107.17 11.4853 1107.34 11.496C1107.52 11.5013 1107.68 11.5173 1107.83 11.544C1108.5 11.6453 1109.05 11.8667 1109.48 12.208C1109.92 12.5493 1110.24 12.9813 1110.45 13.504C1110.66 14.0213 1110.77 14.5973 1110.77 15.232C1110.77 15.8613 1110.66 16.4373 1110.45 16.96C1110.23 17.4773 1109.91 17.9067 1109.47 18.248C1109.04 18.5893 1108.49 18.8107 1107.83 18.912C1107.68 18.9333 1107.52 18.9493 1107.34 18.96C1107.16 18.9707 1107.02 18.976 1106.91 18.976H1104.08V23H1102.15ZM1104.08 17.176H1106.83C1106.94 17.176 1107.06 17.1707 1107.19 17.16C1107.32 17.1493 1107.45 17.128 1107.56 17.096C1107.88 17.016 1108.13 16.8747 1108.31 16.672C1108.5 16.4693 1108.63 16.24 1108.7 15.984C1108.78 15.728 1108.82 15.4773 1108.82 15.232C1108.82 14.9867 1108.78 14.736 1108.7 14.48C1108.63 14.2187 1108.5 13.9867 1108.31 13.784C1108.13 13.5813 1107.88 13.44 1107.56 13.36C1107.45 13.328 1107.32 13.3093 1107.19 13.304C1107.06 13.2933 1106.94 13.288 1106.83 13.288H1104.08V17.176ZM1112.37 23V11.48H1117.13C1117.24 11.48 1117.39 11.4853 1117.56 11.496C1117.74 11.5013 1117.9 11.5173 1118.05 11.544C1118.72 11.6453 1119.27 11.8667 1119.7 12.208C1120.14 12.5493 1120.46 12.9813 1120.67 13.504C1120.88 14.0213 1120.99 14.5973 1120.99 15.232C1120.99 15.8613 1120.88 16.4373 1120.67 16.96C1120.45 17.4773 1120.13 17.9067 1119.69 18.248C1119.26 18.5893 1118.71 18.8107 1118.05 18.912C1117.9 18.9333 1117.74 18.9493 1117.55 18.96C1117.38 18.9707 1117.24 18.976 1117.13 18.976H1114.3V23H1112.37ZM1114.3 17.176H1117.05C1117.16 17.176 1117.28 17.1707 1117.41 17.16C1117.54 17.1493 1117.67 17.128 1117.78 17.096C1118.1 17.016 1118.35 16.8747 1118.53 16.672C1118.72 16.4693 1118.85 16.24 1118.92 15.984C1119 15.728 1119.04 15.4773 1119.04 15.232C1119.04 14.9867 1119 14.736 1118.92 14.48C1118.85 14.2187 1118.72 13.9867 1118.53 13.784C1118.35 13.5813 1118.1 13.44 1117.78 13.36C1117.67 13.328 1117.54 13.3093 1117.41 13.304C1117.28 13.2933 1117.16 13.288 1117.05 13.288H1114.3V17.176ZM1127.46 23.24C1126.31 23.24 1125.32 22.9893 1124.5 22.488C1123.68 21.9813 1123.05 21.2773 1122.6 20.376C1122.17 19.4747 1121.95 18.4293 1121.95 17.24C1121.95 16.0507 1122.17 15.0053 1122.6 14.104C1123.05 13.2027 1123.68 12.5013 1124.5 12C1125.32 11.4933 1126.31 11.24 1127.46 11.24C1128.61 11.24 1129.6 11.4933 1130.42 12C1131.25 12.5013 1131.88 13.2027 1132.32 14.104C1132.76 15.0053 1132.98 16.0507 1132.98 17.24C1132.98 18.4293 1132.76 19.4747 1132.32 20.376C1131.88 21.2773 1131.25 21.9813 1130.42 22.488C1129.6 22.9893 1128.61 23.24 1127.46 23.24ZM1127.46 21.424C1128.23 21.4293 1128.88 21.2587 1129.39 20.912C1129.91 20.5653 1130.29 20.0773 1130.55 19.448C1130.81 18.8187 1130.94 18.0827 1130.94 17.24C1130.94 16.3973 1130.81 15.6667 1130.55 15.048C1130.29 14.424 1129.91 13.9387 1129.39 13.592C1128.88 13.2453 1128.23 13.0667 1127.46 13.056C1126.69 13.0507 1126.04 13.2213 1125.53 13.568C1125.02 13.9147 1124.63 14.4027 1124.37 15.032C1124.12 15.6613 1123.99 16.3973 1123.99 17.24C1123.99 18.0827 1124.12 18.816 1124.37 19.44C1124.63 20.0587 1125.01 20.5413 1125.52 20.888C1126.04 21.2347 1126.69 21.4133 1127.46 21.424ZM1134.57 23V11.48H1139.33C1139.45 11.48 1139.59 11.4853 1139.77 11.496C1139.94 11.5013 1140.1 11.5173 1140.25 11.544C1140.92 11.6453 1141.47 11.8667 1141.9 12.208C1142.34 12.5493 1142.66 12.9813 1142.87 13.504C1143.08 14.0213 1143.19 14.5973 1143.19 15.232C1143.19 16.1707 1142.95 16.9787 1142.48 17.656C1142 18.328 1141.27 18.744 1140.29 18.904L1139.47 18.976H1136.5V23H1134.57ZM1141.19 23L1138.92 18.312L1140.88 17.88L1143.37 23H1141.19ZM1136.5 17.176H1139.25C1139.36 17.176 1139.48 17.1707 1139.61 17.16C1139.75 17.1493 1139.87 17.128 1139.98 17.096C1140.3 17.016 1140.55 16.8747 1140.73 16.672C1140.92 16.4693 1141.05 16.24 1141.13 15.984C1141.21 15.728 1141.25 15.4773 1141.25 15.232C1141.25 14.9867 1141.21 14.736 1141.13 14.48C1141.05 14.2187 1140.92 13.9867 1140.73 13.784C1140.55 13.5813 1140.3 13.44 1139.98 13.36C1139.87 13.328 1139.75 13.3093 1139.61 13.304C1139.48 13.2933 1139.36 13.288 1139.25 13.288H1136.5V17.176ZM1147.9 23V13.288H1144.18V11.48H1153.56V13.288H1149.83V23H1147.9ZM1157.24 22.984V21.304L1162.17 16.912C1162.55 16.5707 1162.82 16.248 1162.97 15.944C1163.11 15.64 1163.19 15.3467 1163.19 15.064C1163.19 14.68 1163.11 14.3387 1162.94 14.04C1162.78 13.736 1162.55 13.496 1162.25 13.32C1161.97 13.144 1161.63 13.056 1161.25 13.056C1160.85 13.056 1160.5 13.1493 1160.19 13.336C1159.89 13.5173 1159.65 13.76 1159.48 14.064C1159.31 14.368 1159.23 14.696 1159.24 15.048H1157.25C1157.25 14.28 1157.42 13.6107 1157.77 13.04C1158.11 12.4693 1158.59 12.0267 1159.19 11.712C1159.8 11.3973 1160.5 11.24 1161.29 11.24C1162.03 11.24 1162.69 11.4053 1163.28 11.736C1163.86 12.0613 1164.33 12.5147 1164.66 13.096C1165 13.672 1165.17 14.336 1165.17 15.088C1165.17 15.6373 1165.09 16.0987 1164.94 16.472C1164.79 16.8453 1164.57 17.1893 1164.27 17.504C1163.98 17.8187 1163.61 18.168 1163.17 18.552L1159.68 21.648L1159.5 21.168H1165.17V22.984H1157.24ZM1171.56 23V21.096H1166.46V19.296L1170.14 11.48H1172.34L1168.66 19.296H1171.56V16.296H1173.51V19.296H1174.59V21.096H1173.51V23H1171.56ZM1179.42 11.48H1181.36L1178.29 23H1176.35L1179.42 11.48ZM1184.02 23L1187.98 13.304H1182.95V11.48H1190.05V13.304L1186.1 23H1184.02Z" fill="#475467"/>
<path d="M1080.28 49V37.48H1081.46V47.872H1086.93V49H1080.28ZM1088.45 38.72V37.4H1089.63V38.72H1088.45ZM1088.45 49V40.36H1089.63V49H1088.45ZM1094.36 49L1091.23 40.36H1092.42L1094.97 47.464L1097.51 40.36H1098.71L1095.58 49H1094.36ZM1103.49 49.24C1102.65 49.24 1101.92 49.0533 1101.3 48.68C1100.69 48.3067 1100.21 47.7813 1099.87 47.104C1099.53 46.4267 1099.36 45.632 1099.36 44.72C1099.36 43.776 1099.53 42.96 1099.86 42.272C1100.2 41.584 1100.67 41.0533 1101.28 40.68C1101.89 40.3067 1102.61 40.12 1103.45 40.12C1104.3 40.12 1105.03 40.3173 1105.63 40.712C1106.23 41.1013 1106.69 41.6613 1107 42.392C1107.31 43.1227 1107.45 43.9947 1107.42 45.008H1106.22V44.592C1106.2 43.472 1105.96 42.6267 1105.49 42.056C1105.04 41.4853 1104.36 41.2 1103.48 41.2C1102.55 41.2 1101.84 41.5013 1101.34 42.104C1100.85 42.7067 1100.61 43.5653 1100.61 44.68C1100.61 45.768 1100.85 46.6133 1101.34 47.216C1101.84 47.8133 1102.54 48.112 1103.45 48.112C1104.07 48.112 1104.6 47.9707 1105.06 47.688C1105.53 47.4 1105.89 46.9867 1106.16 46.448L1107.25 46.872C1106.91 47.624 1106.41 48.208 1105.74 48.624C1105.08 49.0347 1104.33 49.24 1103.49 49.24ZM1100.19 45.008V44.024H1106.79V45.008H1100.19ZM1115.99 49.24C1115.12 49.24 1114.38 49.0453 1113.78 48.656C1113.17 48.2667 1112.72 47.7307 1112.4 47.048C1112.09 46.36 1111.93 45.5707 1111.92 44.68C1111.93 43.7733 1112.1 42.9787 1112.42 42.296C1112.74 41.608 1113.2 41.0747 1113.8 40.696C1114.4 40.312 1115.13 40.12 1115.99 40.12C1116.87 40.12 1117.63 40.3333 1118.27 40.76C1118.92 41.1867 1119.37 41.7707 1119.61 42.512L1118.46 42.88C1118.25 42.3627 1117.93 41.9627 1117.49 41.68C1117.05 41.392 1116.55 41.248 1115.99 41.248C1115.35 41.248 1114.83 41.3947 1114.41 41.688C1113.99 41.976 1113.68 42.3787 1113.48 42.896C1113.28 43.4133 1113.17 44.008 1113.17 44.68C1113.18 45.7147 1113.42 46.5467 1113.89 47.176C1114.36 47.8 1115.06 48.112 1115.99 48.112C1116.57 48.112 1117.07 47.9787 1117.48 47.712C1117.9 47.44 1118.21 47.0453 1118.43 46.528L1119.61 46.88C1119.29 47.648 1118.82 48.2347 1118.2 48.64C1117.58 49.04 1116.84 49.24 1115.99 49.24ZM1124.63 49.24C1123.78 49.24 1123.04 49.0453 1122.43 48.656C1121.83 48.2667 1121.36 47.728 1121.03 47.04C1120.71 46.352 1120.55 45.5627 1120.55 44.672C1120.55 43.7653 1120.71 42.9707 1121.04 42.288C1121.37 41.6053 1121.84 41.0747 1122.45 40.696C1123.06 40.312 1123.79 40.12 1124.63 40.12C1125.5 40.12 1126.23 40.3147 1126.84 40.704C1127.46 41.088 1127.92 41.624 1128.24 42.312C1128.57 42.9947 1128.73 43.7813 1128.73 44.672C1128.73 45.5787 1128.57 46.376 1128.24 47.064C1127.92 47.7467 1127.45 48.28 1126.83 48.664C1126.22 49.048 1125.49 49.24 1124.63 49.24ZM1124.63 48.112C1125.59 48.112 1126.31 47.7947 1126.78 47.16C1127.25 46.52 1127.48 45.6907 1127.48 44.672C1127.48 43.6267 1127.24 42.7947 1126.77 42.176C1126.3 41.5573 1125.59 41.248 1124.63 41.248C1123.99 41.248 1123.46 41.3947 1123.03 41.688C1122.62 41.976 1122.31 42.3787 1122.1 42.896C1121.9 43.408 1121.79 44 1121.79 44.672C1121.79 45.712 1122.03 46.5467 1122.51 47.176C1122.99 47.8 1123.7 48.112 1124.63 48.112ZM1136.74 49V44.592C1136.74 44.112 1136.69 43.672 1136.6 43.272C1136.51 42.8667 1136.36 42.5147 1136.16 42.216C1135.96 41.912 1135.7 41.6773 1135.38 41.512C1135.07 41.3467 1134.68 41.264 1134.23 41.264C1133.82 41.264 1133.45 41.336 1133.13 41.48C1132.81 41.624 1132.55 41.832 1132.33 42.104C1132.11 42.3707 1131.95 42.696 1131.84 43.08C1131.73 43.464 1131.67 43.9013 1131.67 44.392L1130.84 44.208C1130.84 43.3227 1130.99 42.5787 1131.3 41.976C1131.61 41.3733 1132.04 40.9173 1132.58 40.608C1133.13 40.2987 1133.75 40.144 1134.46 40.144C1134.97 40.144 1135.42 40.224 1135.81 40.384C1136.2 40.544 1136.52 40.76 1136.79 41.032C1137.06 41.304 1137.28 41.616 1137.45 41.968C1137.61 42.3147 1137.73 42.6853 1137.81 43.08C1137.88 43.4693 1137.92 43.8587 1137.92 44.248V49H1136.74ZM1130.49 49V40.36H1131.55V42.488H1131.67V49H1130.49ZM1144.7 49C1144.21 49.1013 1143.73 49.1413 1143.26 49.12C1142.79 49.0987 1142.37 48.9973 1142 48.816C1141.63 48.6347 1141.35 48.352 1141.16 47.968C1141 47.648 1140.92 47.3253 1140.9 47C1140.89 46.6693 1140.88 46.2933 1140.88 45.872V37.96H1142.05V45.824C1142.05 46.1867 1142.05 46.4907 1142.06 46.736C1142.07 46.976 1142.13 47.1893 1142.23 47.376C1142.42 47.7333 1142.72 47.9467 1143.14 48.016C1143.56 48.0853 1144.08 48.0693 1144.7 47.968V49ZM1139.04 41.368V40.36H1144.7V41.368H1139.04ZM1148.87 49.24C1148.22 49.24 1147.68 49.1227 1147.23 48.888C1146.8 48.6533 1146.47 48.3413 1146.25 47.952C1146.03 47.5627 1145.92 47.1387 1145.92 46.68C1145.92 46.2107 1146.01 45.8107 1146.2 45.48C1146.39 45.144 1146.65 44.8693 1146.98 44.656C1147.31 44.4427 1147.69 44.28 1148.12 44.168C1148.56 44.0613 1149.04 43.968 1149.57 43.888C1150.1 43.8027 1150.62 43.7307 1151.13 43.672C1151.64 43.608 1152.09 43.5467 1152.47 43.488L1152.06 43.744C1152.07 42.8907 1151.91 42.2587 1151.56 41.848C1151.21 41.4373 1150.61 41.232 1149.75 41.232C1149.16 41.232 1148.66 41.3653 1148.25 41.632C1147.84 41.8987 1147.56 42.32 1147.39 42.896L1146.25 42.56C1146.45 41.7867 1146.84 41.1867 1147.44 40.76C1148.04 40.3333 1148.81 40.12 1149.77 40.12C1150.56 40.12 1151.23 40.2693 1151.78 40.568C1152.33 40.8613 1152.72 41.288 1152.95 41.848C1153.06 42.0987 1153.13 42.3787 1153.16 42.688C1153.19 42.9973 1153.21 43.312 1153.21 43.632V49H1152.16V46.832L1152.47 46.96C1152.17 47.7013 1151.72 48.2667 1151.1 48.656C1150.48 49.0453 1149.74 49.24 1148.87 49.24ZM1149.01 48.224C1149.56 48.224 1150.04 48.1253 1150.45 47.928C1150.86 47.7307 1151.19 47.4613 1151.44 47.12C1151.69 46.7733 1151.85 46.384 1151.93 45.952C1151.99 45.6747 1152.03 45.3707 1152.03 45.04C1152.04 44.704 1152.04 44.4533 1152.04 44.288L1152.49 44.52C1152.09 44.5733 1151.65 44.6267 1151.19 44.68C1150.72 44.7333 1150.26 44.7947 1149.81 44.864C1149.36 44.9333 1148.96 45.016 1148.59 45.112C1148.35 45.1813 1148.11 45.28 1147.88 45.408C1147.65 45.5307 1147.46 45.696 1147.31 45.904C1147.17 46.112 1147.1 46.3707 1147.1 46.68C1147.1 46.9307 1147.16 47.1733 1147.28 47.408C1147.41 47.6427 1147.61 47.8373 1147.89 47.992C1148.17 48.1467 1148.55 48.224 1149.01 48.224ZM1158.88 49.24C1158.01 49.24 1157.27 49.0453 1156.67 48.656C1156.07 48.2667 1155.61 47.7307 1155.29 47.048C1154.98 46.36 1154.82 45.5707 1154.81 44.68C1154.82 43.7733 1154.99 42.9787 1155.31 42.296C1155.63 41.608 1156.09 41.0747 1156.69 40.696C1157.29 40.312 1158.03 40.12 1158.88 40.12C1159.76 40.12 1160.52 40.3333 1161.16 40.76C1161.81 41.1867 1162.26 41.7707 1162.5 42.512L1161.35 42.88C1161.15 42.3627 1160.82 41.9627 1160.38 41.68C1159.94 41.392 1159.44 41.248 1158.88 41.248C1158.24 41.248 1157.72 41.3947 1157.3 41.688C1156.88 41.976 1156.57 42.3787 1156.37 42.896C1156.17 43.4133 1156.07 44.008 1156.06 44.68C1156.07 45.7147 1156.31 46.5467 1156.78 47.176C1157.25 47.8 1157.95 48.112 1158.88 48.112C1159.46 48.112 1159.96 47.9787 1160.37 47.712C1160.79 47.44 1161.1 47.0453 1161.32 46.528L1162.5 46.88C1162.18 47.648 1161.71 48.2347 1161.09 48.64C1160.47 49.04 1159.73 49.24 1158.88 49.24ZM1168.86 49C1168.37 49.1013 1167.89 49.1413 1167.42 49.12C1166.95 49.0987 1166.52 48.9973 1166.15 48.816C1165.78 48.6347 1165.5 48.352 1165.31 47.968C1165.16 47.648 1165.07 47.3253 1165.06 47C1165.04 46.6693 1165.04 46.2933 1165.04 45.872V37.96H1166.21V45.824C1166.21 46.1867 1166.21 46.4907 1166.22 46.736C1166.23 46.976 1166.28 47.1893 1166.38 47.376C1166.58 47.7333 1166.88 47.9467 1167.3 48.016C1167.72 48.0853 1168.24 48.0693 1168.86 47.968V49ZM1163.19 41.368V40.36H1168.86V41.368H1163.19ZM1176.23 49.24C1175.58 49.24 1175.04 49.1227 1174.59 48.888C1174.16 48.6533 1173.83 48.3413 1173.61 47.952C1173.39 47.5627 1173.28 47.1387 1173.28 46.68C1173.28 46.2107 1173.37 45.8107 1173.56 45.48C1173.75 45.144 1174.01 44.8693 1174.34 44.656C1174.67 44.4427 1175.05 44.28 1175.48 44.168C1175.92 44.0613 1176.4 43.968 1176.93 43.888C1177.46 43.8027 1177.98 43.7307 1178.49 43.672C1179 43.608 1179.45 43.5467 1179.83 43.488L1179.42 43.744C1179.43 42.8907 1179.27 42.2587 1178.92 41.848C1178.57 41.4373 1177.97 41.232 1177.11 41.232C1176.52 41.232 1176.02 41.3653 1175.61 41.632C1175.2 41.8987 1174.92 42.32 1174.75 42.896L1173.61 42.56C1173.81 41.7867 1174.2 41.1867 1174.8 40.76C1175.4 40.3333 1176.17 40.12 1177.13 40.12C1177.92 40.12 1178.59 40.2693 1179.14 40.568C1179.69 40.8613 1180.08 41.288 1180.31 41.848C1180.42 42.0987 1180.49 42.3787 1180.52 42.688C1180.55 42.9973 1180.57 43.312 1180.57 43.632V49H1179.52V46.832L1179.82 46.96C1179.53 47.7013 1179.08 48.2667 1178.46 48.656C1177.84 49.0453 1177.1 49.24 1176.23 49.24ZM1176.37 48.224C1176.92 48.224 1177.4 48.1253 1177.81 47.928C1178.22 47.7307 1178.55 47.4613 1178.8 47.12C1179.05 46.7733 1179.21 46.384 1179.29 45.952C1179.35 45.6747 1179.39 45.3707 1179.39 45.04C1179.4 44.704 1179.4 44.4533 1179.4 44.288L1179.85 44.52C1179.45 44.5733 1179.01 44.6267 1178.54 44.68C1178.08 44.7333 1177.62 44.7947 1177.17 44.864C1176.72 44.9333 1176.32 45.016 1175.95 45.112C1175.71 45.1813 1175.47 45.28 1175.24 45.408C1175.01 45.5307 1174.82 45.696 1174.67 45.904C1174.53 46.112 1174.46 46.3707 1174.46 46.68C1174.46 46.9307 1174.52 47.1733 1174.64 47.408C1174.77 47.6427 1174.97 47.8373 1175.25 47.992C1175.53 48.1467 1175.9 48.224 1176.37 48.224ZM1188.89 49V44.592C1188.89 44.112 1188.85 43.672 1188.76 43.272C1188.66 42.8667 1188.52 42.5147 1188.32 42.216C1188.12 41.912 1187.86 41.6773 1187.54 41.512C1187.22 41.3467 1186.84 41.264 1186.39 41.264C1185.97 41.264 1185.6 41.336 1185.28 41.48C1184.97 41.624 1184.7 41.832 1184.48 42.104C1184.27 42.3707 1184.11 42.696 1184 43.08C1183.88 43.464 1183.83 43.9013 1183.83 44.392L1183 44.208C1183 43.3227 1183.15 42.5787 1183.46 41.976C1183.77 41.3733 1184.2 40.9173 1184.74 40.608C1185.28 40.2987 1185.91 40.144 1186.61 40.144C1187.13 40.144 1187.58 40.224 1187.96 40.384C1188.35 40.544 1188.68 40.76 1188.95 41.032C1189.22 41.304 1189.44 41.616 1189.6 41.968C1189.77 42.3147 1189.89 42.6853 1189.96 43.08C1190.04 43.4693 1190.08 43.8587 1190.08 44.248V49H1188.89ZM1182.64 49V40.36H1183.71V42.488H1183.83V49H1182.64ZM1195.46 49.24C1194.65 49.24 1193.96 49.04 1193.39 48.64C1192.82 48.2347 1192.38 47.688 1192.08 47C1191.78 46.312 1191.62 45.536 1191.62 44.672C1191.62 43.8133 1191.77 43.04 1192.07 42.352C1192.38 41.664 1192.81 41.12 1193.38 40.72C1193.94 40.32 1194.62 40.12 1195.41 40.12C1196.22 40.12 1196.9 40.3173 1197.46 40.712C1198.01 41.1067 1198.43 41.648 1198.71 42.336C1199 43.0187 1199.14 43.7973 1199.14 44.672C1199.14 45.5307 1199 46.3067 1198.72 47C1198.44 47.688 1198.02 48.2347 1197.47 48.64C1196.92 49.04 1196.25 49.24 1195.46 49.24ZM1195.58 48.144C1196.19 48.144 1196.7 47.9947 1197.1 47.696C1197.5 47.3973 1197.8 46.9867 1197.99 46.464C1198.19 45.936 1198.29 45.3387 1198.29 44.672C1198.29 43.9947 1198.19 43.3973 1197.99 42.88C1197.8 42.3573 1197.5 41.9493 1197.1 41.656C1196.7 41.3627 1196.2 41.216 1195.6 41.216C1194.98 41.216 1194.47 41.368 1194.06 41.672C1193.66 41.976 1193.36 42.3893 1193.16 42.912C1192.97 43.4347 1192.87 44.0213 1192.87 44.672C1192.87 45.328 1192.97 45.92 1193.17 46.448C1193.37 46.9707 1193.67 47.384 1194.07 47.688C1194.47 47.992 1194.97 48.144 1195.58 48.144ZM1198.29 49V42.496H1198.16V37.48H1199.34V49H1198.29ZM1215.1 49L1215.1 43.328C1215.1 42.6613 1214.92 42.1387 1214.54 41.76C1214.18 41.376 1213.71 41.184 1213.14 41.184C1212.81 41.184 1212.49 41.2587 1212.18 41.408C1211.87 41.5573 1211.62 41.7973 1211.42 42.128C1211.22 42.4587 1211.12 42.8907 1211.12 43.424L1210.42 43.224C1210.41 42.6053 1210.53 42.064 1210.78 41.6C1211.05 41.136 1211.4 40.776 1211.86 40.52C1212.31 40.2587 1212.83 40.128 1213.41 40.128C1214.28 40.128 1214.97 40.3973 1215.5 40.936C1216.02 41.4693 1216.28 42.192 1216.28 43.104L1216.27 49H1215.1ZM1204.78 49V40.36H1205.84V42.488H1205.97V49H1204.78ZM1209.95 49L1209.96 43.408C1209.96 42.72 1209.78 42.1787 1209.41 41.784C1209.05 41.384 1208.57 41.184 1207.97 41.184C1207.37 41.184 1206.89 41.3893 1206.52 41.8C1206.15 42.2053 1205.97 42.7467 1205.97 43.424L1205.26 43.04C1205.26 42.4853 1205.39 41.9893 1205.66 41.552C1205.92 41.1093 1206.27 40.7627 1206.73 40.512C1207.18 40.256 1207.7 40.128 1208.27 40.128C1208.82 40.128 1209.31 40.2453 1209.74 40.48C1210.17 40.7147 1210.51 41.056 1210.75 41.504C1211 41.952 1211.12 42.496 1211.12 43.136L1211.11 49H1209.95ZM1221.96 49.24C1221.12 49.24 1220.39 49.0533 1219.77 48.68C1219.16 48.3067 1218.68 47.7813 1218.34 47.104C1218 46.4267 1217.83 45.632 1217.83 44.72C1217.83 43.776 1218 42.96 1218.33 42.272C1218.67 41.584 1219.14 41.0533 1219.75 40.68C1220.36 40.3067 1221.08 40.12 1221.92 40.12C1222.77 40.12 1223.5 40.3173 1224.1 40.712C1224.7 41.1013 1225.16 41.6613 1225.47 42.392C1225.78 43.1227 1225.92 43.9947 1225.89 45.008H1224.69V44.592C1224.67 43.472 1224.43 42.6267 1223.96 42.056C1223.5 41.4853 1222.83 41.2 1221.95 41.2C1221.02 41.2 1220.31 41.5013 1219.81 42.104C1219.32 42.7067 1219.08 43.5653 1219.08 44.68C1219.08 45.768 1219.32 46.6133 1219.81 47.216C1220.31 47.8133 1221.01 48.112 1221.92 48.112C1222.53 48.112 1223.07 47.9707 1223.53 47.688C1224 47.4 1224.36 46.9867 1224.63 46.448L1225.72 46.872C1225.38 47.624 1224.88 48.208 1224.21 48.624C1223.55 49.0347 1222.8 49.24 1221.96 49.24ZM1218.66 45.008V44.024H1225.26V45.008H1218.66ZM1230.89 49.232C1229.88 49.232 1229.04 49.0133 1228.39 48.576C1227.74 48.1387 1227.34 47.5307 1227.19 46.752L1228.39 46.552C1228.51 47.0427 1228.81 47.4347 1229.26 47.728C1229.72 48.016 1230.28 48.16 1230.95 48.16C1231.61 48.16 1232.13 48.024 1232.51 47.752C1232.89 47.4747 1233.07 47.0987 1233.07 46.624C1233.07 46.3573 1233.01 46.1413 1232.89 45.976C1232.77 45.8053 1232.53 45.648 1232.16 45.504C1231.79 45.36 1231.25 45.1893 1230.51 44.992C1229.73 44.7787 1229.12 44.5653 1228.67 44.352C1228.23 44.1387 1227.92 43.8933 1227.73 43.616C1227.54 43.3333 1227.45 42.9893 1227.45 42.584C1227.45 42.0933 1227.59 41.664 1227.87 41.296C1228.14 40.9227 1228.53 40.6347 1229.02 40.432C1229.51 40.224 1230.08 40.12 1230.73 40.12C1231.38 40.12 1231.96 40.2267 1232.47 40.44C1232.99 40.648 1233.41 40.9413 1233.72 41.32C1234.04 41.6987 1234.22 42.1387 1234.28 42.64L1233.08 42.856C1233 42.3493 1232.75 41.9493 1232.32 41.656C1231.9 41.3573 1231.37 41.2027 1230.71 41.192C1230.1 41.176 1229.6 41.2933 1229.22 41.544C1228.83 41.7893 1228.64 42.1173 1228.64 42.528C1228.64 42.7573 1228.71 42.9547 1228.85 43.12C1228.99 43.28 1229.24 43.432 1229.6 43.576C1229.97 43.72 1230.49 43.8773 1231.17 44.048C1231.97 44.2507 1232.59 44.464 1233.04 44.688C1233.5 44.912 1233.82 45.176 1234.01 45.48C1234.2 45.784 1234.3 46.16 1234.3 46.608C1234.3 47.424 1233.99 48.0667 1233.39 48.536C1232.78 49 1231.95 49.232 1230.89 49.232ZM1239.3 49.232C1238.28 49.232 1237.45 49.0133 1236.79 48.576C1236.14 48.1387 1235.74 47.5307 1235.59 46.752L1236.79 46.552C1236.92 47.0427 1237.21 47.4347 1237.67 47.728C1238.12 48.016 1238.69 48.16 1239.36 48.16C1240.02 48.16 1240.53 48.024 1240.91 47.752C1241.29 47.4747 1241.48 47.0987 1241.48 46.624C1241.48 46.3573 1241.42 46.1413 1241.3 45.976C1241.18 45.8053 1240.94 45.648 1240.57 45.504C1240.2 45.36 1239.65 45.1893 1238.92 44.992C1238.14 44.7787 1237.52 44.5653 1237.08 44.352C1236.64 44.1387 1236.32 43.8933 1236.14 43.616C1235.95 43.3333 1235.86 42.9893 1235.86 42.584C1235.86 42.0933 1236 41.664 1236.27 41.296C1236.55 40.9227 1236.93 40.6347 1237.43 40.432C1237.92 40.224 1238.49 40.12 1239.14 40.12C1239.79 40.12 1240.37 40.2267 1240.88 40.44C1241.4 40.648 1241.81 40.9413 1242.13 41.32C1242.44 41.6987 1242.63 42.1387 1242.69 42.64L1241.49 42.856C1241.41 42.3493 1241.16 41.9493 1240.73 41.656C1240.31 41.3573 1239.77 41.2027 1239.12 41.192C1238.51 41.176 1238.01 41.2933 1237.63 41.544C1237.24 41.7893 1237.05 42.1173 1237.05 42.528C1237.05 42.7573 1237.12 42.9547 1237.26 43.12C1237.4 43.28 1237.65 43.432 1238.01 43.576C1238.38 43.72 1238.9 43.8773 1239.58 44.048C1240.37 44.2507 1241 44.464 1241.45 44.688C1241.9 44.912 1242.23 45.176 1242.42 45.48C1242.61 45.784 1242.71 46.16 1242.71 46.608C1242.71 47.424 1242.4 48.0667 1241.79 48.536C1241.19 49 1240.36 49.232 1239.3 49.232ZM1246.95 49.24C1246.3 49.24 1245.75 49.1227 1245.31 48.888C1244.87 48.6533 1244.55 48.3413 1244.33 47.952C1244.11 47.5627 1244 47.1387 1244 46.68C1244 46.2107 1244.09 45.8107 1244.28 45.48C1244.47 45.144 1244.73 44.8693 1245.06 44.656C1245.39 44.4427 1245.77 44.28 1246.2 44.168C1246.64 44.0613 1247.12 43.968 1247.65 43.888C1248.18 43.8027 1248.7 43.7307 1249.21 43.672C1249.72 43.608 1250.17 43.5467 1250.55 43.488L1250.14 43.744C1250.15 42.8907 1249.99 42.2587 1249.64 41.848C1249.29 41.4373 1248.69 41.232 1247.83 41.232C1247.24 41.232 1246.74 41.3653 1246.33 41.632C1245.92 41.8987 1245.64 42.32 1245.47 42.896L1244.33 42.56C1244.52 41.7867 1244.92 41.1867 1245.52 40.76C1246.12 40.3333 1246.89 40.12 1247.85 40.12C1248.64 40.12 1249.31 40.2693 1249.86 40.568C1250.41 40.8613 1250.8 41.288 1251.03 41.848C1251.14 42.0987 1251.21 42.3787 1251.24 42.688C1251.27 42.9973 1251.29 43.312 1251.29 43.632V49H1250.24V46.832L1250.54 46.96C1250.25 47.7013 1249.79 48.2667 1249.18 48.656C1248.56 49.0453 1247.82 49.24 1246.95 49.24ZM1247.09 48.224C1247.64 48.224 1248.12 48.1253 1248.53 47.928C1248.94 47.7307 1249.27 47.4613 1249.52 47.12C1249.77 46.7733 1249.93 46.384 1250.01 45.952C1250.07 45.6747 1250.11 45.3707 1250.11 45.04C1250.12 44.704 1250.12 44.4533 1250.12 44.288L1250.57 44.52C1250.17 44.5733 1249.73 44.6267 1249.26 44.68C1248.8 44.7333 1248.34 44.7947 1247.89 44.864C1247.44 44.9333 1247.03 45.016 1246.67 45.112C1246.43 45.1813 1246.19 45.28 1245.96 45.408C1245.73 45.5307 1245.54 45.696 1245.39 45.904C1245.25 46.112 1245.18 46.3707 1245.18 46.68C1245.18 46.9307 1245.24 47.1733 1245.36 47.408C1245.49 47.6427 1245.69 47.8373 1245.97 47.992C1246.25 48.1467 1246.62 48.224 1247.09 48.224ZM1256.8 53.08C1256.36 53.08 1255.92 53.0133 1255.49 52.88C1255.06 52.752 1254.67 52.5467 1254.31 52.264C1253.94 51.9867 1253.64 51.624 1253.39 51.176L1254.46 50.584C1254.7 51.064 1255.03 51.408 1255.47 51.616C1255.9 51.8293 1256.35 51.936 1256.8 51.936C1257.43 51.936 1257.93 51.8187 1258.31 51.584C1258.7 51.3547 1258.99 51.0133 1259.16 50.56C1259.34 50.1067 1259.42 49.5413 1259.42 48.864V46.56H1259.55V40.36H1260.6V48.88C1260.6 49.1253 1260.59 49.36 1260.58 49.584C1260.57 49.8133 1260.54 50.0373 1260.51 50.256C1260.4 50.9013 1260.19 51.432 1259.87 51.848C1259.56 52.264 1259.14 52.5733 1258.63 52.776C1258.11 52.9787 1257.51 53.08 1256.8 53.08ZM1256.72 49.24C1255.92 49.24 1255.23 49.04 1254.66 48.64C1254.09 48.2347 1253.65 47.688 1253.35 47C1253.04 46.312 1252.89 45.536 1252.89 44.672C1252.89 43.8133 1253.04 43.04 1253.34 42.352C1253.64 41.664 1254.08 41.12 1254.64 40.72C1255.21 40.32 1255.88 40.12 1256.67 40.12C1257.48 40.12 1258.17 40.3173 1258.72 40.712C1259.28 41.1067 1259.7 41.648 1259.98 42.336C1260.27 43.0187 1260.41 43.7973 1260.41 44.672C1260.41 45.5307 1260.27 46.3067 1259.99 47C1259.7 47.688 1259.29 48.2347 1258.74 48.64C1258.19 49.04 1257.52 49.24 1256.72 49.24ZM1256.84 48.144C1257.46 48.144 1257.96 47.9947 1258.36 47.696C1258.76 47.3973 1259.06 46.9867 1259.26 46.464C1259.46 45.936 1259.55 45.3387 1259.55 44.672C1259.55 43.9947 1259.46 43.3973 1259.26 42.88C1259.06 42.3573 1258.76 41.9493 1258.36 41.656C1257.97 41.3627 1257.47 41.216 1256.87 41.216C1256.25 41.216 1255.74 41.368 1255.33 41.672C1254.92 41.976 1254.62 42.3893 1254.43 42.912C1254.23 43.4347 1254.14 44.0213 1254.14 44.672C1254.14 45.328 1254.24 45.92 1254.43 46.448C1254.64 46.9707 1254.94 47.384 1255.34 47.688C1255.74 47.992 1256.24 48.144 1256.84 48.144ZM1266.49 49.24C1265.65 49.24 1264.92 49.0533 1264.3 48.68C1263.69 48.3067 1263.21 47.7813 1262.87 47.104C1262.53 46.4267 1262.36 45.632 1262.36 44.72C1262.36 43.776 1262.53 42.96 1262.86 42.272C1263.2 41.584 1263.67 41.0533 1264.28 40.68C1264.89 40.3067 1265.61 40.12 1266.45 40.12C1267.3 40.12 1268.03 40.3173 1268.63 40.712C1269.23 41.1013 1269.69 41.6613 1270 42.392C1270.31 43.1227 1270.45 43.9947 1270.42 45.008H1269.22V44.592C1269.2 43.472 1268.96 42.6267 1268.49 42.056C1268.04 41.4853 1267.36 41.2 1266.48 41.2C1265.55 41.2 1264.84 41.5013 1264.34 42.104C1263.85 42.7067 1263.61 43.5653 1263.61 44.68C1263.61 45.768 1263.85 46.6133 1264.34 47.216C1264.84 47.8133 1265.54 48.112 1266.45 48.112C1267.07 48.112 1267.6 47.9707 1268.06 47.688C1268.53 47.4 1268.89 46.9867 1269.16 46.448L1270.25 46.872C1269.91 47.624 1269.41 48.208 1268.74 48.624C1268.08 49.0347 1267.33 49.24 1266.49 49.24ZM1263.19 45.008V44.024H1269.79V45.008H1263.19Z" fill="#667085"/>
</svg>
