<svg width="184" height="62" viewBox="0 0 184 62" fill="none" xmlns="http://www.w3.org/2000/svg">
<rect width="184" height="62" rx="8" fill="#F2F4F7"/>
<g clip-path="url(#clip0_268_5069)">
<path d="M49.056 39.938C48.5893 41.0249 48.013 42.0614 47.336 43.0313C46.4307 44.3213 45.69 45.214 45.1193 45.71C44.2347 46.5233 43.286 46.9407 42.2707 46.964C41.542 46.964 40.6633 46.7567 39.64 46.336C38.6133 45.9173 37.67 45.7093 36.8073 45.7093C35.9027 45.7093 34.9327 45.9173 33.8947 46.336C32.8553 46.7567 32.018 46.976 31.378 46.9973C30.4047 47.0393 29.434 46.6107 28.4647 45.71C27.8467 45.17 27.074 44.246 26.1473 42.9367C25.1533 41.538 24.336 39.9167 23.696 38.0673C23.0107 36.0707 22.6667 34.1367 22.6667 32.2647C22.6667 30.12 23.13 28.2707 24.058 26.7207C24.788 25.4753 25.758 24.494 26.9727 23.7727C28.1643 23.0596 29.524 22.6758 30.9127 22.6607C31.686 22.6607 32.7 22.9 33.9607 23.37C35.2173 23.8413 36.024 24.0807 36.378 24.0807C36.642 24.0807 37.5387 23.8007 39.058 23.2433C40.4953 22.726 41.708 22.512 42.7013 22.5967C45.394 22.814 47.4167 23.8753 48.7613 25.7873C46.354 27.246 45.1627 29.2893 45.1867 31.9107C45.208 33.9527 45.9487 35.652 47.4047 37.0007C48.0647 37.6273 48.8013 38.1113 49.6207 38.4547C49.4489 38.9552 49.2606 39.4499 49.056 39.938ZM42.8813 15.6407C42.8813 17.2407 42.2967 18.7353 41.1313 20.118C39.7247 21.7627 38.024 22.7127 36.1793 22.5627C36.1546 22.3614 36.1421 22.1588 36.142 21.956C36.142 20.42 36.8107 18.776 37.9987 17.4313C38.592 16.7507 39.3453 16.1847 40.26 15.7333C41.1733 15.2887 42.036 15.0427 42.848 15C42.8713 15.214 42.8813 15.428 42.8813 15.64V15.6407Z" fill="#101828"/>
</g>
<path d="M75.0227 17C74.929 16.7131 74.8054 16.456 74.652 16.2287C74.5014 15.9986 74.321 15.8026 74.1108 15.6406C73.9034 15.4787 73.6676 15.3551 73.4034 15.2699C73.1392 15.1847 72.8494 15.142 72.5341 15.142C72.017 15.142 71.5469 15.2756 71.1236 15.5426C70.7003 15.8097 70.3636 16.2031 70.1136 16.723C69.8636 17.2429 69.7386 17.8807 69.7386 18.6364C69.7386 19.392 69.8651 20.0298 70.1179 20.5497C70.3707 21.0696 70.7131 21.4631 71.1449 21.7301C71.5767 21.9972 72.0625 22.1307 72.6023 22.1307C73.1023 22.1307 73.5426 22.0241 73.9233 21.8111C74.3068 21.5952 74.6051 21.2912 74.8182 20.8991C75.0341 20.5043 75.142 20.0398 75.142 19.5057L75.4659 19.5739H72.8409V18.6364H76.1648V19.5739C76.1648 20.2926 76.0114 20.9176 75.7045 21.4489C75.4006 21.9801 74.9801 22.392 74.4432 22.6847C73.9091 22.9744 73.2955 23.1193 72.6023 23.1193C71.8295 23.1193 71.1506 22.9375 70.5653 22.5739C69.983 22.2102 69.5284 21.6932 69.2017 21.0227C68.8778 20.3523 68.7159 19.5568 68.7159 18.6364C68.7159 17.946 68.8082 17.3253 68.9929 16.7741C69.1804 16.2202 69.4446 15.7486 69.7855 15.3594C70.1264 14.9702 70.5298 14.6719 70.9957 14.4645C71.4616 14.2571 71.9744 14.1534 72.5341 14.1534C72.9943 14.1534 73.4233 14.223 73.821 14.3622C74.2216 14.4986 74.5781 14.6932 74.8906 14.946C75.206 15.196 75.4688 15.4957 75.679 15.8452C75.8892 16.1918 76.0341 16.5767 76.1136 17H75.0227ZM80.5827 23.1364C79.9521 23.1364 79.408 22.9972 78.9506 22.7188C78.4961 22.4375 78.1452 22.0455 77.8981 21.5426C77.6538 21.0369 77.5316 20.4489 77.5316 19.7784C77.5316 19.108 77.6538 18.517 77.8981 18.0057C78.1452 17.4915 78.489 17.0909 78.9293 16.804C79.3725 16.5142 79.8896 16.3693 80.4805 16.3693C80.8214 16.3693 81.158 16.4261 81.4904 16.5398C81.8228 16.6534 82.1254 16.8381 82.3981 17.0938C82.6708 17.3466 82.8881 17.6818 83.0501 18.0994C83.212 18.517 83.293 19.0312 83.293 19.642V20.0682H78.2475V19.1989H82.2702C82.2702 18.8295 82.1964 18.5 82.0487 18.2102C81.9038 17.9205 81.6964 17.6918 81.4265 17.5241C81.1594 17.3565 80.8441 17.2727 80.4805 17.2727C80.0799 17.2727 79.7333 17.3722 79.4407 17.571C79.1509 17.767 78.9279 18.0227 78.7717 18.3381C78.6154 18.6534 78.5373 18.9915 78.5373 19.3523V19.9318C78.5373 20.4261 78.6225 20.8452 78.793 21.1889C78.9663 21.5298 79.2063 21.7898 79.5131 21.9688C79.82 22.1449 80.1765 22.233 80.5827 22.233C80.8469 22.233 81.0856 22.196 81.2987 22.1222C81.5146 22.0455 81.7006 21.9318 81.8569 21.7812C82.0131 21.6278 82.1339 21.4375 82.2191 21.2102L83.1907 21.483C83.0884 21.8125 82.9165 22.1023 82.6751 22.3523C82.4336 22.5994 82.1353 22.7926 81.7802 22.9318C81.4251 23.0682 81.0259 23.1364 80.5827 23.1364ZM87.6694 16.4545V17.3068H84.2773V16.4545H87.6694ZM85.266 14.8864H86.2717V21.125C86.2717 21.4091 86.3129 21.6222 86.3952 21.7642C86.4805 21.9034 86.5884 21.9972 86.7191 22.0455C86.8526 22.0909 86.9933 22.1136 87.141 22.1136C87.2518 22.1136 87.3427 22.108 87.4137 22.0966C87.4847 22.0824 87.5415 22.071 87.5842 22.0625L87.7887 22.9659C87.7205 22.9915 87.6254 23.017 87.5032 23.0426C87.381 23.071 87.2262 23.0852 87.0387 23.0852C86.7546 23.0852 86.4762 23.0241 86.2035 22.902C85.9336 22.7798 85.7092 22.5938 85.5302 22.3438C85.354 22.0938 85.266 21.7784 85.266 21.3977V14.8864ZM92.5572 23V16.4545H93.5629V23H92.5572ZM93.0685 15.3636C92.8725 15.3636 92.7035 15.2969 92.5614 15.1634C92.4222 15.0298 92.3526 14.8693 92.3526 14.6818C92.3526 14.4943 92.4222 14.3338 92.5614 14.2003C92.7035 14.0668 92.8725 14 93.0685 14C93.2646 14 93.4322 14.0668 93.5714 14.2003C93.7134 14.3338 93.7844 14.4943 93.7844 14.6818C93.7844 14.8693 93.7134 15.0298 93.5714 15.1634C93.4322 15.2969 93.2646 15.3636 93.0685 15.3636ZM98.2514 16.4545V17.3068H94.8594V16.4545H98.2514ZM95.848 14.8864H96.8537V21.125C96.8537 21.4091 96.8949 21.6222 96.9773 21.7642C97.0625 21.9034 97.1705 21.9972 97.3011 22.0455C97.4347 22.0909 97.5753 22.1136 97.723 22.1136C97.8338 22.1136 97.9247 22.108 97.9957 22.0966C98.0668 22.0824 98.1236 22.071 98.1662 22.0625L98.3707 22.9659C98.3026 22.9915 98.2074 23.017 98.0852 23.0426C97.9631 23.071 97.8082 23.0852 97.6207 23.0852C97.3366 23.0852 97.0582 23.0241 96.7855 22.902C96.5156 22.7798 96.2912 22.5938 96.1122 22.3438C95.9361 22.0938 95.848 21.7784 95.848 21.3977V14.8864ZM104.145 19.0625V23H103.139V16.4545H104.111V17.4773H104.196C104.349 17.1449 104.582 16.8778 104.895 16.6761C105.207 16.4716 105.611 16.3693 106.105 16.3693C106.548 16.3693 106.936 16.4602 107.268 16.642C107.601 16.821 107.859 17.0938 108.044 17.4602C108.229 17.8239 108.321 18.2841 108.321 18.8409V23H107.315V18.9091C107.315 18.3949 107.182 17.9943 106.915 17.7074C106.648 17.4176 106.281 17.2727 105.815 17.2727C105.494 17.2727 105.207 17.3423 104.955 17.4815C104.705 17.6207 104.507 17.8239 104.362 18.0909C104.217 18.358 104.145 18.6818 104.145 19.0625ZM112.818 23.1364C112.227 23.1364 111.708 22.9957 111.262 22.7145C110.819 22.4332 110.473 22.0398 110.223 21.5341C109.975 21.0284 109.852 20.4375 109.852 19.7614C109.852 19.0795 109.975 18.4844 110.223 17.9759C110.473 17.4673 110.819 17.0724 111.262 16.7912C111.708 16.5099 112.227 16.3693 112.818 16.3693C113.409 16.3693 113.926 16.5099 114.369 16.7912C114.815 17.0724 115.162 17.4673 115.409 17.9759C115.659 18.4844 115.784 19.0795 115.784 19.7614C115.784 20.4375 115.659 21.0284 115.409 21.5341C115.162 22.0398 114.815 22.4332 114.369 22.7145C113.926 22.9957 113.409 23.1364 112.818 23.1364ZM112.818 22.233C113.267 22.233 113.636 22.1179 113.926 21.8878C114.216 21.6577 114.43 21.3551 114.569 20.9801C114.708 20.6051 114.778 20.1989 114.778 19.7614C114.778 19.3239 114.708 18.9162 114.569 18.5384C114.43 18.1605 114.216 17.8551 113.926 17.6222C113.636 17.3892 113.267 17.2727 112.818 17.2727C112.369 17.2727 112 17.3892 111.71 17.6222C111.42 17.8551 111.206 18.1605 111.066 18.5384C110.927 18.9162 110.858 19.3239 110.858 19.7614C110.858 20.1989 110.927 20.6051 111.066 20.9801C111.206 21.3551 111.42 21.6577 111.71 21.8878C112 22.1179 112.369 22.233 112.818 22.233ZM118.579 23L116.585 16.4545H117.642L119.056 21.4659H119.125L120.522 16.4545H121.596L122.977 21.4489H123.045L124.46 16.4545H125.517L123.522 23H122.534L121.102 17.9716H121L119.568 23H118.579Z" fill="#344054"/>
<path d="M70.6399 47H68.3331L71.848 36.8182H74.6222L78.1321 47H75.8253L73.2749 39.1449H73.1953L70.6399 47ZM70.4957 42.9979H75.9446V44.6783H70.4957V42.9979ZM79.3178 49.8636V39.3636H81.4059V40.6463H81.5004C81.5932 40.4408 81.7274 40.232 81.9031 40.0199C82.082 39.8045 82.314 39.6255 82.5991 39.483C82.8874 39.3371 83.2454 39.2642 83.6729 39.2642C84.2298 39.2642 84.7435 39.41 85.2141 39.7017C85.6848 39.9901 86.061 40.4259 86.3427 41.0092C86.6244 41.5893 86.7653 42.3168 86.7653 43.1918C86.7653 44.0436 86.6277 44.7628 86.3526 45.3494C86.0808 45.9328 85.7096 46.3752 85.239 46.6768C84.7717 46.9751 84.248 47.1243 83.668 47.1243C83.257 47.1243 82.9073 47.0563 82.619 46.9205C82.3339 46.7846 82.1003 46.6139 81.918 46.4084C81.7357 46.1996 81.5965 45.9891 81.5004 45.777H81.4357V49.8636H79.3178ZM81.391 43.1818C81.391 43.6359 81.454 44.032 81.5799 44.37C81.7058 44.7081 81.8881 44.9716 82.1268 45.1605C82.3654 45.3461 82.6554 45.4389 82.9968 45.4389C83.3415 45.4389 83.6332 45.3445 83.8718 45.1555C84.1104 44.9633 84.2911 44.6982 84.4137 44.3601C84.5397 44.0187 84.6026 43.6259 84.6026 43.1818C84.6026 42.741 84.5413 42.3532 84.4187 42.0185C84.296 41.6837 84.1154 41.4219 83.8768 41.233C83.6381 41.044 83.3448 40.9496 82.9968 40.9496C82.6521 40.9496 82.3604 41.0407 82.1218 41.223C81.8865 41.4053 81.7058 41.6638 81.5799 41.9986C81.454 42.3333 81.391 42.7277 81.391 43.1818ZM88.1772 49.8636V39.3636H90.2653V40.6463H90.3597C90.4525 40.4408 90.5868 40.232 90.7624 40.0199C90.9414 39.8045 91.1734 39.6255 91.4585 39.483C91.7468 39.3371 92.1048 39.2642 92.5323 39.2642C93.0891 39.2642 93.6029 39.41 94.0735 39.7017C94.5442 39.9901 94.9203 40.4259 95.2021 41.0092C95.4838 41.5893 95.6246 42.3168 95.6246 43.1918C95.6246 44.0436 95.4871 44.7628 95.212 45.3494C94.9402 45.9328 94.569 46.3752 94.0984 46.6768C93.631 46.9751 93.1074 47.1243 92.5273 47.1243C92.1164 47.1243 91.7667 47.0563 91.4783 46.9205C91.1933 46.7846 90.9596 46.6139 90.7773 46.4084C90.5951 46.1996 90.4558 45.9891 90.3597 45.777H90.2951V49.8636H88.1772ZM90.2504 43.1818C90.2504 43.6359 90.3133 44.032 90.4393 44.37C90.5652 44.7081 90.7475 44.9716 90.9862 45.1605C91.2248 45.3461 91.5148 45.4389 91.8562 45.4389C92.2009 45.4389 92.4925 45.3445 92.7312 45.1555C92.9698 44.9633 93.1504 44.6982 93.2731 44.3601C93.399 44.0187 93.462 43.6259 93.462 43.1818C93.462 42.741 93.4007 42.3532 93.2781 42.0185C93.1554 41.6837 92.9748 41.4219 92.7362 41.233C92.4975 41.044 92.2042 40.9496 91.8562 40.9496C91.5115 40.9496 91.2198 41.0407 90.9812 41.223C90.7459 41.4053 90.5652 41.6638 90.4393 41.9986C90.3133 42.3333 90.2504 42.7277 90.2504 43.1818ZM105.84 39.7464C105.8 39.3454 105.63 39.0339 105.328 38.8118C105.026 38.5897 104.617 38.4787 104.1 38.4787C103.749 38.4787 103.452 38.5284 103.21 38.6278C102.968 38.724 102.782 38.8582 102.653 39.0305C102.527 39.2029 102.464 39.3984 102.464 39.6172C102.458 39.7995 102.496 39.9586 102.579 40.0945C102.665 40.2304 102.782 40.348 102.932 40.4474C103.081 40.5436 103.253 40.6281 103.449 40.701C103.644 40.7706 103.853 40.8303 104.075 40.88L104.99 41.0987C105.434 41.1982 105.842 41.3307 106.213 41.4964C106.584 41.6622 106.906 41.866 107.177 42.108C107.449 42.3499 107.66 42.6349 107.809 42.9631C107.961 43.2912 108.039 43.6674 108.042 44.0916C108.039 44.7147 107.88 45.255 107.565 45.7124C107.254 46.1664 106.803 46.5194 106.213 46.7713C105.626 47.0199 104.919 47.1442 104.09 47.1442C103.268 47.1442 102.552 47.0182 101.942 46.7663C101.336 46.5144 100.862 46.1416 100.52 45.6477C100.182 45.1506 100.005 44.5357 99.9885 43.8033H102.072C102.095 44.1446 102.193 44.4297 102.365 44.6584C102.541 44.8838 102.774 45.0545 103.066 45.1705C103.361 45.2831 103.694 45.3395 104.065 45.3395C104.43 45.3395 104.746 45.2865 105.015 45.1804C105.287 45.0743 105.497 44.9268 105.646 44.7379C105.795 44.549 105.87 44.3319 105.87 44.0866C105.87 43.858 105.802 43.6657 105.666 43.5099C105.533 43.3542 105.338 43.2216 105.079 43.1122C104.824 43.0028 104.511 42.9034 104.14 42.8139L103.031 42.5355C102.173 42.3267 101.495 42.0002 100.998 41.5561C100.501 41.112 100.254 40.5137 100.257 39.7614C100.254 39.1449 100.418 38.6063 100.749 38.1456C101.084 37.6849 101.543 37.3253 102.126 37.0668C102.71 36.8082 103.372 36.679 104.115 36.679C104.871 36.679 105.53 36.8082 106.094 37.0668C106.66 37.3253 107.101 37.6849 107.416 38.1456C107.731 38.6063 107.893 39.1399 107.903 39.7464H105.84ZM113.512 39.3636V40.9545H108.914V39.3636H113.512ZM109.958 37.5341H112.076V44.6534C112.076 44.849 112.105 45.0014 112.165 45.1108C112.225 45.2169 112.308 45.2914 112.414 45.3345C112.523 45.3776 112.649 45.3991 112.792 45.3991C112.891 45.3991 112.99 45.3909 113.09 45.3743C113.189 45.3544 113.266 45.3395 113.319 45.3295L113.652 46.9055C113.546 46.9387 113.396 46.9768 113.204 47.0199C113.012 47.0663 112.778 47.0945 112.503 47.1044C111.993 47.1243 111.545 47.0563 111.161 46.9006C110.78 46.7448 110.483 46.5028 110.271 46.1747C110.059 45.8466 109.954 45.4323 109.958 44.9318V37.5341ZM118.26 47.1491C117.488 47.1491 116.82 46.9851 116.257 46.657C115.697 46.3255 115.264 45.8648 114.959 45.2749C114.654 44.6816 114.502 43.9938 114.502 43.2116C114.502 42.4228 114.654 41.7334 114.959 41.1435C115.264 40.5502 115.697 40.0895 116.257 39.7614C116.82 39.4299 117.488 39.2642 118.26 39.2642C119.033 39.2642 119.699 39.4299 120.259 39.7614C120.822 40.0895 121.257 40.5502 121.561 41.1435C121.866 41.7334 122.019 42.4228 122.019 43.2116C122.019 43.9938 121.866 44.6816 121.561 45.2749C121.257 45.8648 120.822 46.3255 120.259 46.657C119.699 46.9851 119.033 47.1491 118.26 47.1491ZM118.27 45.5085C118.622 45.5085 118.915 45.4091 119.15 45.2102C119.386 45.008 119.563 44.733 119.682 44.3849C119.805 44.0369 119.866 43.6409 119.866 43.1967C119.866 42.7526 119.805 42.3565 119.682 42.0085C119.563 41.6605 119.386 41.3854 119.15 41.1832C118.915 40.9811 118.622 40.88 118.27 40.88C117.916 40.88 117.617 40.9811 117.375 41.1832C117.137 41.3854 116.956 41.6605 116.833 42.0085C116.714 42.3565 116.654 42.7526 116.654 43.1967C116.654 43.6409 116.714 44.0369 116.833 44.3849C116.956 44.733 117.137 45.008 117.375 45.2102C117.617 45.4091 117.916 45.5085 118.27 45.5085ZM123.396 47V39.3636H125.449V40.696H125.529C125.668 40.2221 125.902 39.8641 126.23 39.6222C126.558 39.3769 126.936 39.2543 127.363 39.2543C127.469 39.2543 127.584 39.2609 127.706 39.2741C127.829 39.2874 127.937 39.3056 128.029 39.3288V41.2081C127.93 41.1783 127.792 41.1518 127.617 41.1286C127.441 41.1054 127.28 41.0938 127.135 41.0938C126.823 41.0938 126.545 41.1617 126.299 41.2976C126.057 41.4302 125.865 41.6158 125.723 41.8544C125.583 42.093 125.514 42.3681 125.514 42.6797V47H123.396ZM132.249 47.1491C131.464 47.1491 130.787 46.9901 130.221 46.6719C129.657 46.3504 129.223 45.8963 128.918 45.3097C128.613 44.7197 128.461 44.022 128.461 43.2166C128.461 42.4311 128.613 41.7417 128.918 41.1484C129.223 40.5552 129.652 40.0928 130.206 39.7614C130.763 39.4299 131.416 39.2642 132.165 39.2642C132.668 39.2642 133.137 39.3454 133.572 39.5078C134.009 39.6669 134.39 39.9072 134.715 40.2287C135.043 40.5502 135.298 40.9545 135.481 41.4418C135.663 41.9257 135.754 42.4924 135.754 43.142V43.7237H129.306V42.4112H133.76C133.76 42.1063 133.694 41.8362 133.562 41.6009C133.429 41.3655 133.245 41.1816 133.01 41.049C132.778 40.9131 132.508 40.8452 132.199 40.8452C131.878 40.8452 131.593 40.9197 131.344 41.0689C131.099 41.2147 130.907 41.4119 130.768 41.6605C130.628 41.9058 130.557 42.1792 130.554 42.4808V43.7287C130.554 44.1065 130.623 44.433 130.763 44.7081C130.905 44.9832 131.106 45.1953 131.364 45.3445C131.623 45.4936 131.929 45.5682 132.284 45.5682C132.519 45.5682 132.735 45.535 132.93 45.4688C133.126 45.4025 133.293 45.303 133.432 45.1705C133.572 45.0379 133.678 44.8755 133.751 44.6832L135.709 44.8125C135.61 45.2831 135.406 45.6941 135.098 46.0455C134.793 46.3935 134.398 46.6652 133.915 46.8608C133.434 47.053 132.879 47.1491 132.249 47.1491Z" fill="#344054"/>
<defs>
<clipPath id="clip0_268_5069">
<rect width="32" height="32" fill="white" transform="translate(20 15)"/>
</clipPath>
</defs>
</svg>
