<svg width="24" height="24" viewBox="0 0 24 24" fill="none" xmlns="http://www.w3.org/2000/svg">
<path fill-rule="evenodd" clip-rule="evenodd" d="M15.75 18C15.5511 18 15.3603 18.079 15.2197 18.2197C15.079 18.3603 15 18.5511 15 18.75C15 18.9489 15.079 19.1397 15.2197 19.2803C15.3603 19.421 15.5511 19.5 15.75 19.5C15.9489 19.5 16.1397 19.421 16.2803 19.2803C16.421 19.1397 16.5 18.9489 16.5 18.75C16.5 18.5511 16.421 18.3603 16.2803 18.2197C16.1397 18.079 15.9489 18 15.75 18ZM13.5 18.75C13.5 18.1533 13.7371 17.581 14.159 17.159C14.581 16.7371 15.1533 16.5 15.75 16.5C16.3467 16.5 16.919 16.7371 17.341 17.159C17.7629 17.581 18 18.1533 18 18.75C18 19.3467 17.7629 19.919 17.341 20.341C16.919 20.7629 16.3467 21 15.75 21C15.1533 21 14.581 20.7629 14.159 20.341C13.7371 19.919 13.5 19.3467 13.5 18.75ZM8.25 18C8.05109 18 7.86032 18.079 7.71967 18.2197C7.57902 18.3603 7.5 18.5511 7.5 18.75C7.5 18.9489 7.57902 19.1397 7.71967 19.2803C7.86032 19.421 8.05109 19.5 8.25 19.5C8.44891 19.5 8.63968 19.421 8.78033 19.2803C8.92098 19.1397 9 18.9489 9 18.75C9 18.5511 8.92098 18.3603 8.78033 18.2197C8.63968 18.079 8.44891 18 8.25 18ZM6 18.75C6 18.4545 6.0582 18.1619 6.17127 17.889C6.28434 17.616 6.45008 17.3679 6.65901 17.159C6.86794 16.9501 7.11598 16.7843 7.38896 16.6713C7.66194 16.5582 7.95453 16.5 8.25 16.5C8.54547 16.5 8.83806 16.5582 9.11104 16.6713C9.38402 16.7843 9.63206 16.9501 9.84099 17.159C10.0499 17.3679 10.2157 17.616 10.3287 17.889C10.4418 18.1619 10.5 18.4545 10.5 18.75C10.5 19.3467 10.2629 19.919 9.84099 20.341C9.41903 20.7629 8.84674 21 8.25 21C7.65326 21 7.08097 20.7629 6.65901 20.341C6.23705 19.919 6 19.3467 6 18.75ZM3.75 3C3.55109 3 3.36032 3.07902 3.21967 3.21967C3.07902 3.36032 3 3.55109 3 3.75C3 3.94891 3.07902 4.13968 3.21967 4.28033C3.36032 4.42098 3.55109 4.5 3.75 4.5H5.3535C5.54313 4.50009 5.72569 4.57201 5.86443 4.70129C6.00317 4.83056 6.08779 5.0076 6.10125 5.19675L6.6525 12.9105C6.69308 13.478 6.94712 14.009 7.36347 14.3967C7.77983 14.7844 8.32759 14.9999 8.8965 15H16.884C17.3678 14.9999 17.8387 14.8439 18.2269 14.555C18.615 14.2662 18.8997 13.8599 19.0387 13.3965L20.9632 6.9825C21.0382 6.75375 20.9918 6.49125 20.8515 6.30225C20.7789 6.20727 20.6852 6.13051 20.5778 6.07805C20.4704 6.02558 20.3523 5.99886 20.2327 6H18C17.8011 6 17.6103 6.07902 17.4697 6.21967C17.329 6.36032 17.25 6.55109 17.25 6.75C17.25 6.94891 17.329 7.13968 17.4697 7.28033C17.6103 7.42098 17.8011 7.5 18 7.5H19.242L17.6025 12.9653C17.5562 13.1198 17.4613 13.2553 17.3318 13.3517C17.2024 13.448 17.0453 13.5 16.884 13.5H8.8965C8.70687 13.4999 8.52431 13.428 8.38557 13.2987C8.24683 13.1694 8.16221 12.9924 8.14875 12.8032L7.5975 5.0895C7.55692 4.52204 7.30288 3.99102 6.88653 3.60333C6.47017 3.21564 5.92241 3.00007 5.3535 3H3.75Z" fill="white"/>
<path fill-rule="evenodd" clip-rule="evenodd" d="M13.5 4.5C13.5 4.30109 13.421 4.11032 13.2803 3.96967C13.1397 3.82902 12.9489 3.75 12.75 3.75C12.5511 3.75 12.3603 3.82902 12.2197 3.96967C12.079 4.11032 12 4.30109 12 4.5V6H10.5C10.3011 6 10.1103 6.07902 9.96967 6.21967C9.82902 6.36032 9.75 6.55109 9.75 6.75C9.75 6.94891 9.82902 7.13968 9.96967 7.28033C10.1103 7.42098 10.3011 7.5 10.5 7.5H12V9C12 9.19891 12.079 9.38968 12.2197 9.53033C12.3603 9.67098 12.5511 9.75 12.75 9.75C12.9489 9.75 13.1397 9.67098 13.2803 9.53033C13.421 9.38968 13.5 9.19891 13.5 9V7.5H15C15.1989 7.5 15.3897 7.42098 15.5303 7.28033C15.671 7.13968 15.75 6.94891 15.75 6.75C15.75 6.55109 15.671 6.36032 15.5303 6.21967C15.3897 6.07902 15.1989 6 15 6H13.5V4.5Z" fill="white"/>
</svg>
