<svg width="184" height="62" viewBox="0 0 184 62" fill="none" xmlns="http://www.w3.org/2000/svg">
<rect width="184" height="62" rx="8" fill="#F2F4F7"/>
<g clip-path="url(#clip0_268_5061)">
<path d="M40.0869 30.3124L26.2917 16.4788L43.8437 26.5556L40.0869 30.3124ZM22.6901 15.666C21.8773 16.0916 21.3333 16.866 21.3333 17.874V45.458C21.3333 46.466 21.8773 47.2404 22.6901 47.666L38.7333 31.6628L22.6901 15.666ZM49.2709 29.7684L45.5893 27.6372L41.4821 31.6692L45.5893 35.7012L49.3461 33.57C50.4709 32.6756 50.4709 30.6628 49.2709 29.7684ZM26.2917 46.8596L43.8437 36.7828L40.0869 33.026L26.2917 46.8596Z" fill="#101828"/>
</g>
<path d="M75.0227 17C74.929 16.7131 74.8054 16.456 74.652 16.2287C74.5014 15.9986 74.321 15.8026 74.1108 15.6406C73.9034 15.4787 73.6676 15.3551 73.4034 15.2699C73.1392 15.1847 72.8494 15.142 72.5341 15.142C72.017 15.142 71.5469 15.2756 71.1236 15.5426C70.7003 15.8097 70.3636 16.2031 70.1136 16.723C69.8636 17.2429 69.7386 17.8807 69.7386 18.6364C69.7386 19.392 69.8651 20.0298 70.1179 20.5497C70.3707 21.0696 70.7131 21.4631 71.1449 21.7301C71.5767 21.9972 72.0625 22.1307 72.6023 22.1307C73.1023 22.1307 73.5426 22.0241 73.9233 21.8111C74.3068 21.5952 74.6051 21.2912 74.8182 20.8991C75.0341 20.5043 75.142 20.0398 75.142 19.5057L75.4659 19.5739H72.8409V18.6364H76.1648V19.5739C76.1648 20.2926 76.0114 20.9176 75.7045 21.4489C75.4006 21.9801 74.9801 22.392 74.4432 22.6847C73.9091 22.9744 73.2955 23.1193 72.6023 23.1193C71.8295 23.1193 71.1506 22.9375 70.5653 22.5739C69.983 22.2102 69.5284 21.6932 69.2017 21.0227C68.8778 20.3523 68.7159 19.5568 68.7159 18.6364C68.7159 17.946 68.8082 17.3253 68.9929 16.7741C69.1804 16.2202 69.4446 15.7486 69.7855 15.3594C70.1264 14.9702 70.5298 14.6719 70.9957 14.4645C71.4616 14.2571 71.9744 14.1534 72.5341 14.1534C72.9943 14.1534 73.4233 14.223 73.821 14.3622C74.2216 14.4986 74.5781 14.6932 74.8906 14.946C75.206 15.196 75.4688 15.4957 75.679 15.8452C75.8892 16.1918 76.0341 16.5767 76.1136 17H75.0227ZM80.5827 23.1364C79.9521 23.1364 79.408 22.9972 78.9506 22.7188C78.4961 22.4375 78.1452 22.0455 77.8981 21.5426C77.6538 21.0369 77.5316 20.4489 77.5316 19.7784C77.5316 19.108 77.6538 18.517 77.8981 18.0057C78.1452 17.4915 78.489 17.0909 78.9293 16.804C79.3725 16.5142 79.8896 16.3693 80.4805 16.3693C80.8214 16.3693 81.158 16.4261 81.4904 16.5398C81.8228 16.6534 82.1254 16.8381 82.3981 17.0938C82.6708 17.3466 82.8881 17.6818 83.0501 18.0994C83.212 18.517 83.293 19.0312 83.293 19.642V20.0682H78.2475V19.1989H82.2702C82.2702 18.8295 82.1964 18.5 82.0487 18.2102C81.9038 17.9205 81.6964 17.6918 81.4265 17.5241C81.1594 17.3565 80.8441 17.2727 80.4805 17.2727C80.0799 17.2727 79.7333 17.3722 79.4407 17.571C79.1509 17.767 78.9279 18.0227 78.7717 18.3381C78.6154 18.6534 78.5373 18.9915 78.5373 19.3523V19.9318C78.5373 20.4261 78.6225 20.8452 78.793 21.1889C78.9663 21.5298 79.2063 21.7898 79.5131 21.9688C79.82 22.1449 80.1765 22.233 80.5827 22.233C80.8469 22.233 81.0856 22.196 81.2987 22.1222C81.5146 22.0455 81.7006 21.9318 81.8569 21.7812C82.0131 21.6278 82.1339 21.4375 82.2191 21.2102L83.1907 21.483C83.0884 21.8125 82.9165 22.1023 82.6751 22.3523C82.4336 22.5994 82.1353 22.7926 81.7802 22.9318C81.4251 23.0682 81.0259 23.1364 80.5827 23.1364ZM87.6694 16.4545V17.3068H84.2773V16.4545H87.6694ZM85.266 14.8864H86.2717V21.125C86.2717 21.4091 86.3129 21.6222 86.3952 21.7642C86.4805 21.9034 86.5884 21.9972 86.7191 22.0455C86.8526 22.0909 86.9933 22.1136 87.141 22.1136C87.2518 22.1136 87.3427 22.108 87.4137 22.0966C87.4847 22.0824 87.5415 22.071 87.5842 22.0625L87.7887 22.9659C87.7205 22.9915 87.6254 23.017 87.5032 23.0426C87.381 23.071 87.2262 23.0852 87.0387 23.0852C86.7546 23.0852 86.4762 23.0241 86.2035 22.902C85.9336 22.7798 85.7092 22.5938 85.5302 22.3438C85.354 22.0938 85.266 21.7784 85.266 21.3977V14.8864ZM92.5572 23V16.4545H93.5629V23H92.5572ZM93.0685 15.3636C92.8725 15.3636 92.7035 15.2969 92.5614 15.1634C92.4222 15.0298 92.3526 14.8693 92.3526 14.6818C92.3526 14.4943 92.4222 14.3338 92.5614 14.2003C92.7035 14.0668 92.8725 14 93.0685 14C93.2646 14 93.4322 14.0668 93.5714 14.2003C93.7134 14.3338 93.7844 14.4943 93.7844 14.6818C93.7844 14.8693 93.7134 15.0298 93.5714 15.1634C93.4322 15.2969 93.2646 15.3636 93.0685 15.3636ZM98.2514 16.4545V17.3068H94.8594V16.4545H98.2514ZM95.848 14.8864H96.8537V21.125C96.8537 21.4091 96.8949 21.6222 96.9773 21.7642C97.0625 21.9034 97.1705 21.9972 97.3011 22.0455C97.4347 22.0909 97.5753 22.1136 97.723 22.1136C97.8338 22.1136 97.9247 22.108 97.9957 22.0966C98.0668 22.0824 98.1236 22.071 98.1662 22.0625L98.3707 22.9659C98.3026 22.9915 98.2074 23.017 98.0852 23.0426C97.9631 23.071 97.8082 23.0852 97.6207 23.0852C97.3366 23.0852 97.0582 23.0241 96.7855 22.902C96.5156 22.7798 96.2912 22.5938 96.1122 22.3438C95.9361 22.0938 95.848 21.7784 95.848 21.3977V14.8864ZM104.145 19.0625V23H103.139V16.4545H104.111V17.4773H104.196C104.349 17.1449 104.582 16.8778 104.895 16.6761C105.207 16.4716 105.611 16.3693 106.105 16.3693C106.548 16.3693 106.936 16.4602 107.268 16.642C107.601 16.821 107.859 17.0938 108.044 17.4602C108.229 17.8239 108.321 18.2841 108.321 18.8409V23H107.315V18.9091C107.315 18.3949 107.182 17.9943 106.915 17.7074C106.648 17.4176 106.281 17.2727 105.815 17.2727C105.494 17.2727 105.207 17.3423 104.955 17.4815C104.705 17.6207 104.507 17.8239 104.362 18.0909C104.217 18.358 104.145 18.6818 104.145 19.0625ZM112.818 23.1364C112.227 23.1364 111.708 22.9957 111.262 22.7145C110.819 22.4332 110.473 22.0398 110.223 21.5341C109.975 21.0284 109.852 20.4375 109.852 19.7614C109.852 19.0795 109.975 18.4844 110.223 17.9759C110.473 17.4673 110.819 17.0724 111.262 16.7912C111.708 16.5099 112.227 16.3693 112.818 16.3693C113.409 16.3693 113.926 16.5099 114.369 16.7912C114.815 17.0724 115.162 17.4673 115.409 17.9759C115.659 18.4844 115.784 19.0795 115.784 19.7614C115.784 20.4375 115.659 21.0284 115.409 21.5341C115.162 22.0398 114.815 22.4332 114.369 22.7145C113.926 22.9957 113.409 23.1364 112.818 23.1364ZM112.818 22.233C113.267 22.233 113.636 22.1179 113.926 21.8878C114.216 21.6577 114.43 21.3551 114.569 20.9801C114.708 20.6051 114.778 20.1989 114.778 19.7614C114.778 19.3239 114.708 18.9162 114.569 18.5384C114.43 18.1605 114.216 17.8551 113.926 17.6222C113.636 17.3892 113.267 17.2727 112.818 17.2727C112.369 17.2727 112 17.3892 111.71 17.6222C111.42 17.8551 111.206 18.1605 111.066 18.5384C110.927 18.9162 110.858 19.3239 110.858 19.7614C110.858 20.1989 110.927 20.6051 111.066 20.9801C111.206 21.3551 111.42 21.6577 111.71 21.8878C112 22.1179 112.369 22.233 112.818 22.233ZM118.579 23L116.585 16.4545H117.642L119.056 21.4659H119.125L120.522 16.4545H121.596L122.977 21.4489H123.045L124.46 16.4545H125.517L123.522 23H122.534L121.102 17.9716H121L119.568 23H118.579Z" fill="#344054"/>
<path d="M75.6364 40.1094C75.5668 39.8674 75.469 39.6536 75.343 39.468C75.2171 39.2791 75.063 39.12 74.8807 38.9908C74.7017 38.8582 74.4962 38.7571 74.2642 38.6875C74.0355 38.6179 73.782 38.5831 73.5036 38.5831C72.9832 38.5831 72.5258 38.7124 72.1314 38.9709C71.7403 39.2294 71.4354 39.6056 71.2166 40.0994C70.9979 40.59 70.8885 41.1899 70.8885 41.8991C70.8885 42.6084 70.9962 43.2116 71.2116 43.7088C71.4271 44.206 71.732 44.5855 72.1264 44.8473C72.5208 45.1058 72.9865 45.2351 73.5234 45.2351C74.0107 45.2351 74.4266 45.1489 74.7713 44.9766C75.1193 44.8009 75.3845 44.554 75.5668 44.2358C75.7524 43.9176 75.8452 43.5414 75.8452 43.1072L76.2827 43.1719H73.6577V41.5511H77.9183V42.8338C77.9183 43.7287 77.7294 44.4976 77.3516 45.1406C76.9737 45.7803 76.4534 46.2741 75.7905 46.6222C75.1276 46.9669 74.3686 47.1392 73.5135 47.1392C72.5589 47.1392 71.7204 46.9287 70.9979 46.5078C70.2753 46.0836 69.7119 45.482 69.3075 44.7031C68.9065 43.9209 68.706 42.9929 68.706 41.919C68.706 41.0937 68.8253 40.358 69.0639 39.7116C69.3059 39.062 69.6439 38.5118 70.0781 38.0611C70.5123 37.6103 71.0178 37.2673 71.5945 37.032C72.1712 36.7966 72.7959 36.679 73.4688 36.679C74.0455 36.679 74.5824 36.7635 75.0795 36.9325C75.5767 37.0982 76.0175 37.3336 76.402 37.6385C76.7898 37.9434 77.1063 38.3063 77.3516 38.7273C77.5968 39.1449 77.7543 39.6056 77.8239 40.1094H75.6364ZM82.9458 47.1491C82.1736 47.1491 81.5057 46.9851 80.9423 46.657C80.3822 46.3255 79.9496 45.8648 79.6447 45.2749C79.3398 44.6816 79.1873 43.9938 79.1873 43.2116C79.1873 42.4228 79.3398 41.7334 79.6447 41.1435C79.9496 40.5502 80.3822 40.0895 80.9423 39.7614C81.5057 39.4299 82.1736 39.2642 82.9458 39.2642C83.7181 39.2642 84.3843 39.4299 84.9444 39.7614C85.5079 40.0895 85.9421 40.5502 86.247 41.1435C86.5519 41.7334 86.7044 42.4228 86.7044 43.2116C86.7044 43.9938 86.5519 44.6816 86.247 45.2749C85.9421 45.8648 85.5079 46.3255 84.9444 46.657C84.3843 46.9851 83.7181 47.1491 82.9458 47.1491ZM82.9558 45.5085C83.3071 45.5085 83.6004 45.4091 83.8358 45.2102C84.0711 45.008 84.2484 44.733 84.3677 44.3849C84.4904 44.0369 84.5517 43.6409 84.5517 43.1967C84.5517 42.7526 84.4904 42.3565 84.3677 42.0085C84.2484 41.6605 84.0711 41.3854 83.8358 41.1832C83.6004 40.9811 83.3071 40.88 82.9558 40.88C82.6011 40.88 82.3029 40.9811 82.0609 41.1832C81.8223 41.3854 81.6416 41.6605 81.519 42.0085C81.3997 42.3565 81.34 42.7526 81.34 43.1967C81.34 43.6409 81.3997 44.0369 81.519 44.3849C81.6416 44.733 81.8223 45.008 82.0609 45.2102C82.3029 45.4091 82.6011 45.5085 82.9558 45.5085ZM91.5318 47.1491C90.7595 47.1491 90.0917 46.9851 89.5282 46.657C88.9681 46.3255 88.5356 45.8648 88.2306 45.2749C87.9257 44.6816 87.7733 43.9938 87.7733 43.2116C87.7733 42.4228 87.9257 41.7334 88.2306 41.1435C88.5356 40.5502 88.9681 40.0895 89.5282 39.7614C90.0917 39.4299 90.7595 39.2642 91.5318 39.2642C92.304 39.2642 92.9702 39.4299 93.5304 39.7614C94.0938 40.0895 94.528 40.5502 94.8329 41.1435C95.1378 41.7334 95.2903 42.4228 95.2903 43.2116C95.2903 43.9938 95.1378 44.6816 94.8329 45.2749C94.528 45.8648 94.0938 46.3255 93.5304 46.657C92.9702 46.9851 92.304 47.1491 91.5318 47.1491ZM91.5417 45.5085C91.8931 45.5085 92.1864 45.4091 92.4217 45.2102C92.657 45.008 92.8343 44.733 92.9537 44.3849C93.0763 44.0369 93.1376 43.6409 93.1376 43.1967C93.1376 42.7526 93.0763 42.3565 92.9537 42.0085C92.8343 41.6605 92.657 41.3854 92.4217 41.1832C92.1864 40.9811 91.8931 40.88 91.5417 40.88C91.1871 40.88 90.8888 40.9811 90.6468 41.1832C90.4082 41.3854 90.2276 41.6605 90.1049 42.0085C89.9856 42.3565 89.926 42.7526 89.926 43.1967C89.926 43.6409 89.9856 44.0369 90.1049 44.3849C90.2276 44.733 90.4082 45.008 90.6468 45.2102C90.8888 45.4091 91.1871 45.5085 91.5417 45.5085ZM100.108 50.0227C99.4217 50.0227 98.8334 49.9283 98.3429 49.7393C97.8556 49.5537 97.4679 49.3002 97.1795 48.9787C96.8912 48.6572 96.7039 48.2959 96.6177 47.8949L98.5765 47.6314C98.6362 47.7839 98.7306 47.9264 98.8599 48.0589C98.9892 48.1915 99.1599 48.2976 99.372 48.3771C99.5874 48.46 99.8493 48.5014 100.157 48.5014C100.618 48.5014 100.998 48.3887 101.296 48.1634C101.598 47.9413 101.748 47.5684 101.748 47.0447V45.6477H101.659C101.566 45.8598 101.427 46.0604 101.241 46.2493C101.056 46.4382 100.817 46.5923 100.525 46.7116C100.234 46.831 99.8857 46.8906 99.4814 46.8906C98.908 46.8906 98.3859 46.758 97.9153 46.4929C97.448 46.2244 97.0751 45.8151 96.7967 45.2649C96.5216 44.7114 96.3841 44.0121 96.3841 43.1669C96.3841 42.3018 96.5249 41.5793 96.8066 40.9993C97.0884 40.4193 97.4629 39.9851 97.9302 39.6967C98.4009 39.4084 98.9163 39.2642 99.4764 39.2642C99.9039 39.2642 100.262 39.3371 100.55 39.483C100.839 39.6255 101.071 39.8045 101.246 40.0199C101.425 40.232 101.563 40.4408 101.659 40.6463H101.738V39.3636H103.841V47.0746C103.841 47.7242 103.682 48.2678 103.364 48.7053C103.046 49.1428 102.605 49.4709 102.042 49.6896C101.482 49.9117 100.837 50.0227 100.108 50.0227ZM100.153 45.2997C100.494 45.2997 100.782 45.2152 101.018 45.0462C101.256 44.8738 101.439 44.6286 101.564 44.3104C101.694 43.9889 101.758 43.6044 101.758 43.157C101.758 42.7095 101.695 42.3217 101.569 41.9936C101.443 41.6622 101.261 41.4053 101.023 41.223C100.784 41.0407 100.494 40.9496 100.153 40.9496C99.8045 40.9496 99.5112 41.044 99.2725 41.233C99.0339 41.4186 98.8533 41.6771 98.7306 42.0085C98.608 42.34 98.5467 42.7228 98.5467 43.157C98.5467 43.5978 98.608 43.9789 98.7306 44.3004C98.8566 44.6186 99.0372 44.8655 99.2725 45.0412C99.5112 45.2135 99.8045 45.2997 100.153 45.2997ZM107.645 36.8182V47H105.527V36.8182H107.645ZM112.821 47.1491C112.036 47.1491 111.36 46.9901 110.793 46.6719C110.23 46.3504 109.795 45.8963 109.49 45.3097C109.185 44.7197 109.033 44.022 109.033 43.2166C109.033 42.4311 109.185 41.7417 109.49 41.1484C109.795 40.5552 110.225 40.0928 110.778 39.7614C111.335 39.4299 111.988 39.2642 112.737 39.2642C113.241 39.2642 113.71 39.3454 114.144 39.5078C114.581 39.6669 114.962 39.9072 115.287 40.2287C115.615 40.5502 115.871 40.9545 116.053 41.4418C116.235 41.9257 116.326 42.4924 116.326 43.142V43.7237H109.878V42.4112H114.333C114.333 42.1063 114.266 41.8362 114.134 41.6009C114.001 41.3655 113.817 41.1816 113.582 41.049C113.35 40.9131 113.08 40.8452 112.772 40.8452C112.45 40.8452 112.165 40.9197 111.917 41.0689C111.671 41.2147 111.479 41.4119 111.34 41.6605C111.201 41.9058 111.129 42.1792 111.126 42.4808V43.7287C111.126 44.1065 111.196 44.433 111.335 44.7081C111.477 44.9832 111.678 45.1953 111.936 45.3445C112.195 45.4936 112.502 45.5682 112.856 45.5682C113.092 45.5682 113.307 45.535 113.502 45.4688C113.698 45.4025 113.865 45.303 114.005 45.1705C114.144 45.0379 114.25 44.8755 114.323 44.6832L116.282 44.8125C116.182 45.2831 115.978 45.6941 115.67 46.0455C115.365 46.3935 114.971 46.6652 114.487 46.8608C114.006 47.053 113.451 47.1491 112.821 47.1491ZM120.988 47V36.8182H125.006C125.778 36.8182 126.436 36.9657 126.979 37.2607C127.523 37.5523 127.937 37.9583 128.222 38.4787C128.51 38.9957 128.655 39.5923 128.655 40.2685C128.655 40.9446 128.509 41.5412 128.217 42.0582C127.925 42.5753 127.503 42.978 126.949 43.2663C126.399 43.5547 125.733 43.6989 124.951 43.6989H122.39V41.9737H124.603C125.017 41.9737 125.358 41.9025 125.627 41.7599C125.899 41.6141 126.101 41.4136 126.233 41.1584C126.369 40.8999 126.437 40.6032 126.437 40.2685C126.437 39.9304 126.369 39.6354 126.233 39.3835C126.101 39.1283 125.899 38.9311 125.627 38.7919C125.355 38.6494 125.01 38.5781 124.593 38.5781H123.141V47H120.988ZM132.131 36.8182V47H130.013V36.8182H132.131ZM136.005 47.1442C135.518 47.1442 135.084 47.0597 134.703 46.8906C134.321 46.7183 134.02 46.4647 133.798 46.13C133.579 45.7919 133.47 45.371 133.47 44.8672C133.47 44.4429 133.548 44.0866 133.703 43.7983C133.859 43.5099 134.071 43.2779 134.34 43.1023C134.608 42.9266 134.913 42.794 135.254 42.7045C135.599 42.6151 135.96 42.5521 136.338 42.5156C136.782 42.4692 137.14 42.4261 137.412 42.3864C137.684 42.3433 137.881 42.2803 138.004 42.1974C138.126 42.1146 138.188 41.992 138.188 41.8295V41.7997C138.188 41.4848 138.088 41.2412 137.889 41.0689C137.694 40.8965 137.415 40.8104 137.054 40.8104C136.673 40.8104 136.37 40.8949 136.144 41.0639C135.919 41.2296 135.77 41.4384 135.697 41.6903L133.738 41.5312C133.838 41.0672 134.033 40.6662 134.325 40.3281C134.616 39.9867 134.993 39.7249 135.453 39.5426C135.917 39.357 136.454 39.2642 137.064 39.2642C137.488 39.2642 137.894 39.3139 138.282 39.4134C138.673 39.5128 139.02 39.6669 139.321 39.8757C139.626 40.0845 139.866 40.353 140.042 40.6811C140.218 41.0059 140.306 41.3954 140.306 41.8494V47H138.297V45.9411H138.237C138.115 46.1797 137.951 46.3902 137.745 46.5724C137.54 46.7514 137.293 46.8923 137.004 46.995C136.716 47.0945 136.383 47.1442 136.005 47.1442ZM136.612 45.6825C136.923 45.6825 137.198 45.6212 137.437 45.4986C137.676 45.3726 137.863 45.2036 137.999 44.9915C138.135 44.7794 138.203 44.5391 138.203 44.2706V43.4602C138.136 43.5033 138.045 43.5431 137.929 43.5795C137.816 43.6127 137.689 43.6442 137.546 43.674C137.404 43.7005 137.261 43.7254 137.119 43.7486C136.976 43.7685 136.847 43.7867 136.731 43.8033C136.482 43.8397 136.265 43.8977 136.08 43.9773C135.894 44.0568 135.75 44.1645 135.647 44.3004C135.544 44.433 135.493 44.5987 135.493 44.7976C135.493 45.0859 135.597 45.3063 135.806 45.4588C136.018 45.608 136.287 45.6825 136.612 45.6825ZM142.983 49.8636C142.714 49.8636 142.462 49.8421 142.227 49.799C141.995 49.7592 141.803 49.7079 141.65 49.6449L142.128 48.0639C142.376 48.1402 142.6 48.1816 142.799 48.1882C143.001 48.1948 143.175 48.1484 143.321 48.049C143.47 47.9496 143.591 47.7805 143.684 47.5419L143.808 47.2188L141.069 39.3636H143.296L144.877 44.9716H144.956L146.552 39.3636H148.795L145.827 47.8253C145.684 48.2363 145.49 48.5942 145.245 48.8991C145.003 49.2074 144.696 49.4444 144.325 49.6101C143.954 49.7791 143.506 49.8636 142.983 49.8636Z" fill="#344054"/>
<defs>
<clipPath id="clip0_268_5061">
<rect width="32" height="32" fill="white" transform="translate(20 15)"/>
</clipPath>
</defs>
</svg>
