<svg width="33" height="33" viewBox="0 0 33 33" fill="none" xmlns="http://www.w3.org/2000/svg">
<path d="M16.4998 3.16602C13.8628 3.16602 11.2849 3.948 9.09224 5.41309C6.89958 6.87817 5.19062 8.96055 4.18145 11.3969C3.17228 13.8333 2.90824 16.5141 3.42271 19.1006C3.93718 21.687 5.20705 24.0627 7.07175 25.9274C8.93645 27.7921 11.3122 29.062 13.8986 29.5765C16.4851 30.091 19.1659 29.8269 21.6023 28.8177C24.0386 27.8086 26.121 26.0996 27.5861 23.9069C29.0512 21.7143 29.8332 19.1364 29.8332 16.4993C29.8296 12.9642 28.4238 9.57488 25.924 7.07516C23.4243 4.57544 20.035 3.16955 16.4998 3.16602ZM24.4185 13.45V14.3113C24.4185 14.3773 24.4053 14.4425 24.3797 14.5033C24.3541 14.564 24.3166 14.619 24.2693 14.665C24.2221 14.711 24.1661 14.747 24.1047 14.771C24.0433 14.795 23.9777 14.8065 23.9118 14.8047C22.5041 14.7049 21.1574 14.1909 20.0412 13.3273V19.6313C20.041 20.3291 19.9018 21.0198 19.6317 21.6631C19.3615 22.3064 18.9659 22.8894 18.4678 23.378C17.9654 23.8789 17.3682 24.2747 16.7113 24.5426C16.0543 24.8104 15.3506 24.9448 14.6412 24.938C13.2144 24.9355 11.8451 24.3757 10.8252 23.378C10.1764 22.7239 9.70903 21.9121 9.46917 21.0226C9.22931 20.133 9.22517 19.1963 9.45718 18.3047C9.66918 17.4487 10.0972 16.662 10.7012 16.0207C11.1516 15.4701 11.7194 15.0272 12.363 14.7243C13.0067 14.4214 13.7098 14.2662 14.4212 14.27H15.5145V16.5407C15.515 16.6066 15.5014 16.6719 15.4747 16.7322C15.4479 16.7925 15.4087 16.8464 15.3594 16.8903C15.3102 16.9342 15.2522 16.9671 15.1893 16.9868C15.1264 17.0066 15.06 17.0126 14.9945 17.0047C14.3597 16.814 13.6756 16.8772 13.0866 17.1811C12.4975 17.4849 12.0494 18.0056 11.8367 18.6334C11.624 19.2612 11.6634 19.947 11.9466 20.5464C12.2297 21.1457 12.7345 21.6116 13.3545 21.846C13.7145 22.0527 14.1172 22.174 14.5305 22.202C14.8505 22.2153 15.1705 22.1753 15.4745 22.0793C15.9822 21.9085 16.4239 21.5833 16.7378 21.1491C17.0516 20.715 17.222 20.1937 17.2252 19.658V8.17135C17.225 8.10838 17.2373 8.04599 17.2612 7.98776C17.2852 7.92953 17.3204 7.87661 17.3649 7.83202C17.4094 7.78743 17.4622 7.75205 17.5204 7.72791C17.5785 7.70377 17.6409 7.69135 17.7038 7.69135H19.5905C19.7132 7.69118 19.8313 7.73812 19.9203 7.82247C20.0094 7.90683 20.0627 8.02217 20.0692 8.14468C20.1382 8.73293 20.3251 9.30121 20.6188 9.81553C20.9125 10.3299 21.307 10.7797 21.7785 11.138C22.416 11.6165 23.1731 11.91 23.9665 11.986C24.0854 11.9962 24.1965 12.0491 24.2793 12.1349C24.3622 12.2206 24.4112 12.3336 24.4172 12.4527L24.4185 13.45Z" fill="#98A2B3"/>
</svg>
