<svg width="33" height="" viewBox="0 0 33 33" fill="none" xmlns="http://www.w3.org/2000/svg">
<path d="M16.4998 3.51758C23.8713 3.51758 29.8332 9.47948 29.8332 16.8509C29.8332 24.2223 23.8713 30.1842 16.4998 30.1842C9.12841 30.1842 3.1665 24.2223 3.1665 16.8509C3.1665 9.47948 9.12841 3.51758 16.4998 3.51758ZM14.0617 23.8795C19.9665 23.8795 23.2046 18.9842 23.2046 14.7366V14.3176C23.8332 13.8604 24.3855 13.289 24.8046 12.6414C24.2332 12.889 23.6046 13.0604 22.957 13.1557C23.6236 12.7557 24.1379 12.1271 24.3665 11.3842C23.7379 11.7461 23.0522 12.0128 22.3284 12.1652C21.7379 11.5366 20.8998 11.1557 19.9855 11.1557C18.2141 11.1557 16.7665 12.6033 16.7665 14.3747C16.7665 14.6223 16.7856 14.87 16.8617 15.0985C14.1951 14.9652 11.8141 13.689 10.2332 11.7462C9.9665 12.2223 9.79508 12.7747 9.79508 13.3652C9.79508 14.47 10.3665 15.4604 11.2236 16.0319C10.6903 16.0319 10.1951 15.8795 9.77603 15.6319V15.67C9.77603 17.2319 10.8808 18.5271 12.3475 18.8319C12.0808 18.9081 11.7951 18.9461 11.5094 18.9461C11.2998 18.9461 11.1094 18.9271 10.8998 18.889C11.2998 20.1652 12.4998 21.0985 13.8903 21.1176C12.7856 21.9747 11.3951 22.489 9.89031 22.489C9.62365 22.489 9.37603 22.489 9.12841 22.4509C10.5379 23.3652 12.2332 23.8985 14.0427 23.8985" fill="#98A2B3"/>
</svg>
