<svg width="35" height="24" viewBox="0 0 35 24" fill="none" xmlns="http://www.w3.org/2000/svg">
<rect x="0.5" y="0.5" width="34" height="23" rx="3.5" stroke="#EAECF0"/>
<path d="M10.8277 5.00195H16.3435C17.1135 5.00195 17.5924 5.62953 17.4127 6.40204L14.8448 17.4274C14.6635 18.1972 13.8926 18.8253 13.1221 18.8253H7.6069C6.83802 18.8253 6.35806 18.1972 6.53768 17.4274L9.10674 6.40204C9.28636 5.62953 10.0568 5.00195 10.8277 5.00195Z" fill="#E21836"/>
<path d="M15.8843 5H22.2273C22.9971 5 22.6499 5.62758 22.4688 6.40009L19.9013 17.4255C19.7211 18.1953 19.7773 18.8234 19.0059 18.8234H12.6629C11.8914 18.8234 11.414 18.1953 11.5953 17.4255L14.1627 6.40009C14.345 5.62758 15.1139 5 15.8843 5Z" fill="#00447C"/>
<path d="M21.9758 5H27.4915C28.2626 5 28.7415 5.62758 28.5604 6.40009L25.9928 17.4255C25.8115 18.1953 25.0401 18.8234 24.2692 18.8234H18.756C17.9846 18.8234 17.5061 18.1953 17.6868 17.4255L20.2548 6.40009C20.4344 5.62758 21.2043 5 21.9758 5Z" fill="#007B84"/>
<path d="M12.268 8.53314C11.7008 8.53892 11.5332 8.53314 11.4797 8.5205C11.4592 8.61824 11.0764 10.3839 11.0753 10.3854C10.9929 10.7426 10.933 10.9972 10.7293 11.1616C10.6137 11.2572 10.4787 11.3033 10.3222 11.3033C10.0706 11.3033 9.92411 11.1784 9.8995 10.9415L9.8948 10.8602C9.8948 10.8602 9.97143 10.3817 9.97143 10.379C9.97143 10.379 10.3731 8.77003 10.4451 8.55734C10.4488 8.54524 10.4499 8.53892 10.4509 8.53314C9.66893 8.54 9.53032 8.53314 9.52078 8.5205C9.51554 8.53784 9.49618 8.6376 9.49618 8.6376L9.08599 10.4511L9.05077 10.6049L8.9826 11.108C8.9826 11.2572 9.01191 11.379 9.07026 11.482C9.25714 11.8086 9.7902 11.8575 10.0918 11.8575C10.4803 11.8575 10.8448 11.775 11.0911 11.6242C11.5186 11.3716 11.6305 10.9768 11.7302 10.6259L11.7765 10.4459C11.7765 10.4459 12.1903 8.77473 12.2606 8.55734C12.2633 8.54524 12.2643 8.53892 12.268 8.53314ZM13.676 9.88125C13.5762 9.88125 13.3939 9.90545 13.2301 9.98571C13.1707 10.0162 13.1145 10.0515 13.0552 10.0865L13.1087 9.89335L13.0794 9.86081C12.7322 9.93113 12.6545 9.94054 12.3337 9.98571L12.3068 10.0036C12.2696 10.3124 12.2365 10.5446 12.0984 11.1516C12.0458 11.3753 11.9913 11.6012 11.9365 11.8243L11.9513 11.8527C12.28 11.8354 12.3798 11.8354 12.6655 11.8401L12.6886 11.8149C12.7249 11.629 12.7296 11.5854 12.81 11.2089C12.8478 11.0303 12.9266 10.638 12.9654 10.4983C13.0368 10.4653 13.1073 10.4327 13.1745 10.4327C13.3346 10.4327 13.3151 10.5724 13.3089 10.6281C13.3021 10.7215 13.2437 11.0267 13.1839 11.2887L13.144 11.4579C13.1161 11.5828 13.0856 11.7042 13.0578 11.828L13.0699 11.8527C13.3939 11.8354 13.4927 11.8354 13.7694 11.8401L13.8019 11.8149C13.8519 11.5245 13.8666 11.4468 13.9553 11.024L14 10.8297C14.0867 10.4495 14.1302 10.2567 14.0646 10.0997C13.9953 9.92373 13.8288 9.88125 13.676 9.88125ZM15.2488 10.2793C15.0766 10.3124 14.9668 10.3344 14.8576 10.3487C14.7494 10.366 14.6438 10.3818 14.4774 10.4049L14.4642 10.4169L14.4521 10.4264C14.4348 10.5504 14.4227 10.6575 14.3997 10.7835C14.3802 10.9138 14.3502 11.0618 14.3014 11.2745C14.2636 11.4373 14.2441 11.494 14.2226 11.5513C14.2017 11.6086 14.1785 11.6642 14.136 11.8243L14.146 11.8391L14.1543 11.8527C14.3099 11.8453 14.4117 11.8401 14.5162 11.8391C14.6207 11.8354 14.7289 11.8391 14.8965 11.8401L14.9111 11.8281L14.9268 11.8149C14.951 11.6705 14.9547 11.6317 14.9695 11.5612C14.9841 11.4857 15.0094 11.3811 15.0714 11.1017C15.1007 10.9705 15.1333 10.8397 15.1637 10.7058C15.1953 10.5724 15.2284 10.4411 15.2599 10.3098L15.2551 10.294L15.2488 10.2793ZM15.2525 9.7426C15.096 9.65024 14.8213 9.67954 14.6365 9.80713C14.4522 9.93216 14.4312 10.1096 14.5871 10.2032C14.7409 10.293 15.0167 10.2663 15.1999 10.1376C15.3838 10.0099 15.4068 9.83402 15.2525 9.7426ZM16.1989 11.8816C16.5155 11.8816 16.8401 11.7944 17.0843 11.5355C17.2723 11.3255 17.3585 11.013 17.3883 10.8844C17.4855 10.4579 17.4098 10.2588 17.3148 10.1375C17.1704 9.95266 16.9152 9.89338 16.6505 9.89338C16.4913 9.89338 16.1122 9.9091 15.816 10.1822C15.6033 10.3791 15.505 10.6464 15.4458 10.9026C15.3859 11.1637 15.3171 11.6337 15.7493 11.8086C15.8827 11.8659 16.0749 11.8816 16.1989 11.8816ZM16.1742 10.9221C16.2472 10.5992 16.3333 10.3282 16.5533 10.3282C16.7257 10.3282 16.7382 10.5298 16.6615 10.8538C16.6478 10.9258 16.5849 11.1932 16.4998 11.307C16.4404 11.3911 16.3701 11.442 16.2923 11.442C16.2692 11.442 16.1317 11.442 16.1295 11.2378C16.1285 11.137 16.149 11.034 16.1742 10.9221ZM18.1798 11.8401L18.2045 11.815C18.2396 11.629 18.2454 11.5853 18.3231 11.2089C18.362 11.0304 18.4423 10.6381 18.4801 10.4984C18.5517 10.4652 18.6209 10.4326 18.6903 10.4326C18.8493 10.4326 18.8299 10.5723 18.8236 10.628C18.8178 10.7216 18.7595 11.0266 18.6986 11.2886L18.6608 11.4578C18.6319 11.5828 18.6005 11.7041 18.5726 11.828L18.5847 11.8528C18.9098 11.8354 19.0049 11.8354 19.2832 11.8401L19.3168 11.815C19.3656 11.5244 19.3787 11.4467 19.4702 11.024L19.5137 10.8296C19.6008 10.4494 19.6449 10.2568 19.5804 10.0998C19.509 9.92377 19.3415 9.88129 19.1908 9.88129C19.0909 9.88129 18.9077 9.90535 18.7448 9.98575C18.6866 10.0163 18.6283 10.0514 18.571 10.0866L18.6209 9.89339L18.5941 9.86072C18.247 9.93117 18.1677 9.94058 17.8473 9.98575L17.8227 10.0036C17.7838 10.3124 17.7523 10.5445 17.6142 11.1516C17.5616 11.3753 17.507 11.6012 17.4524 11.8244L17.4671 11.8528C17.7964 11.8354 17.8946 11.8354 18.1798 11.8401ZM20.5682 11.8527C20.5887 11.7529 20.7101 11.1617 20.7111 11.1617C20.7111 11.1617 20.8145 10.7278 20.8208 10.7121C20.8208 10.7121 20.8534 10.6669 20.8859 10.649H20.9338C21.3854 10.649 21.8953 10.649 22.295 10.355C22.567 10.1533 22.7529 9.85554 22.8359 9.49362C22.8574 9.40489 22.8732 9.29935 22.8732 9.19382C22.8732 9.05521 22.8454 8.91807 22.765 8.81092C22.5612 8.52577 22.1553 8.52053 21.6868 8.51838C21.6853 8.51838 21.4558 8.52053 21.4558 8.52053C20.8561 8.52792 20.6155 8.52577 20.5167 8.51367C20.5084 8.55737 20.4927 8.63507 20.4927 8.63507C20.4927 8.63507 20.2778 9.63076 20.2778 9.63237C20.2778 9.63237 19.7637 11.7493 19.7395 11.8491C20.2632 11.8427 20.4779 11.8427 20.5682 11.8527ZM20.9663 10.084C20.9663 10.084 21.1947 9.0903 21.1937 9.09406L21.201 9.04311L21.2043 9.00425L21.2956 9.01366C21.2956 9.01366 21.7666 9.05413 21.7777 9.05521C21.9636 9.12713 22.0402 9.31253 21.9867 9.55453C21.9379 9.77568 21.7945 9.96162 21.6102 10.0514C21.4584 10.1275 21.2724 10.1338 21.0809 10.1338H20.9569L20.9663 10.084ZM22.3885 10.9405C22.3281 11.1979 22.2588 11.6679 22.6888 11.8354C22.826 11.8937 22.9489 11.9111 23.0737 11.9048C23.2056 11.8976 23.3278 11.8315 23.441 11.7363C23.4308 11.7754 23.4206 11.8145 23.4104 11.8538L23.4299 11.8789C23.7392 11.8659 23.8352 11.8659 24.1704 11.8685L24.2008 11.8453C24.2497 11.5576 24.2958 11.2783 24.423 10.7278C24.485 10.4642 24.5468 10.2031 24.6104 9.94055L24.6005 9.91165C24.2544 9.97577 24.1619 9.98949 23.829 10.0367L23.8038 10.0572C23.8004 10.084 23.7969 10.1097 23.7937 10.1354C23.7419 10.0517 23.6669 9.98035 23.5512 9.93585C23.4031 9.87763 23.0555 9.95265 22.7566 10.2248C22.5466 10.419 22.4458 10.6852 22.3885 10.9405ZM23.1153 10.9563C23.1894 10.6391 23.2745 10.3708 23.495 10.3708C23.6344 10.3708 23.7078 10.4994 23.6929 10.7188C23.681 10.7736 23.6683 10.8312 23.6531 10.8964C23.631 10.9907 23.6071 11.0841 23.5838 11.1777C23.5602 11.2417 23.5326 11.3021 23.5024 11.3422C23.4456 11.4226 23.3106 11.4725 23.2329 11.4725C23.2109 11.4725 23.0748 11.4725 23.0701 11.2719C23.069 11.172 23.0896 11.0692 23.1153 10.9563ZM26.9107 9.90908L26.8839 9.87856C26.5415 9.94793 26.4795 9.95896 26.1649 10.0014L26.1418 10.0246C26.1407 10.0283 26.1398 10.0341 26.1382 10.0394L26.1371 10.0341C25.9029 10.5744 25.9097 10.4579 25.7191 10.8832C25.718 10.8639 25.718 10.8518 25.717 10.8312L25.6692 9.90908L25.6392 9.87856C25.2806 9.94793 25.2721 9.95896 24.9408 10.0014L24.915 10.0246C24.9114 10.0356 24.9114 10.0477 24.9092 10.0609L24.9114 10.0656C24.9528 10.2772 24.9428 10.23 24.9844 10.5639C25.0037 10.7278 25.0296 10.8927 25.0489 11.0545C25.0816 11.3254 25.0999 11.4588 25.1398 11.8722C24.9161 12.2414 24.8631 12.3811 24.6477 12.7051L24.6492 12.7083L24.4976 12.9482C24.4802 12.9734 24.4645 12.9908 24.4424 12.9982C24.4182 13.0101 24.3868 13.0123 24.3431 13.0123H24.2591L24.1342 13.4277L24.5626 13.4351C24.8142 13.434 24.9723 13.3164 25.0574 13.1583L25.3268 12.6966H25.3225L25.3509 12.6641C25.5321 12.2739 26.9107 9.90908 26.9107 9.90908ZM22.3885 15.3651H22.2067L22.8795 13.1399H23.1026L23.1735 12.9107L23.1803 13.1656C23.172 13.3232 23.296 13.4629 23.6216 13.4397H23.9982L24.1278 13.0113H23.9861C23.9046 13.0113 23.8668 12.9907 23.8715 12.9466L23.8647 12.6873H23.1673V12.6886C22.9418 12.6933 22.2686 12.7103 22.1322 12.7466C21.9673 12.789 21.7934 12.9141 21.7934 12.9141L21.8617 12.6846H21.2094L21.0735 13.1399L20.3917 15.3991H20.2594L20.1297 15.8245H21.429L21.3854 15.9663H22.0256L22.0681 15.8245H22.2477L22.3885 15.3651ZM21.8554 13.5921C21.751 13.621 21.5566 13.7086 21.5566 13.7086L21.7294 13.1399H22.2477L22.1227 13.5543C22.1227 13.5543 21.9626 13.5637 21.8554 13.5921ZM21.8654 14.4045C21.8654 14.4045 21.7026 14.4249 21.5954 14.4491C21.4899 14.4811 21.292 14.582 21.292 14.582L21.4705 13.9901H21.9915L21.8654 14.4045ZM21.575 15.3703H21.0551L21.2058 14.8709H21.7241L21.575 15.3703ZM22.827 13.9901H23.5764L23.4687 14.3389H22.7093L22.5953 14.7202H23.2597L22.7567 15.4286C22.7214 15.4806 22.6898 15.499 22.6548 15.5137C22.6195 15.5315 22.5733 15.5525 22.5198 15.5525H22.3355L22.2088 15.9701H22.6909C22.9415 15.9701 23.0895 15.8561 23.1988 15.7064L23.5438 15.2343L23.6179 15.7137C23.6336 15.8035 23.6982 15.8561 23.7419 15.8765C23.7901 15.9007 23.84 15.9423 23.9105 15.9484C23.986 15.9517 24.0406 15.9542 24.0769 15.9542H24.3138L24.456 15.4869H24.3626C24.3089 15.4869 24.2166 15.4779 24.2008 15.4611C24.1851 15.4407 24.1851 15.4092 24.1766 15.3613L24.1015 14.8808H23.7938L23.9287 14.7202H24.6866L24.8032 14.3389H24.1015L24.2108 13.9901H24.9103L25.04 13.5601H22.9546L22.827 13.9901ZM16.4977 15.4674L16.6726 14.8856H17.3914L17.5228 14.4528H16.8033L16.9131 14.0947H17.6162L17.7465 13.6756H15.9872L15.8596 14.0947H16.2593L16.1527 14.4528H15.7519L15.6191 14.893H16.0186L15.7855 15.6628C15.7541 15.7647 15.8003 15.8036 15.8296 15.8509C15.8596 15.897 15.89 15.9275 15.9583 15.9448C16.0287 15.9606 16.077 15.97 16.1426 15.97H16.953L17.0974 15.4906L16.7382 15.5399C16.6688 15.5399 16.4767 15.5316 16.4977 15.4674ZM16.5801 12.682L16.3979 13.0112C16.359 13.0831 16.3239 13.1278 16.2923 13.1483C16.2644 13.1657 16.2093 13.1729 16.1295 13.1729H16.0344L15.9074 13.5941H16.223C16.3748 13.5941 16.4914 13.5385 16.547 13.5107C16.6069 13.4787 16.6226 13.4969 16.6688 13.4523L16.7755 13.3599H17.7612L17.892 12.9214H17.1705L17.2964 12.682H16.5801ZM18.0354 15.4759C18.0186 15.4517 18.0307 15.4091 18.0564 15.3204L18.3258 14.4286H19.2842C19.4239 14.4266 19.5247 14.425 19.5903 14.4203C19.6608 14.4129 19.7374 14.3877 19.8209 14.3425C19.9071 14.2952 19.9512 14.2453 19.9884 14.1881C20.03 14.1309 20.0967 14.0059 20.1539 13.8131L20.4926 12.6846L19.498 12.6904C19.498 12.6904 19.1917 12.7356 19.0569 12.7854C18.9208 12.8411 18.7264 12.9965 18.7264 12.9965L18.8162 12.6872H18.2018L17.3417 15.5399C17.3111 15.6507 17.2907 15.7311 17.286 15.7793C17.2844 15.8314 17.3516 15.8829 17.3952 15.9217C17.4467 15.9606 17.5227 15.9542 17.5958 15.9606C17.6725 15.9663 17.7817 15.97 17.9324 15.97H18.4046L18.5495 15.4806L18.1268 15.5205C18.0816 15.5205 18.049 15.4963 18.0354 15.4759ZM18.4996 13.8263H19.5063L19.4423 14.0269C19.4333 14.0316 19.4118 14.0169 19.3094 14.029H18.4376L18.4996 13.8263ZM18.7013 13.1535H19.7164L19.6434 13.3951C19.6434 13.3951 19.165 13.3904 19.0883 13.4045C18.7512 13.4629 18.5542 13.643 18.5542 13.643L18.7013 13.1535ZM19.4649 14.6986C19.4565 14.7286 19.4433 14.7469 19.4249 14.7606C19.4045 14.7737 19.3714 14.7785 19.3221 14.7785H19.1786L19.1871 14.5342H18.5904L18.5662 15.7284C18.5653 15.8146 18.5736 15.8645 18.6367 15.9044C18.6997 15.9543 18.894 15.9606 19.1555 15.9606H19.5294L19.6644 15.5136L19.3389 15.5315L19.2307 15.5378C19.2159 15.5315 19.2017 15.5257 19.186 15.51C19.1723 15.4964 19.1492 15.5047 19.1529 15.4185L19.1555 15.1124L19.4969 15.0983C19.6812 15.0983 19.76 15.0383 19.8272 14.9812C19.8913 14.9265 19.9123 14.8636 19.9365 14.7785L19.9937 14.5074H19.5247L19.4649 14.6986Z" fill="#FEFEFE"/>
</svg>
