<svg width="33" height="33" viewBox="0 0 33 33" fill="none" xmlns="http://www.w3.org/2000/svg">
<g clip-path="url(#clip0_274_5219)">
<path fill-rule="evenodd" clip-rule="evenodd" d="M16.4999 4.85156C17.7539 4.85156 19.0401 4.88456 20.2868 4.93856L21.7593 5.01056L23.1688 5.09606L24.4888 5.18756L25.6944 5.28356C27.0027 5.38598 28.2338 5.95698 29.1712 6.89612C30.1085 7.83526 30.6919 9.08237 30.8189 10.4181L30.8776 11.0556L30.9876 12.4206C31.0903 13.8351 31.1665 15.3771 31.1665 16.8516C31.1665 18.3261 31.0903 19.8681 30.9876 21.2826L30.8776 22.6476C30.8585 22.8666 30.8395 23.0781 30.8189 23.2851C30.6919 24.621 30.1082 25.8683 29.1706 26.8075C28.233 27.7466 27.0015 28.3175 25.6929 28.4196L24.4903 28.5141L23.1703 28.6071L21.7593 28.6926L20.2868 28.7646C19.0252 28.8206 17.7626 28.8496 16.4999 28.8516C15.2371 28.8496 13.9745 28.8206 12.7129 28.7646L11.2404 28.6926L9.83092 28.6071L8.51092 28.5141L7.30532 28.4196C5.99698 28.3171 4.76587 27.7461 3.82855 26.807C2.89123 25.8679 2.30777 24.6208 2.18079 23.2851L2.12212 22.6476L2.01212 21.2826C1.89998 19.8083 1.8403 18.3303 1.83319 16.8516C1.83319 15.3771 1.90946 13.8351 2.01212 12.4206L2.12212 11.0556C2.14119 10.8366 2.16026 10.6251 2.18079 10.4181C2.30772 9.08261 2.89098 7.83569 3.82799 6.89658C4.76501 5.95747 5.99578 5.38632 7.30386 5.28356L8.50799 5.18756L9.82799 5.09606L11.2389 5.01056L12.7115 4.93856C13.9735 4.88251 15.2366 4.85351 16.4999 4.85156ZM13.5665 13.2141V20.4891C13.5665 21.1821 14.2999 21.6141 14.8865 21.2691L21.0465 17.6316C21.1806 17.5526 21.2919 17.439 21.3693 17.3021C21.4467 17.1651 21.4875 17.0097 21.4875 16.8516C21.4875 16.6934 21.4467 16.538 21.3693 16.4011C21.2919 16.2641 21.1806 16.1505 21.0465 16.0716L14.8865 12.4356C14.7527 12.3565 14.6009 12.315 14.4464 12.315C14.2919 12.315 14.1401 12.3566 14.0063 12.4357C13.8725 12.5148 13.7614 12.6285 13.6842 12.7654C13.607 12.9023 13.5664 13.0575 13.5665 13.2156V13.2141Z" fill="#98A2B3"/>
</g>
<defs>
<clipPath id="clip0_274_5219">
<rect width="32" height="32" fill="white" transform="translate(0.5 0.5)"/>
</clipPath>
</defs>
</svg>
